<?xml version='1.0' encoding='UTF-8' standalone='no'?>
<svg width="576pt" xmlns="http://www.w3.org/2000/svg" viewBox="0 0 576 432" xmlns:xlink="http://www.w3.org/1999/xlink" height="432pt">
 <title>gl2ps_renderer figure</title>
 <desc>
Creator: GL2PS 1.4.0, (C) 1999-2017 C. Geuzaine
For: Octave
CreationDate: Fri Dec 16 17:24:41 2022
</desc>
 <defs/>
 <polygon points="0,0 576,0 576,432 0,432" fill="#ffffff"/>
 <g>
  <polygon points="0,432 576,432 576,0 0,0" shape-rendering="crispEdges" fill="#ffffff"/>
  <clipPath id="cp00576432">
   <polygon points="0,432 576,432 576,0 0,0"/>
  </clipPath>
  <g clip-path="url(#cp00576432)">
   <polygon shape-rendering="crispEdges" points="74.88,384.48 521.28,384.48 521.28,32.4 74.88,32.4" fill="#ffffff"/>
   <polyline points="74.88,384.48 74.88,380.015" fill="none" stroke-width="0.5" stroke-linejoin="miter" stroke-linecap="butt" stroke="#262626"/>
   <polyline points="74.88,32.4 74.88,36.8651" fill="none" stroke-width="0.5" stroke-linejoin="miter" stroke-linecap="butt" stroke="#262626"/>
   <polyline points="186.48,384.48 186.48,380.015" fill="none" stroke-width="0.5" stroke-linejoin="miter" stroke-linecap="butt" stroke="#262626"/>
   <polyline points="186.48,32.4 186.48,36.8651" fill="none" stroke-width="0.5" stroke-linejoin="miter" stroke-linecap="butt" stroke="#262626"/>
   <polyline points="298.08,384.48 298.08,380.015" fill="none" stroke-width="0.5" stroke-linejoin="miter" stroke-linecap="butt" stroke="#262626"/>
   <polyline points="298.08,32.4 298.08,36.8651" fill="none" stroke-width="0.5" stroke-linejoin="miter" stroke-linecap="butt" stroke="#262626"/>
   <polyline points="409.68,384.48 409.68,380.015" fill="none" stroke-width="0.5" stroke-linejoin="miter" stroke-linecap="butt" stroke="#262626"/>
   <polyline points="409.68,32.4 409.68,36.8651" fill="none" stroke-width="0.5" stroke-linejoin="miter" stroke-linecap="butt" stroke="#262626"/>
   <polyline points="521.28,384.48 521.28,380.015" fill="none" stroke-width="0.5" stroke-linejoin="miter" stroke-linecap="butt" stroke="#262626"/>
   <polyline points="521.28,32.4 521.28,36.8651" fill="none" stroke-width="0.5" stroke-linejoin="miter" stroke-linecap="butt" stroke="#262626"/>
   <text font-size="10" font-weight="normal" transform="translate(67.38,399.982) rotate(-0,7.5,-8)" font-family="FreeSans" font-style="normal" xml:space="preserve">
    <tspan y="-0" x="0 3 9 " fill="rgb(38,38,38)">-20</tspan>
   </text>
   <text font-size="10" font-weight="normal" transform="translate(178.98,399.982) rotate(-0,7.5,-8)" font-family="FreeSans" font-style="normal" xml:space="preserve">
    <tspan y="-0" x="0 3 9 " fill="rgb(38,38,38)">-10</tspan>
   </text>
   <text font-size="10" font-weight="normal" transform="translate(295.08,399.982) rotate(-0,3,-8)" font-family="FreeSans" font-style="normal" xml:space="preserve">
    <tspan y="-0" x="0 " fill="rgb(38,38,38)">0</tspan>
   </text>
   <text font-size="10" font-weight="normal" transform="translate(403.68,399.982) rotate(-0,6,-8)" font-family="FreeSans" font-style="normal" xml:space="preserve">
    <tspan y="-0" x="0 6 " fill="rgb(38,38,38)">10</tspan>
   </text>
   <text font-size="10" font-weight="normal" transform="translate(515.28,399.982) rotate(-0,6,-8)" font-family="FreeSans" font-style="normal" xml:space="preserve">
    <tspan y="-0" x="0 6 " fill="rgb(38,38,38)">20</tspan>
   </text>
   <polyline points="74.88,384.48 79.348,384.48" fill="none" stroke-width="0.5" stroke-linejoin="miter" stroke-linecap="butt" stroke="#262626"/>
   <polyline points="521.28,384.48 516.812,384.48" fill="none" stroke-width="0.5" stroke-linejoin="miter" stroke-linecap="butt" stroke="#262626"/>
   <polyline points="74.88,296.46 79.348,296.46" fill="none" stroke-width="0.5" stroke-linejoin="miter" stroke-linecap="butt" stroke="#262626"/>
   <polyline points="521.28,296.46 516.812,296.46" fill="none" stroke-width="0.5" stroke-linejoin="miter" stroke-linecap="butt" stroke="#262626"/>
   <polyline points="74.88,208.44 79.348,208.44" fill="none" stroke-width="0.5" stroke-linejoin="miter" stroke-linecap="butt" stroke="#262626"/>
   <polyline points="521.28,208.44 516.812,208.44" fill="none" stroke-width="0.5" stroke-linejoin="miter" stroke-linecap="butt" stroke="#262626"/>
   <polyline points="74.88,120.42 79.348,120.42" fill="none" stroke-width="0.5" stroke-linejoin="miter" stroke-linecap="butt" stroke="#262626"/>
   <polyline points="521.28,120.42 516.812,120.42" fill="none" stroke-width="0.5" stroke-linejoin="miter" stroke-linecap="butt" stroke="#262626"/>
   <polyline points="74.88,32.4 79.348,32.4" fill="none" stroke-width="0.5" stroke-linejoin="miter" stroke-linecap="butt" stroke="#262626"/>
   <polyline points="521.28,32.4 516.812,32.4" fill="none" stroke-width="0.5" stroke-linejoin="miter" stroke-linecap="butt" stroke="#262626"/>
   <text font-size="10" font-weight="normal" transform="translate(36.8755,388.48) rotate(-0,33,-4)" font-family="FreeSans" font-style="normal" xml:space="preserve">
    <tspan y="-0" x="0 3 9 15 21 27 " fill="rgb(38,38,38)">-10000</tspan>
   </text>
   <text font-size="10" font-weight="normal" transform="translate(42.8755,300.46) rotate(-0,27,-4)" font-family="FreeSans" font-style="normal" xml:space="preserve">
    <tspan y="-0" x="0 3 9 15 21 " fill="rgb(38,38,38)">-5000</tspan>
   </text>
   <text font-size="10" font-weight="normal" transform="translate(63.8755,212.44) rotate(-0,6,-4)" font-family="FreeSans" font-style="normal" xml:space="preserve">
    <tspan y="-0" x="0 " fill="rgb(38,38,38)">0</tspan>
   </text>
   <text font-size="10" font-weight="normal" transform="translate(45.8755,124.42) rotate(-0,24,-4)" font-family="FreeSans" font-style="normal" xml:space="preserve">
    <tspan y="-0" x="0 6 12 18 " fill="rgb(38,38,38)">5000</tspan>
   </text>
   <text font-size="10" font-weight="normal" transform="translate(39.8755,36.4) rotate(-0,30,-4)" font-family="FreeSans" font-style="normal" xml:space="preserve">
    <tspan y="-0" x="0 6 12 18 24 " fill="rgb(38,38,38)">10000</tspan>
   </text>
   <polyline points="74.88,384.48 521.28,384.48" stroke-dasharray="16,0" fill="none" stroke-width="0.5" stroke-linejoin="miter" stroke-linecap="square" stroke="#262626"/>
   <polyline points="74.88,32.4 521.28,32.4" stroke-dasharray="16,0" fill="none" stroke-width="0.5" stroke-linejoin="miter" stroke-linecap="square" stroke="#262626"/>
   <polyline points="74.88,384.48 74.88,32.4" stroke-dasharray="16,0" fill="none" stroke-width="0.5" stroke-linejoin="miter" stroke-linecap="square" stroke="#262626"/>
   <polyline points="521.28,384.48 521.28,32.4" stroke-dasharray="16,0" fill="none" stroke-width="0.5" stroke-linejoin="miter" stroke-linecap="square" stroke="#262626"/>
   <polyline points="74.88,329.186 130.68,256.745 186.48,221.273 242.28,209.567 298.08,208.422 353.88,204.638 409.68,185.009 465.48,136.334 521.28,45.4094" fill="none" stroke-width="0.5" stroke-linejoin="round" stroke-linecap="butt" stroke="#0071bc"/>
  </g>
 </g>
</svg>
