<?xml version='1.0' encoding='UTF-8' standalone='no'?>
<svg xmlns="http://www.w3.org/2000/svg" xmlns:xlink="http://www.w3.org/1999/xlink" height="432pt" width="576pt" viewBox="0 0 576 432">
 <title>gl2ps_renderer figure</title>
 <desc>
Creator: GL2PS 1.4.0, (C) 1999-2017 C. Geuzaine
For: Octave
CreationDate: Sun Dec 25 16:24:41 2022
</desc>
 <defs/>
 <polygon fill="#ffffff" points="0,0 576,0 576,432 0,432"/>
 <g>
  <polygon fill="#ffffff" shape-rendering="crispEdges" points="0,432 576,432 576,0 0,0"/>
  <clipPath id="cp00576432">
   <polygon points="0,432 576,432 576,0 0,0"/>
  </clipPath>
  <g clip-path="url(#cp00576432)">
   <polygon fill="#ffffff" shape-rendering="crispEdges" points="74.88,384.48 521.28,384.48 521.28,32.4 74.88,32.4"/>
   <polyline stroke-linecap="butt" fill="none" stroke-width="0.5" points="74.88,384.48 74.88,380.015" stroke-linejoin="miter" stroke="#262626"/>
   <polyline stroke-linecap="butt" fill="none" stroke-width="0.5" points="74.88,32.4 74.88,36.865" stroke-linejoin="miter" stroke="#262626"/>
   <polyline stroke-linecap="butt" fill="none" stroke-width="0.5" points="149.28,384.48 149.28,380.015" stroke-linejoin="miter" stroke="#262626"/>
   <polyline stroke-linecap="butt" fill="none" stroke-width="0.5" points="149.28,32.4 149.28,36.865" stroke-linejoin="miter" stroke="#262626"/>
   <polyline stroke-linecap="butt" fill="none" stroke-width="0.5" points="223.68,384.48 223.68,380.015" stroke-linejoin="miter" stroke="#262626"/>
   <polyline stroke-linecap="butt" fill="none" stroke-width="0.5" points="223.68,32.4 223.68,36.865" stroke-linejoin="miter" stroke="#262626"/>
   <polyline stroke-linecap="butt" fill="none" stroke-width="0.5" points="298.08,384.48 298.08,380.015" stroke-linejoin="miter" stroke="#262626"/>
   <polyline stroke-linecap="butt" fill="none" stroke-width="0.5" points="298.08,32.4 298.08,36.865" stroke-linejoin="miter" stroke="#262626"/>
   <polyline stroke-linecap="butt" fill="none" stroke-width="0.5" points="372.48,384.48 372.48,380.015" stroke-linejoin="miter" stroke="#262626"/>
   <polyline stroke-linecap="butt" fill="none" stroke-width="0.5" points="372.48,32.4 372.48,36.865" stroke-linejoin="miter" stroke="#262626"/>
   <polyline stroke-linecap="butt" fill="none" stroke-width="0.5" points="446.88,384.48 446.88,380.015" stroke-linejoin="miter" stroke="#262626"/>
   <polyline stroke-linecap="butt" fill="none" stroke-width="0.5" points="446.88,32.4 446.88,36.865" stroke-linejoin="miter" stroke="#262626"/>
   <polyline stroke-linecap="butt" fill="none" stroke-width="0.5" points="521.28,384.48 521.28,380.015" stroke-linejoin="miter" stroke="#262626"/>
   <polyline stroke-linecap="butt" fill="none" stroke-width="0.5" points="521.28,32.4 521.28,36.865" stroke-linejoin="miter" stroke="#262626"/>
   <text transform="translate(70.38,399.982) rotate(-0,4.5,-8)" font-weight="normal" xml:space="preserve" font-style="normal" font-size="10" font-family="FreeSans">
    <tspan y="-0" fill="rgb(38,38,38)" x="0 3 ">-6</tspan>
   </text>
   <text transform="translate(144.78,399.982) rotate(-0,4.5,-8)" font-weight="normal" xml:space="preserve" font-style="normal" font-size="10" font-family="FreeSans">
    <tspan y="-0" fill="rgb(38,38,38)" x="0 3 ">-4</tspan>
   </text>
   <text transform="translate(219.18,399.982) rotate(-0,4.5,-8)" font-weight="normal" xml:space="preserve" font-style="normal" font-size="10" font-family="FreeSans">
    <tspan y="-0" fill="rgb(38,38,38)" x="0 3 ">-2</tspan>
   </text>
   <text transform="translate(295.08,399.982) rotate(-0,3,-8)" font-weight="normal" xml:space="preserve" font-style="normal" font-size="10" font-family="FreeSans">
    <tspan y="-0" fill="rgb(38,38,38)" x="0 ">0</tspan>
   </text>
   <text transform="translate(369.48,399.982) rotate(-0,3,-8)" font-weight="normal" xml:space="preserve" font-style="normal" font-size="10" font-family="FreeSans">
    <tspan y="-0" fill="rgb(38,38,38)" x="0 ">2</tspan>
   </text>
   <text transform="translate(443.88,399.982) rotate(-0,3,-8)" font-weight="normal" xml:space="preserve" font-style="normal" font-size="10" font-family="FreeSans">
    <tspan y="-0" fill="rgb(38,38,38)" x="0 ">4</tspan>
   </text>
   <text transform="translate(518.28,399.982) rotate(-0,3,-8)" font-weight="normal" xml:space="preserve" font-style="normal" font-size="10" font-family="FreeSans">
    <tspan y="-0" fill="rgb(38,38,38)" x="0 ">6</tspan>
   </text>
   <polyline stroke-linecap="butt" fill="none" stroke-width="0.5" points="74.88,384.48 79.348,384.48" stroke-linejoin="miter" stroke="#262626"/>
   <polyline stroke-linecap="butt" fill="none" stroke-width="0.5" points="521.28,384.48 516.812,384.48" stroke-linejoin="miter" stroke="#262626"/>
   <polyline stroke-linecap="butt" fill="none" stroke-width="0.5" points="74.88,325.8 79.348,325.8" stroke-linejoin="miter" stroke="#262626"/>
   <polyline stroke-linecap="butt" fill="none" stroke-width="0.5" points="521.28,325.8 516.812,325.8" stroke-linejoin="miter" stroke="#262626"/>
   <polyline stroke-linecap="butt" fill="none" stroke-width="0.5" points="74.88,267.12 79.348,267.12" stroke-linejoin="miter" stroke="#262626"/>
   <polyline stroke-linecap="butt" fill="none" stroke-width="0.5" points="521.28,267.12 516.812,267.12" stroke-linejoin="miter" stroke="#262626"/>
   <polyline stroke-linecap="butt" fill="none" stroke-width="0.5" points="74.88,208.44 79.348,208.44" stroke-linejoin="miter" stroke="#262626"/>
   <polyline stroke-linecap="butt" fill="none" stroke-width="0.5" points="521.28,208.44 516.812,208.44" stroke-linejoin="miter" stroke="#262626"/>
   <polyline stroke-linecap="butt" fill="none" stroke-width="0.5" points="74.88,149.76 79.348,149.76" stroke-linejoin="miter" stroke="#262626"/>
   <polyline stroke-linecap="butt" fill="none" stroke-width="0.5" points="521.28,149.76 516.812,149.76" stroke-linejoin="miter" stroke="#262626"/>
   <polyline stroke-linecap="butt" fill="none" stroke-width="0.5" points="74.88,91.08 79.348,91.08" stroke-linejoin="miter" stroke="#262626"/>
   <polyline stroke-linecap="butt" fill="none" stroke-width="0.5" points="521.28,91.08 516.812,91.08" stroke-linejoin="miter" stroke="#262626"/>
   <polyline stroke-linecap="butt" fill="none" stroke-width="0.5" points="74.88,32.4 79.348,32.4" stroke-linejoin="miter" stroke="#262626"/>
   <polyline stroke-linecap="butt" fill="none" stroke-width="0.5" points="521.28,32.4 516.812,32.4" stroke-linejoin="miter" stroke="#262626"/>
   <text transform="translate(48.8755,388.48) rotate(-0,21,-4)" font-weight="normal" xml:space="preserve" font-style="normal" font-size="10" font-family="FreeSans">
    <tspan y="-0" fill="rgb(38,38,38)" x="0 3 9 15 ">-250</tspan>
   </text>
   <text transform="translate(48.8755,329.8) rotate(-0,21,-4)" font-weight="normal" xml:space="preserve" font-style="normal" font-size="10" font-family="FreeSans">
    <tspan y="-0" fill="rgb(38,38,38)" x="0 3 9 15 ">-200</tspan>
   </text>
   <text transform="translate(48.8755,271.12) rotate(-0,21,-4)" font-weight="normal" xml:space="preserve" font-style="normal" font-size="10" font-family="FreeSans">
    <tspan y="-0" fill="rgb(38,38,38)" x="0 3 9 15 ">-150</tspan>
   </text>
   <text transform="translate(48.8755,212.44) rotate(-0,21,-4)" font-weight="normal" xml:space="preserve" font-style="normal" font-size="10" font-family="FreeSans">
    <tspan y="-0" fill="rgb(38,38,38)" x="0 3 9 15 ">-100</tspan>
   </text>
   <text transform="translate(54.8755,153.76) rotate(-0,15,-4)" font-weight="normal" xml:space="preserve" font-style="normal" font-size="10" font-family="FreeSans">
    <tspan y="-0" fill="rgb(38,38,38)" x="0 3 9 ">-50</tspan>
   </text>
   <text transform="translate(63.8755,95.08) rotate(-0,6,-4)" font-weight="normal" xml:space="preserve" font-style="normal" font-size="10" font-family="FreeSans">
    <tspan y="-0" fill="rgb(38,38,38)" x="0 ">0</tspan>
   </text>
   <text transform="translate(57.8755,36.4) rotate(-0,12,-4)" font-weight="normal" xml:space="preserve" font-style="normal" font-size="10" font-family="FreeSans">
    <tspan y="-0" fill="rgb(38,38,38)" x="0 6 ">50</tspan>
   </text>
   <polyline stroke-linecap="square" fill="none" stroke-width="0.5" points="74.88,384.48 521.28,384.48" stroke-dasharray="16,0" stroke-linejoin="miter" stroke="#262626"/>
   <polyline stroke-linecap="square" fill="none" stroke-width="0.5" points="74.88,32.4 521.28,32.4" stroke-dasharray="16,0" stroke-linejoin="miter" stroke="#262626"/>
   <polyline stroke-linecap="square" fill="none" stroke-width="0.5" points="74.88,384.48 74.88,32.4" stroke-dasharray="16,0" stroke-linejoin="miter" stroke="#262626"/>
   <polyline stroke-linecap="square" fill="none" stroke-width="0.5" points="521.28,384.48 521.28,32.4" stroke-dasharray="16,0" stroke-linejoin="miter" stroke="#262626"/>
   <text transform="translate(235.08,22.4) rotate(-0,63,0)" font-weight="bold" xml:space="preserve" font-style="normal" font-size="11" font-family="FreeSans">
    <tspan y="-3" fill="rgb(0,0,0)" x="0 10 16 20 27 34 37 44 50 53 60 63 66 72 78 85 88 94 101 107 113 120 ">metod najblizeg suseda</tspan>
   </text>
   <polyline stroke-linecap="round" fill="none" stroke-width="0.5" points="117.08,361.008 116.585,363.177 115.197,364.917 113.193,365.883 110.967,365.883 108.963,364.917 107.575,363.177 107.08,361.008 107.575,358.839 108.963,357.099 110.967,356.133 113.193,356.133 115.197,357.099 116.585,358.839 117.08,361.008" stroke-linejoin="round" stroke="#0071bc"/>
   <polyline stroke-linecap="round" fill="none" stroke-width="0.5" points="154.28,245.995 153.785,248.165 152.397,249.904 150.393,250.87 148.167,250.87 146.163,249.904 144.775,248.165 144.28,245.995 144.775,243.826 146.163,242.086 148.167,241.121 150.393,241.121 152.397,242.086 153.785,243.826 154.28,245.995" stroke-linejoin="round" stroke="#0071bc"/>
   <polyline stroke-linecap="round" fill="none" stroke-width="0.5" points="191.48,168.538 190.985,170.707 189.597,172.447 187.593,173.412 185.367,173.412 183.363,172.447 181.975,170.707 181.48,168.538 181.975,166.368 183.363,164.628 185.367,163.663 187.593,163.663 189.597,164.628 190.985,166.368 191.48,168.538" stroke-linejoin="round" stroke="#0071bc"/>
   <polyline stroke-linecap="round" fill="none" stroke-width="0.5" points="228.68,121.594 228.185,123.763 226.797,125.503 224.793,126.468 222.567,126.468 220.563,125.503 219.175,123.763 218.68,121.594 219.175,119.424 220.563,117.684 222.567,116.719 224.793,116.719 226.797,117.684 228.185,119.424 228.68,121.594" stroke-linejoin="round" stroke="#0071bc"/>
   <polyline stroke-linecap="round" fill="none" stroke-width="0.5" points="265.88,98.1216 265.385,100.291 263.997,102.031 261.993,102.996 259.767,102.996 257.763,102.031 256.375,100.291 255.88,98.1216 256.375,95.9522 257.763,94.2124 259.767,93.247 261.993,93.247 263.997,94.2124 265.385,95.9522 265.88,98.1216" stroke-linejoin="round" stroke="#0071bc"/>
   <polyline stroke-linecap="round" fill="none" stroke-width="0.5" points="303.08,91.08 302.585,93.2494 301.197,94.9892 299.193,95.9547 296.967,95.9547 294.963,94.9892 293.575,93.2494 293.08,91.08 293.575,88.9106 294.963,87.1708 296.967,86.2054 299.193,86.2054 301.197,87.1708 302.585,88.9106 303.08,91.08" stroke-linejoin="round" stroke="#0071bc"/>
   <polyline stroke-linecap="round" fill="none" stroke-width="0.5" points="340.28,93.4272 339.785,95.5966 338.397,97.3364 336.393,98.3018 334.167,98.3018 332.163,97.3364 330.775,95.5966 330.28,93.4272 330.775,91.2578 332.163,89.518 334.167,88.5526 336.393,88.5526 338.397,89.518 339.785,91.2578 340.28,93.4272" stroke-linejoin="round" stroke="#0071bc"/>
   <polyline stroke-linecap="round" fill="none" stroke-width="0.5" points="377.48,98.1216 376.985,100.291 375.597,102.031 373.593,102.996 371.367,102.996 369.363,102.031 367.975,100.291 367.48,98.1216 367.975,95.9522 369.363,94.2124 371.367,93.247 373.593,93.247 375.597,94.2124 376.985,95.9522 377.48,98.1216" stroke-linejoin="round" stroke="#0071bc"/>
   <polyline stroke-linecap="round" fill="none" stroke-width="0.5" points="414.68,98.1216 414.185,100.291 412.797,102.031 410.793,102.996 408.567,102.996 406.563,102.031 405.175,100.291 404.68,98.1216 405.175,95.9522 406.563,94.2124 408.567,93.247 410.793,93.247 412.797,94.2124 414.185,95.9522 414.68,98.1216" stroke-linejoin="round" stroke="#0071bc"/>
   <polyline stroke-linecap="round" fill="none" stroke-width="0.5" points="451.88,86.3856 451.385,88.555 449.997,90.2948 447.993,91.2602 445.767,91.2602 443.763,90.2948 442.375,88.555 441.88,86.3856 442.375,84.2162 443.763,82.4764 445.767,81.511 447.993,81.511 449.997,82.4764 451.385,84.2162 451.88,86.3856" stroke-linejoin="round" stroke="#0071bc"/>
   <polyline stroke-linecap="round" fill="none" stroke-width="0.5" points="489.08,55.872 488.585,58.0414 487.197,59.7812 485.193,60.7466 482.967,60.7466 480.963,59.7812 479.575,58.0414 479.08,55.872 479.575,53.7026 480.963,51.9628 482.967,50.9973 485.193,50.9973 487.197,51.9628 488.585,53.7026 489.08,55.872" stroke-linejoin="round" stroke="#0071bc"/>
   <polyline stroke-linecap="square" fill="none" stroke-width="0.5" points="109.08,358.008 115.08,364.008" stroke-linejoin="miter" stroke="#ff0000"/>
   <polyline stroke-linecap="square" fill="none" stroke-width="0.5" points="109.08,364.008 115.08,358.008" stroke-linejoin="miter" stroke="#ff0000"/>
   <polyline stroke-linecap="square" fill="none" stroke-width="0.5" points="116.52,358.008 122.52,364.008" stroke-linejoin="miter" stroke="#ff0000"/>
   <polyline stroke-linecap="square" fill="none" stroke-width="0.5" points="116.52,364.008 122.52,358.008" stroke-linejoin="miter" stroke="#ff0000"/>
   <polyline stroke-linecap="square" fill="none" stroke-width="0.5" points="123.96,358.008 129.96,364.008" stroke-linejoin="miter" stroke="#ff0000"/>
   <polyline stroke-linecap="square" fill="none" stroke-width="0.5" points="123.96,364.008 129.96,358.008" stroke-linejoin="miter" stroke="#ff0000"/>
   <polyline stroke-linecap="square" fill="none" stroke-width="0.5" points="131.4,242.995 137.4,248.995" stroke-linejoin="miter" stroke="#ff0000"/>
   <polyline stroke-linecap="square" fill="none" stroke-width="0.5" points="131.4,248.995 137.4,242.995" stroke-linejoin="miter" stroke="#ff0000"/>
   <polyline stroke-linecap="square" fill="none" stroke-width="0.5" points="138.84,242.995 144.84,248.995" stroke-linejoin="miter" stroke="#ff0000"/>
   <polyline stroke-linecap="square" fill="none" stroke-width="0.5" points="138.84,248.995 144.84,242.995" stroke-linejoin="miter" stroke="#ff0000"/>
   <polyline stroke-linecap="square" fill="none" stroke-width="0.5" points="146.28,242.995 152.28,248.995" stroke-linejoin="miter" stroke="#ff0000"/>
   <polyline stroke-linecap="square" fill="none" stroke-width="0.5" points="146.28,248.995 152.28,242.995" stroke-linejoin="miter" stroke="#ff0000"/>
   <polyline stroke-linecap="square" fill="none" stroke-width="0.5" points="153.72,242.995 159.72,248.995" stroke-linejoin="miter" stroke="#ff0000"/>
   <polyline stroke-linecap="square" fill="none" stroke-width="0.5" points="153.72,248.995 159.72,242.995" stroke-linejoin="miter" stroke="#ff0000"/>
   <polyline stroke-linecap="square" fill="none" stroke-width="0.5" points="161.16,242.995 167.16,248.995" stroke-linejoin="miter" stroke="#ff0000"/>
   <polyline stroke-linecap="square" fill="none" stroke-width="0.5" points="161.16,248.995 167.16,242.995" stroke-linejoin="miter" stroke="#ff0000"/>
   <polyline stroke-linecap="square" fill="none" stroke-width="0.5" points="168.6,165.538 174.6,171.538" stroke-linejoin="miter" stroke="#ff0000"/>
   <polyline stroke-linecap="square" fill="none" stroke-width="0.5" points="168.6,171.538 174.6,165.538" stroke-linejoin="miter" stroke="#ff0000"/>
   <polyline stroke-linecap="square" fill="none" stroke-width="0.5" points="176.04,165.538 182.04,171.538" stroke-linejoin="miter" stroke="#ff0000"/>
   <polyline stroke-linecap="square" fill="none" stroke-width="0.5" points="176.04,171.538 182.04,165.538" stroke-linejoin="miter" stroke="#ff0000"/>
   <polyline stroke-linecap="square" fill="none" stroke-width="0.5" points="183.48,165.538 189.48,171.538" stroke-linejoin="miter" stroke="#ff0000"/>
   <polyline stroke-linecap="square" fill="none" stroke-width="0.5" points="183.48,171.538 189.48,165.538" stroke-linejoin="miter" stroke="#ff0000"/>
   <polyline stroke-linecap="square" fill="none" stroke-width="0.5" points="190.92,165.538 196.92,171.538" stroke-linejoin="miter" stroke="#ff0000"/>
   <polyline stroke-linecap="square" fill="none" stroke-width="0.5" points="190.92,171.538 196.92,165.538" stroke-linejoin="miter" stroke="#ff0000"/>
   <polyline stroke-linecap="square" fill="none" stroke-width="0.5" points="198.36,165.538 204.36,171.538" stroke-linejoin="miter" stroke="#ff0000"/>
   <polyline stroke-linecap="square" fill="none" stroke-width="0.5" points="198.36,171.538 204.36,165.538" stroke-linejoin="miter" stroke="#ff0000"/>
   <polyline stroke-linecap="square" fill="none" stroke-width="0.5" points="205.8,118.594 211.8,124.594" stroke-linejoin="miter" stroke="#ff0000"/>
   <polyline stroke-linecap="square" fill="none" stroke-width="0.5" points="205.8,124.594 211.8,118.594" stroke-linejoin="miter" stroke="#ff0000"/>
   <polyline stroke-linecap="square" fill="none" stroke-width="0.5" points="213.24,118.594 219.24,124.594" stroke-linejoin="miter" stroke="#ff0000"/>
   <polyline stroke-linecap="square" fill="none" stroke-width="0.5" points="213.24,124.594 219.24,118.594" stroke-linejoin="miter" stroke="#ff0000"/>
   <polyline stroke-linecap="square" fill="none" stroke-width="0.5" points="220.68,118.594 226.68,124.594" stroke-linejoin="miter" stroke="#ff0000"/>
   <polyline stroke-linecap="square" fill="none" stroke-width="0.5" points="220.68,124.594 226.68,118.594" stroke-linejoin="miter" stroke="#ff0000"/>
   <polyline stroke-linecap="square" fill="none" stroke-width="0.5" points="228.12,118.594 234.12,124.594" stroke-linejoin="miter" stroke="#ff0000"/>
   <polyline stroke-linecap="square" fill="none" stroke-width="0.5" points="228.12,124.594 234.12,118.594" stroke-linejoin="miter" stroke="#ff0000"/>
   <polyline stroke-linecap="square" fill="none" stroke-width="0.5" points="235.56,118.594 241.56,124.594" stroke-linejoin="miter" stroke="#ff0000"/>
   <polyline stroke-linecap="square" fill="none" stroke-width="0.5" points="235.56,124.594 241.56,118.594" stroke-linejoin="miter" stroke="#ff0000"/>
   <polyline stroke-linecap="square" fill="none" stroke-width="0.5" points="243,95.1216 249,101.122" stroke-linejoin="miter" stroke="#ff0000"/>
   <polyline stroke-linecap="square" fill="none" stroke-width="0.5" points="243,101.122 249,95.1216" stroke-linejoin="miter" stroke="#ff0000"/>
   <polyline stroke-linecap="square" fill="none" stroke-width="0.5" points="250.44,95.1216 256.44,101.122" stroke-linejoin="miter" stroke="#ff0000"/>
   <polyline stroke-linecap="square" fill="none" stroke-width="0.5" points="250.44,101.122 256.44,95.1216" stroke-linejoin="miter" stroke="#ff0000"/>
   <polyline stroke-linecap="square" fill="none" stroke-width="0.5" points="257.88,95.1216 263.88,101.122" stroke-linejoin="miter" stroke="#ff0000"/>
   <polyline stroke-linecap="square" fill="none" stroke-width="0.5" points="257.88,101.122 263.88,95.1216" stroke-linejoin="miter" stroke="#ff0000"/>
   <polyline stroke-linecap="square" fill="none" stroke-width="0.5" points="265.32,95.1216 271.32,101.122" stroke-linejoin="miter" stroke="#ff0000"/>
   <polyline stroke-linecap="square" fill="none" stroke-width="0.5" points="265.32,101.122 271.32,95.1216" stroke-linejoin="miter" stroke="#ff0000"/>
   <polyline stroke-linecap="square" fill="none" stroke-width="0.5" points="272.76,95.1216 278.76,101.122" stroke-linejoin="miter" stroke="#ff0000"/>
   <polyline stroke-linecap="square" fill="none" stroke-width="0.5" points="272.76,101.122 278.76,95.1216" stroke-linejoin="miter" stroke="#ff0000"/>
   <polyline stroke-linecap="square" fill="none" stroke-width="0.5" points="280.2,88.08 286.2,94.08" stroke-linejoin="miter" stroke="#ff0000"/>
   <polyline stroke-linecap="square" fill="none" stroke-width="0.5" points="280.2,94.08 286.2,88.08" stroke-linejoin="miter" stroke="#ff0000"/>
   <polyline stroke-linecap="square" fill="none" stroke-width="0.5" points="287.64,88.08 293.64,94.08" stroke-linejoin="miter" stroke="#ff0000"/>
   <polyline stroke-linecap="square" fill="none" stroke-width="0.5" points="287.64,94.08 293.64,88.08" stroke-linejoin="miter" stroke="#ff0000"/>
   <polyline stroke-linecap="square" fill="none" stroke-width="0.5" points="295.08,88.08 301.08,94.08" stroke-linejoin="miter" stroke="#ff0000"/>
   <polyline stroke-linecap="square" fill="none" stroke-width="0.5" points="295.08,94.08 301.08,88.08" stroke-linejoin="miter" stroke="#ff0000"/>
   <polyline stroke-linecap="square" fill="none" stroke-width="0.5" points="302.52,88.08 308.52,94.08" stroke-linejoin="miter" stroke="#ff0000"/>
   <polyline stroke-linecap="square" fill="none" stroke-width="0.5" points="302.52,94.08 308.52,88.08" stroke-linejoin="miter" stroke="#ff0000"/>
   <polyline stroke-linecap="square" fill="none" stroke-width="0.5" points="309.96,88.08 315.96,94.08" stroke-linejoin="miter" stroke="#ff0000"/>
   <polyline stroke-linecap="square" fill="none" stroke-width="0.5" points="309.96,94.08 315.96,88.08" stroke-linejoin="miter" stroke="#ff0000"/>
   <polyline stroke-linecap="square" fill="none" stroke-width="0.5" points="317.4,90.4272 323.4,96.4272" stroke-linejoin="miter" stroke="#ff0000"/>
   <polyline stroke-linecap="square" fill="none" stroke-width="0.5" points="317.4,96.4272 323.4,90.4272" stroke-linejoin="miter" stroke="#ff0000"/>
   <polyline stroke-linecap="square" fill="none" stroke-width="0.5" points="324.84,90.4272 330.84,96.4272" stroke-linejoin="miter" stroke="#ff0000"/>
   <polyline stroke-linecap="square" fill="none" stroke-width="0.5" points="324.84,96.4272 330.84,90.4272" stroke-linejoin="miter" stroke="#ff0000"/>
   <polyline stroke-linecap="square" fill="none" stroke-width="0.5" points="332.28,90.4272 338.28,96.4272" stroke-linejoin="miter" stroke="#ff0000"/>
   <polyline stroke-linecap="square" fill="none" stroke-width="0.5" points="332.28,96.4272 338.28,90.4272" stroke-linejoin="miter" stroke="#ff0000"/>
   <polyline stroke-linecap="square" fill="none" stroke-width="0.5" points="339.72,90.4272 345.72,96.4272" stroke-linejoin="miter" stroke="#ff0000"/>
   <polyline stroke-linecap="square" fill="none" stroke-width="0.5" points="339.72,96.4272 345.72,90.4272" stroke-linejoin="miter" stroke="#ff0000"/>
   <polyline stroke-linecap="square" fill="none" stroke-width="0.5" points="347.16,90.4272 353.16,96.4272" stroke-linejoin="miter" stroke="#ff0000"/>
   <polyline stroke-linecap="square" fill="none" stroke-width="0.5" points="347.16,96.4272 353.16,90.4272" stroke-linejoin="miter" stroke="#ff0000"/>
   <polyline stroke-linecap="square" fill="none" stroke-width="0.5" points="354.6,95.1216 360.6,101.122" stroke-linejoin="miter" stroke="#ff0000"/>
   <polyline stroke-linecap="square" fill="none" stroke-width="0.5" points="354.6,101.122 360.6,95.1216" stroke-linejoin="miter" stroke="#ff0000"/>
   <polyline stroke-linecap="square" fill="none" stroke-width="0.5" points="362.04,95.1216 368.04,101.122" stroke-linejoin="miter" stroke="#ff0000"/>
   <polyline stroke-linecap="square" fill="none" stroke-width="0.5" points="362.04,101.122 368.04,95.1216" stroke-linejoin="miter" stroke="#ff0000"/>
   <polyline stroke-linecap="square" fill="none" stroke-width="0.5" points="369.48,95.1216 375.48,101.122" stroke-linejoin="miter" stroke="#ff0000"/>
   <polyline stroke-linecap="square" fill="none" stroke-width="0.5" points="369.48,101.122 375.48,95.1216" stroke-linejoin="miter" stroke="#ff0000"/>
   <polyline stroke-linecap="square" fill="none" stroke-width="0.5" points="376.92,95.1216 382.92,101.122" stroke-linejoin="miter" stroke="#ff0000"/>
   <polyline stroke-linecap="square" fill="none" stroke-width="0.5" points="376.92,101.122 382.92,95.1216" stroke-linejoin="miter" stroke="#ff0000"/>
   <polyline stroke-linecap="square" fill="none" stroke-width="0.5" points="384.36,95.1216 390.36,101.122" stroke-linejoin="miter" stroke="#ff0000"/>
   <polyline stroke-linecap="square" fill="none" stroke-width="0.5" points="384.36,101.122 390.36,95.1216" stroke-linejoin="miter" stroke="#ff0000"/>
   <polyline stroke-linecap="square" fill="none" stroke-width="0.5" points="391.8,95.1216 397.8,101.122" stroke-linejoin="miter" stroke="#ff0000"/>
   <polyline stroke-linecap="square" fill="none" stroke-width="0.5" points="391.8,101.122 397.8,95.1216" stroke-linejoin="miter" stroke="#ff0000"/>
   <polyline stroke-linecap="square" fill="none" stroke-width="0.5" points="399.24,95.1216 405.24,101.122" stroke-linejoin="miter" stroke="#ff0000"/>
   <polyline stroke-linecap="square" fill="none" stroke-width="0.5" points="399.24,101.122 405.24,95.1216" stroke-linejoin="miter" stroke="#ff0000"/>
   <polyline stroke-linecap="square" fill="none" stroke-width="0.5" points="406.68,95.1216 412.68,101.122" stroke-linejoin="miter" stroke="#ff0000"/>
   <polyline stroke-linecap="square" fill="none" stroke-width="0.5" points="406.68,101.122 412.68,95.1216" stroke-linejoin="miter" stroke="#ff0000"/>
   <polyline stroke-linecap="square" fill="none" stroke-width="0.5" points="414.12,95.1216 420.12,101.122" stroke-linejoin="miter" stroke="#ff0000"/>
   <polyline stroke-linecap="square" fill="none" stroke-width="0.5" points="414.12,101.122 420.12,95.1216" stroke-linejoin="miter" stroke="#ff0000"/>
   <polyline stroke-linecap="square" fill="none" stroke-width="0.5" points="421.56,95.1216 427.56,101.122" stroke-linejoin="miter" stroke="#ff0000"/>
   <polyline stroke-linecap="square" fill="none" stroke-width="0.5" points="421.56,101.122 427.56,95.1216" stroke-linejoin="miter" stroke="#ff0000"/>
   <polyline stroke-linecap="square" fill="none" stroke-width="0.5" points="429,83.3856 435,89.3856" stroke-linejoin="miter" stroke="#ff0000"/>
   <polyline stroke-linecap="square" fill="none" stroke-width="0.5" points="429,89.3856 435,83.3856" stroke-linejoin="miter" stroke="#ff0000"/>
   <polyline stroke-linecap="square" fill="none" stroke-width="0.5" points="436.44,83.3856 442.44,89.3856" stroke-linejoin="miter" stroke="#ff0000"/>
   <polyline stroke-linecap="square" fill="none" stroke-width="0.5" points="436.44,89.3856 442.44,83.3856" stroke-linejoin="miter" stroke="#ff0000"/>
   <polyline stroke-linecap="square" fill="none" stroke-width="0.5" points="443.88,83.3856 449.88,89.3856" stroke-linejoin="miter" stroke="#ff0000"/>
   <polyline stroke-linecap="square" fill="none" stroke-width="0.5" points="443.88,89.3856 449.88,83.3856" stroke-linejoin="miter" stroke="#ff0000"/>
   <polyline stroke-linecap="square" fill="none" stroke-width="0.5" points="451.32,83.3856 457.32,89.3856" stroke-linejoin="miter" stroke="#ff0000"/>
   <polyline stroke-linecap="square" fill="none" stroke-width="0.5" points="451.32,89.3856 457.32,83.3856" stroke-linejoin="miter" stroke="#ff0000"/>
   <polyline stroke-linecap="square" fill="none" stroke-width="0.5" points="458.76,83.3856 464.76,89.3856" stroke-linejoin="miter" stroke="#ff0000"/>
   <polyline stroke-linecap="square" fill="none" stroke-width="0.5" points="458.76,89.3856 464.76,83.3856" stroke-linejoin="miter" stroke="#ff0000"/>
   <polyline stroke-linecap="square" fill="none" stroke-width="0.5" points="466.2,52.872 472.2,58.872" stroke-linejoin="miter" stroke="#ff0000"/>
   <polyline stroke-linecap="square" fill="none" stroke-width="0.5" points="466.2,58.872 472.2,52.872" stroke-linejoin="miter" stroke="#ff0000"/>
   <polyline stroke-linecap="square" fill="none" stroke-width="0.5" points="473.64,52.872 479.64,58.872" stroke-linejoin="miter" stroke="#ff0000"/>
   <polyline stroke-linecap="square" fill="none" stroke-width="0.5" points="473.64,58.872 479.64,52.872" stroke-linejoin="miter" stroke="#ff0000"/>
   <polyline stroke-linecap="square" fill="none" stroke-width="0.5" points="481.08,52.872 487.08,58.872" stroke-linejoin="miter" stroke="#ff0000"/>
   <polyline stroke-linecap="square" fill="none" stroke-width="0.5" points="481.08,58.872 487.08,52.872" stroke-linejoin="miter" stroke="#ff0000"/>
  </g>
 </g>
</svg>
