<?xml version='1.0' encoding='UTF-8' standalone='no'?>
<svg height="432pt" width="576pt" xmlns="http://www.w3.org/2000/svg" viewBox="0 0 576 432" xmlns:xlink="http://www.w3.org/1999/xlink">
 <title>gl2ps_renderer figure</title>
 <desc>
Creator: GL2PS 1.4.0, (C) 1999-2017 C. Geuzaine
For: Octave
CreationDate: Sun Dec 25 19:12:51 2022
</desc>
 <defs/>
 <polygon points="0,0 576,0 576,432 0,432" fill="#ffffff"/>
 <g>
  <polygon shape-rendering="crispEdges" points="0,432 576,432 576,0 0,0" fill="#ffffff"/>
  <clipPath id="cp00576432">
   <polygon points="0,432 576,432 576,0 0,0"/>
  </clipPath>
  <g clip-path="url(#cp00576432)">
   <polygon shape-rendering="crispEdges" points="74.88,384.48 521.28,384.48 521.28,32.4 74.88,32.4" fill="#ffffff"/>
   <polyline stroke="#262626" stroke-width="0.5" stroke-linejoin="miter" stroke-linecap="butt" points="74.88,384.48 74.88,380.015" fill="none"/>
   <polyline stroke="#262626" stroke-width="0.5" stroke-linejoin="miter" stroke-linecap="butt" points="74.88,32.4 74.88,36.865" fill="none"/>
   <polyline stroke="#262626" stroke-width="0.5" stroke-linejoin="miter" stroke-linecap="butt" points="149.28,384.48 149.28,380.015" fill="none"/>
   <polyline stroke="#262626" stroke-width="0.5" stroke-linejoin="miter" stroke-linecap="butt" points="149.28,32.4 149.28,36.865" fill="none"/>
   <polyline stroke="#262626" stroke-width="0.5" stroke-linejoin="miter" stroke-linecap="butt" points="223.68,384.48 223.68,380.015" fill="none"/>
   <polyline stroke="#262626" stroke-width="0.5" stroke-linejoin="miter" stroke-linecap="butt" points="223.68,32.4 223.68,36.865" fill="none"/>
   <polyline stroke="#262626" stroke-width="0.5" stroke-linejoin="miter" stroke-linecap="butt" points="298.08,384.48 298.08,380.015" fill="none"/>
   <polyline stroke="#262626" stroke-width="0.5" stroke-linejoin="miter" stroke-linecap="butt" points="298.08,32.4 298.08,36.865" fill="none"/>
   <polyline stroke="#262626" stroke-width="0.5" stroke-linejoin="miter" stroke-linecap="butt" points="372.48,384.48 372.48,380.015" fill="none"/>
   <polyline stroke="#262626" stroke-width="0.5" stroke-linejoin="miter" stroke-linecap="butt" points="372.48,32.4 372.48,36.865" fill="none"/>
   <polyline stroke="#262626" stroke-width="0.5" stroke-linejoin="miter" stroke-linecap="butt" points="446.88,384.48 446.88,380.015" fill="none"/>
   <polyline stroke="#262626" stroke-width="0.5" stroke-linejoin="miter" stroke-linecap="butt" points="446.88,32.4 446.88,36.865" fill="none"/>
   <polyline stroke="#262626" stroke-width="0.5" stroke-linejoin="miter" stroke-linecap="butt" points="521.28,384.48 521.28,380.015" fill="none"/>
   <polyline stroke="#262626" stroke-width="0.5" stroke-linejoin="miter" stroke-linecap="butt" points="521.28,32.4 521.28,36.865" fill="none"/>
   <text xml:space="preserve" font-style="normal" transform="translate(70.38,399.982) rotate(-0,4.5,-8)" font-size="10" font-weight="normal" font-family="FreeSans">
    <tspan x="0 3 " y="-0" fill="rgb(38,38,38)">-6</tspan>
   </text>
   <text xml:space="preserve" font-style="normal" transform="translate(144.78,399.982) rotate(-0,4.5,-8)" font-size="10" font-weight="normal" font-family="FreeSans">
    <tspan x="0 3 " y="-0" fill="rgb(38,38,38)">-4</tspan>
   </text>
   <text xml:space="preserve" font-style="normal" transform="translate(219.18,399.982) rotate(-0,4.5,-8)" font-size="10" font-weight="normal" font-family="FreeSans">
    <tspan x="0 3 " y="-0" fill="rgb(38,38,38)">-2</tspan>
   </text>
   <text xml:space="preserve" font-style="normal" transform="translate(295.08,399.982) rotate(-0,3,-8)" font-size="10" font-weight="normal" font-family="FreeSans">
    <tspan x="0 " y="-0" fill="rgb(38,38,38)">0</tspan>
   </text>
   <text xml:space="preserve" font-style="normal" transform="translate(369.48,399.982) rotate(-0,3,-8)" font-size="10" font-weight="normal" font-family="FreeSans">
    <tspan x="0 " y="-0" fill="rgb(38,38,38)">2</tspan>
   </text>
   <text xml:space="preserve" font-style="normal" transform="translate(443.88,399.982) rotate(-0,3,-8)" font-size="10" font-weight="normal" font-family="FreeSans">
    <tspan x="0 " y="-0" fill="rgb(38,38,38)">4</tspan>
   </text>
   <text xml:space="preserve" font-style="normal" transform="translate(518.28,399.982) rotate(-0,3,-8)" font-size="10" font-weight="normal" font-family="FreeSans">
    <tspan x="0 " y="-0" fill="rgb(38,38,38)">6</tspan>
   </text>
   <polyline stroke="#262626" stroke-width="0.5" stroke-linejoin="miter" stroke-linecap="butt" points="74.88,384.48 79.348,384.48" fill="none"/>
   <polyline stroke="#262626" stroke-width="0.5" stroke-linejoin="miter" stroke-linecap="butt" points="521.28,384.48 516.812,384.48" fill="none"/>
   <polyline stroke="#262626" stroke-width="0.5" stroke-linejoin="miter" stroke-linecap="butt" points="74.88,325.8 79.348,325.8" fill="none"/>
   <polyline stroke="#262626" stroke-width="0.5" stroke-linejoin="miter" stroke-linecap="butt" points="521.28,325.8 516.812,325.8" fill="none"/>
   <polyline stroke="#262626" stroke-width="0.5" stroke-linejoin="miter" stroke-linecap="butt" points="74.88,267.12 79.348,267.12" fill="none"/>
   <polyline stroke="#262626" stroke-width="0.5" stroke-linejoin="miter" stroke-linecap="butt" points="521.28,267.12 516.812,267.12" fill="none"/>
   <polyline stroke="#262626" stroke-width="0.5" stroke-linejoin="miter" stroke-linecap="butt" points="74.88,208.44 79.348,208.44" fill="none"/>
   <polyline stroke="#262626" stroke-width="0.5" stroke-linejoin="miter" stroke-linecap="butt" points="521.28,208.44 516.812,208.44" fill="none"/>
   <polyline stroke="#262626" stroke-width="0.5" stroke-linejoin="miter" stroke-linecap="butt" points="74.88,149.76 79.348,149.76" fill="none"/>
   <polyline stroke="#262626" stroke-width="0.5" stroke-linejoin="miter" stroke-linecap="butt" points="521.28,149.76 516.812,149.76" fill="none"/>
   <polyline stroke="#262626" stroke-width="0.5" stroke-linejoin="miter" stroke-linecap="butt" points="74.88,91.08 79.348,91.08" fill="none"/>
   <polyline stroke="#262626" stroke-width="0.5" stroke-linejoin="miter" stroke-linecap="butt" points="521.28,91.08 516.812,91.08" fill="none"/>
   <polyline stroke="#262626" stroke-width="0.5" stroke-linejoin="miter" stroke-linecap="butt" points="74.88,32.4 79.348,32.4" fill="none"/>
   <polyline stroke="#262626" stroke-width="0.5" stroke-linejoin="miter" stroke-linecap="butt" points="521.28,32.4 516.812,32.4" fill="none"/>
   <text xml:space="preserve" font-style="normal" transform="translate(48.8755,388.48) rotate(-0,21,-4)" font-size="10" font-weight="normal" font-family="FreeSans">
    <tspan x="0 3 9 15 " y="-0" fill="rgb(38,38,38)">-250</tspan>
   </text>
   <text xml:space="preserve" font-style="normal" transform="translate(48.8755,329.8) rotate(-0,21,-4)" font-size="10" font-weight="normal" font-family="FreeSans">
    <tspan x="0 3 9 15 " y="-0" fill="rgb(38,38,38)">-200</tspan>
   </text>
   <text xml:space="preserve" font-style="normal" transform="translate(48.8755,271.12) rotate(-0,21,-4)" font-size="10" font-weight="normal" font-family="FreeSans">
    <tspan x="0 3 9 15 " y="-0" fill="rgb(38,38,38)">-150</tspan>
   </text>
   <text xml:space="preserve" font-style="normal" transform="translate(48.8755,212.44) rotate(-0,21,-4)" font-size="10" font-weight="normal" font-family="FreeSans">
    <tspan x="0 3 9 15 " y="-0" fill="rgb(38,38,38)">-100</tspan>
   </text>
   <text xml:space="preserve" font-style="normal" transform="translate(54.8755,153.76) rotate(-0,15,-4)" font-size="10" font-weight="normal" font-family="FreeSans">
    <tspan x="0 3 9 " y="-0" fill="rgb(38,38,38)">-50</tspan>
   </text>
   <text xml:space="preserve" font-style="normal" transform="translate(63.8755,95.08) rotate(-0,6,-4)" font-size="10" font-weight="normal" font-family="FreeSans">
    <tspan x="0 " y="-0" fill="rgb(38,38,38)">0</tspan>
   </text>
   <text xml:space="preserve" font-style="normal" transform="translate(57.8755,36.4) rotate(-0,12,-4)" font-size="10" font-weight="normal" font-family="FreeSans">
    <tspan x="0 6 " y="-0" fill="rgb(38,38,38)">50</tspan>
   </text>
   <polyline stroke="#262626" stroke-width="0.5" stroke-linejoin="miter" stroke-dasharray="16,0" stroke-linecap="square" points="74.88,384.48 521.28,384.48" fill="none"/>
   <polyline stroke="#262626" stroke-width="0.5" stroke-linejoin="miter" stroke-dasharray="16,0" stroke-linecap="square" points="74.88,32.4 521.28,32.4" fill="none"/>
   <polyline stroke="#262626" stroke-width="0.5" stroke-linejoin="miter" stroke-dasharray="16,0" stroke-linecap="square" points="74.88,384.48 74.88,32.4" fill="none"/>
   <polyline stroke="#262626" stroke-width="0.5" stroke-linejoin="miter" stroke-dasharray="16,0" stroke-linecap="square" points="521.28,384.48 521.28,32.4" fill="none"/>
   <polyline stroke="#0071bc" stroke-width="0.5" stroke-linejoin="round" stroke-linecap="round" points="117.08,361.008 116.585,363.177 115.197,364.917 113.193,365.883 110.967,365.883 108.963,364.917 107.575,363.177 107.08,361.008 107.575,358.839 108.963,357.099 110.967,356.133 113.193,356.133 115.197,357.099 116.585,358.839 117.08,361.008" fill="none"/>
   <polyline stroke="#0071bc" stroke-width="0.5" stroke-linejoin="round" stroke-linecap="round" points="154.28,245.995 153.785,248.165 152.397,249.904 150.393,250.87 148.167,250.87 146.163,249.904 144.775,248.165 144.28,245.995 144.775,243.826 146.163,242.086 148.167,241.121 150.393,241.121 152.397,242.086 153.785,243.826 154.28,245.995" fill="none"/>
   <polyline stroke="#0071bc" stroke-width="0.5" stroke-linejoin="round" stroke-linecap="round" points="191.48,168.538 190.985,170.707 189.597,172.447 187.593,173.412 185.367,173.412 183.363,172.447 181.975,170.707 181.48,168.538 181.975,166.368 183.363,164.628 185.367,163.663 187.593,163.663 189.597,164.628 190.985,166.368 191.48,168.538" fill="none"/>
   <polyline stroke="#0071bc" stroke-width="0.5" stroke-linejoin="round" stroke-linecap="round" points="228.68,121.594 228.185,123.763 226.797,125.503 224.793,126.468 222.567,126.468 220.563,125.503 219.175,123.763 218.68,121.594 219.175,119.424 220.563,117.684 222.567,116.719 224.793,116.719 226.797,117.684 228.185,119.424 228.68,121.594" fill="none"/>
   <polyline stroke="#0071bc" stroke-width="0.5" stroke-linejoin="round" stroke-linecap="round" points="265.88,98.1216 265.385,100.291 263.997,102.031 261.993,102.996 259.767,102.996 257.763,102.031 256.375,100.291 255.88,98.1216 256.375,95.9522 257.763,94.2124 259.767,93.247 261.993,93.247 263.997,94.2124 265.385,95.9522 265.88,98.1216" fill="none"/>
   <polyline stroke="#0071bc" stroke-width="0.5" stroke-linejoin="round" stroke-linecap="round" points="303.08,91.08 302.585,93.2494 301.197,94.9892 299.193,95.9547 296.967,95.9547 294.963,94.9892 293.575,93.2494 293.08,91.08 293.575,88.9106 294.963,87.1708 296.967,86.2054 299.193,86.2054 301.197,87.1708 302.585,88.9106 303.08,91.08" fill="none"/>
   <polyline stroke="#0071bc" stroke-width="0.5" stroke-linejoin="round" stroke-linecap="round" points="340.28,93.4272 339.785,95.5966 338.397,97.3364 336.393,98.3018 334.167,98.3018 332.163,97.3364 330.775,95.5966 330.28,93.4272 330.775,91.2578 332.163,89.518 334.167,88.5526 336.393,88.5526 338.397,89.518 339.785,91.2578 340.28,93.4272" fill="none"/>
   <polyline stroke="#0071bc" stroke-width="0.5" stroke-linejoin="round" stroke-linecap="round" points="377.48,98.1216 376.985,100.291 375.597,102.031 373.593,102.996 371.367,102.996 369.363,102.031 367.975,100.291 367.48,98.1216 367.975,95.9522 369.363,94.2124 371.367,93.247 373.593,93.247 375.597,94.2124 376.985,95.9522 377.48,98.1216" fill="none"/>
   <polyline stroke="#0071bc" stroke-width="0.5" stroke-linejoin="round" stroke-linecap="round" points="414.68,98.1216 414.185,100.291 412.797,102.031 410.793,102.996 408.567,102.996 406.563,102.031 405.175,100.291 404.68,98.1216 405.175,95.9522 406.563,94.2124 408.567,93.247 410.793,93.247 412.797,94.2124 414.185,95.9522 414.68,98.1216" fill="none"/>
   <polyline stroke="#0071bc" stroke-width="0.5" stroke-linejoin="round" stroke-linecap="round" points="451.88,86.3856 451.385,88.555 449.997,90.2948 447.993,91.2602 445.767,91.2602 443.763,90.2948 442.375,88.555 441.88,86.3856 442.375,84.2162 443.763,82.4764 445.767,81.511 447.993,81.511 449.997,82.4764 451.385,84.2162 451.88,86.3856" fill="none"/>
   <polyline stroke="#0071bc" stroke-width="0.5" stroke-linejoin="round" stroke-linecap="round" points="489.08,55.872 488.585,58.0414 487.197,59.7812 485.193,60.7466 482.967,60.7466 480.963,59.7812 479.575,58.0414 479.08,55.872 479.575,53.7026 480.963,51.9628 482.967,50.9973 485.193,50.9973 487.197,51.9628 488.585,53.7026 489.08,55.872" fill="none"/>
   <polyline stroke="#ff0000" stroke-width="0.5" stroke-linejoin="miter" stroke-linecap="square" points="121.356,315.469 127.356,321.469" fill="none"/>
   <polyline stroke="#ff0000" stroke-width="0.5" stroke-linejoin="miter" stroke-linecap="square" points="121.356,321.469 127.356,315.469" fill="none"/>
   <polyline stroke="#ff0000" stroke-width="0.5" stroke-linejoin="miter" stroke-linecap="square" points="250.44,98.2762 256.44,104.276" fill="none"/>
   <polyline stroke="#ff0000" stroke-width="0.5" stroke-linejoin="miter" stroke-linecap="square" points="250.44,104.276 256.44,98.2762" fill="none"/>
   <polyline stroke="#ff0000" stroke-width="0.5" stroke-linejoin="miter" stroke-linecap="square" points="173.808,182.457 179.808,188.457" fill="none"/>
   <polyline stroke="#ff0000" stroke-width="0.5" stroke-linejoin="miter" stroke-linecap="square" points="173.808,188.457 179.808,182.457" fill="none"/>
   <polyline stroke="#ff0000" stroke-width="0.5" stroke-linejoin="miter" stroke-linecap="square" points="138.84,262.768 144.84,268.768" fill="none"/>
   <polyline stroke="#ff0000" stroke-width="0.5" stroke-linejoin="miter" stroke-linecap="square" points="138.84,268.768 144.84,262.768" fill="none"/>
   <polyline stroke="#ff0000" stroke-width="0.5" stroke-linejoin="miter" stroke-linecap="square" points="455.412,76.2635 461.412,82.2635" fill="none"/>
   <polyline stroke="#ff0000" stroke-width="0.5" stroke-linejoin="miter" stroke-linecap="square" points="455.412,82.2635 461.412,76.2635" fill="none"/>
   <polyline stroke="#ff0000" stroke-width="0.5" stroke-linejoin="miter" stroke-linecap="square" points="351.624,93.0206 357.624,99.0206" fill="none"/>
   <polyline stroke="#ff0000" stroke-width="0.5" stroke-linejoin="miter" stroke-linecap="square" points="351.624,99.0206 357.624,93.0206" fill="none"/>
   <polyline stroke="#ff0000" stroke-width="0.5" stroke-linejoin="miter" stroke-linecap="square" points="435.696,87.3329 441.696,93.3329" fill="none"/>
   <polyline stroke="#ff0000" stroke-width="0.5" stroke-linejoin="miter" stroke-linecap="square" points="435.696,93.3329 441.696,87.3329" fill="none"/>
   <polyline stroke="#ff0000" stroke-width="0.5" stroke-linejoin="miter" stroke-linecap="square" points="236.676,106.035 242.676,112.035" fill="none"/>
   <polyline stroke="#ff0000" stroke-width="0.5" stroke-linejoin="miter" stroke-linecap="square" points="236.676,112.035 242.676,106.035" fill="none"/>
  </g>
 </g>
</svg>
