<?xml version='1.0' encoding='UTF-8' standalone='no'?>
<svg xmlns:xlink="http://www.w3.org/1999/xlink" height="432pt" viewBox="0 0 576 432" xmlns="http://www.w3.org/2000/svg" width="576pt">
 <title>gl2ps_renderer figure</title>
 <desc>
Creator: GL2PS 1.4.0, (C) 1999-2017 C. Geuzaine
For: Octave
CreationDate: Fri Dec 16 19:00:00 2022
</desc>
 <defs/>
 <polygon fill="#ffffff" points="0,0 576,0 576,432 0,432"/>
 <g>
  <polygon shape-rendering="crispEdges" fill="#ffffff" points="0,432 576,432 576,0 0,0"/>
  <clipPath id="cp00576432">
   <polygon points="0,432 576,432 576,0 0,0"/>
  </clipPath>
  <g clip-path="url(#cp00576432)">
   <polygon shape-rendering="crispEdges" fill="#ffffff" points="74.88,384.48 521.28,384.48 521.28,32.4 74.88,32.4"/>
   <polyline stroke="#262626" stroke-width="0.5" stroke-linejoin="miter" stroke-opacity="0.15" stroke-linecap="butt" fill="none" stroke-dasharray="16,0" points="74.88,384.48 74.88,32.4"/>
   <polyline stroke="#262626" stroke-width="0.5" stroke-linejoin="miter" stroke-opacity="0.15" stroke-linecap="butt" fill="none" stroke-dasharray="16,0" points="138.651,384.48 138.651,32.4"/>
   <polyline stroke="#262626" stroke-width="0.5" stroke-linejoin="miter" stroke-opacity="0.15" stroke-linecap="butt" fill="none" stroke-dasharray="16,0" points="202.423,384.48 202.423,32.4"/>
   <polyline stroke="#262626" stroke-width="0.5" stroke-linejoin="miter" stroke-opacity="0.15" stroke-linecap="butt" fill="none" stroke-dasharray="16,0" points="266.194,384.48 266.194,32.4"/>
   <polyline stroke="#262626" stroke-width="0.5" stroke-linejoin="miter" stroke-opacity="0.15" stroke-linecap="butt" fill="none" stroke-dasharray="16,0" points="329.966,384.48 329.966,32.4"/>
   <polyline stroke="#262626" stroke-width="0.5" stroke-linejoin="miter" stroke-opacity="0.15" stroke-linecap="butt" fill="none" stroke-dasharray="16,0" points="393.737,384.48 393.737,32.4"/>
   <polyline stroke="#262626" stroke-width="0.5" stroke-linejoin="miter" stroke-opacity="0.15" stroke-linecap="butt" fill="none" stroke-dasharray="16,0" points="457.509,384.48 457.509,32.4"/>
   <polyline stroke="#262626" stroke-width="0.5" stroke-linejoin="miter" stroke-opacity="0.15" stroke-linecap="butt" fill="none" stroke-dasharray="16,0" points="521.28,384.48 521.28,32.4"/>
   <polyline stroke="#262626" stroke-width="0.5" stroke-linejoin="miter" stroke-linecap="butt" fill="none" points="74.88,384.48 74.88,380.015"/>
   <polyline stroke="#262626" stroke-width="0.5" stroke-linejoin="miter" stroke-linecap="butt" fill="none" points="74.88,32.4 74.88,36.865"/>
   <polyline stroke="#262626" stroke-width="0.5" stroke-linejoin="miter" stroke-linecap="butt" fill="none" points="138.651,384.48 138.651,380.015"/>
   <polyline stroke="#262626" stroke-width="0.5" stroke-linejoin="miter" stroke-linecap="butt" fill="none" points="138.651,32.4 138.651,36.865"/>
   <polyline stroke="#262626" stroke-width="0.5" stroke-linejoin="miter" stroke-linecap="butt" fill="none" points="202.423,384.48 202.423,380.015"/>
   <polyline stroke="#262626" stroke-width="0.5" stroke-linejoin="miter" stroke-linecap="butt" fill="none" points="202.423,32.4 202.423,36.865"/>
   <polyline stroke="#262626" stroke-width="0.5" stroke-linejoin="miter" stroke-linecap="butt" fill="none" points="266.194,384.48 266.194,380.015"/>
   <polyline stroke="#262626" stroke-width="0.5" stroke-linejoin="miter" stroke-linecap="butt" fill="none" points="266.194,32.4 266.194,36.865"/>
   <polyline stroke="#262626" stroke-width="0.5" stroke-linejoin="miter" stroke-linecap="butt" fill="none" points="329.966,384.48 329.966,380.015"/>
   <polyline stroke="#262626" stroke-width="0.5" stroke-linejoin="miter" stroke-linecap="butt" fill="none" points="329.966,32.4 329.966,36.865"/>
   <polyline stroke="#262626" stroke-width="0.5" stroke-linejoin="miter" stroke-linecap="butt" fill="none" points="393.737,384.48 393.737,380.015"/>
   <polyline stroke="#262626" stroke-width="0.5" stroke-linejoin="miter" stroke-linecap="butt" fill="none" points="393.737,32.4 393.737,36.865"/>
   <polyline stroke="#262626" stroke-width="0.5" stroke-linejoin="miter" stroke-linecap="butt" fill="none" points="457.509,384.48 457.509,380.015"/>
   <polyline stroke="#262626" stroke-width="0.5" stroke-linejoin="miter" stroke-linecap="butt" fill="none" points="457.509,32.4 457.509,36.865"/>
   <polyline stroke="#262626" stroke-width="0.5" stroke-linejoin="miter" stroke-linecap="butt" fill="none" points="521.28,384.48 521.28,380.015"/>
   <polyline stroke="#262626" stroke-width="0.5" stroke-linejoin="miter" stroke-linecap="butt" fill="none" points="521.28,32.4 521.28,36.865"/>
   <text transform="translate(70.38,399.982) rotate(-0,4.5,-8)" xml:space="preserve" font-size="10" font-weight="normal" font-style="normal" font-family="FreeSans">
    <tspan x="0 3 " y="-0" fill="rgb(38,38,38)">-5</tspan>
   </text>
   <text transform="translate(134.151,399.982) rotate(-0,4.5,-8)" xml:space="preserve" font-size="10" font-weight="normal" font-style="normal" font-family="FreeSans">
    <tspan x="0 3 " y="-0" fill="rgb(38,38,38)">-4</tspan>
   </text>
   <text transform="translate(197.923,399.982) rotate(-0,4.5,-8)" xml:space="preserve" font-size="10" font-weight="normal" font-style="normal" font-family="FreeSans">
    <tspan x="0 3 " y="-0" fill="rgb(38,38,38)">-3</tspan>
   </text>
   <text transform="translate(261.694,399.982) rotate(-0,4.5,-8)" xml:space="preserve" font-size="10" font-weight="normal" font-style="normal" font-family="FreeSans">
    <tspan x="0 3 " y="-0" fill="rgb(38,38,38)">-2</tspan>
   </text>
   <text transform="translate(325.466,399.982) rotate(-0,4.5,-8)" xml:space="preserve" font-size="10" font-weight="normal" font-style="normal" font-family="FreeSans">
    <tspan x="0 3 " y="-0" fill="rgb(38,38,38)">-1</tspan>
   </text>
   <text transform="translate(390.737,399.982) rotate(-0,3,-8)" xml:space="preserve" font-size="10" font-weight="normal" font-style="normal" font-family="FreeSans">
    <tspan x="0 " y="-0" fill="rgb(38,38,38)">0</tspan>
   </text>
   <text transform="translate(454.509,399.982) rotate(-0,3,-8)" xml:space="preserve" font-size="10" font-weight="normal" font-style="normal" font-family="FreeSans">
    <tspan x="0 " y="-0" fill="rgb(38,38,38)">1</tspan>
   </text>
   <text transform="translate(518.28,399.982) rotate(-0,3,-8)" xml:space="preserve" font-size="10" font-weight="normal" font-style="normal" font-family="FreeSans">
    <tspan x="0 " y="-0" fill="rgb(38,38,38)">2</tspan>
   </text>
   <polyline stroke="#262626" stroke-width="0.5" stroke-linejoin="miter" stroke-opacity="0.15" stroke-linecap="butt" fill="none" stroke-dasharray="16,0" points="74.88,384.48 521.28,384.48"/>
   <polyline stroke="#262626" stroke-width="0.5" stroke-linejoin="miter" stroke-opacity="0.15" stroke-linecap="butt" fill="none" stroke-dasharray="16,0" points="74.88,325.8 521.28,325.8"/>
   <polyline stroke="#262626" stroke-width="0.5" stroke-linejoin="miter" stroke-opacity="0.15" stroke-linecap="butt" fill="none" stroke-dasharray="16,0" points="74.88,267.12 521.28,267.12"/>
   <polyline stroke="#262626" stroke-width="0.5" stroke-linejoin="miter" stroke-opacity="0.15" stroke-linecap="butt" fill="none" stroke-dasharray="16,0" points="74.88,208.44 521.28,208.44"/>
   <polyline stroke="#262626" stroke-width="0.5" stroke-linejoin="miter" stroke-opacity="0.15" stroke-linecap="butt" fill="none" stroke-dasharray="16,0" points="74.88,149.76 521.28,149.76"/>
   <polyline stroke="#262626" stroke-width="0.5" stroke-linejoin="miter" stroke-opacity="0.15" stroke-linecap="butt" fill="none" stroke-dasharray="16,0" points="74.88,91.08 521.28,91.08"/>
   <polyline stroke="#262626" stroke-width="0.5" stroke-linejoin="miter" stroke-opacity="0.15" stroke-linecap="butt" fill="none" stroke-dasharray="16,0" points="74.88,32.4 521.28,32.4"/>
   <polyline stroke="#262626" stroke-width="0.5" stroke-linejoin="miter" stroke-linecap="butt" fill="none" points="74.88,384.48 79.348,384.48"/>
   <polyline stroke="#262626" stroke-width="0.5" stroke-linejoin="miter" stroke-linecap="butt" fill="none" points="521.28,384.48 516.812,384.48"/>
   <polyline stroke="#262626" stroke-width="0.5" stroke-linejoin="miter" stroke-linecap="butt" fill="none" points="74.88,325.8 79.348,325.8"/>
   <polyline stroke="#262626" stroke-width="0.5" stroke-linejoin="miter" stroke-linecap="butt" fill="none" points="521.28,325.8 516.812,325.8"/>
   <polyline stroke="#262626" stroke-width="0.5" stroke-linejoin="miter" stroke-linecap="butt" fill="none" points="74.88,267.12 79.348,267.12"/>
   <polyline stroke="#262626" stroke-width="0.5" stroke-linejoin="miter" stroke-linecap="butt" fill="none" points="521.28,267.12 516.812,267.12"/>
   <polyline stroke="#262626" stroke-width="0.5" stroke-linejoin="miter" stroke-linecap="butt" fill="none" points="74.88,208.44 79.348,208.44"/>
   <polyline stroke="#262626" stroke-width="0.5" stroke-linejoin="miter" stroke-linecap="butt" fill="none" points="521.28,208.44 516.812,208.44"/>
   <polyline stroke="#262626" stroke-width="0.5" stroke-linejoin="miter" stroke-linecap="butt" fill="none" points="74.88,149.76 79.348,149.76"/>
   <polyline stroke="#262626" stroke-width="0.5" stroke-linejoin="miter" stroke-linecap="butt" fill="none" points="521.28,149.76 516.812,149.76"/>
   <polyline stroke="#262626" stroke-width="0.5" stroke-linejoin="miter" stroke-linecap="butt" fill="none" points="74.88,91.08 79.348,91.08"/>
   <polyline stroke="#262626" stroke-width="0.5" stroke-linejoin="miter" stroke-linecap="butt" fill="none" points="521.28,91.08 516.812,91.08"/>
   <polyline stroke="#262626" stroke-width="0.5" stroke-linejoin="miter" stroke-linecap="butt" fill="none" points="74.88,32.4 79.348,32.4"/>
   <polyline stroke="#262626" stroke-width="0.5" stroke-linejoin="miter" stroke-linecap="butt" fill="none" points="521.28,32.4 516.812,32.4"/>
   <text transform="translate(63.8755,388.48) rotate(-0,6,-4)" xml:space="preserve" font-size="10" font-weight="normal" font-style="normal" font-family="FreeSans">
    <tspan x="0 " y="-0" fill="rgb(38,38,38)">0</tspan>
   </text>
   <text transform="translate(57.8755,329.8) rotate(-0,12,-4)" xml:space="preserve" font-size="10" font-weight="normal" font-style="normal" font-family="FreeSans">
    <tspan x="0 6 " y="-0" fill="rgb(38,38,38)">15</tspan>
   </text>
   <text transform="translate(57.8755,271.12) rotate(-0,12,-4)" xml:space="preserve" font-size="10" font-weight="normal" font-style="normal" font-family="FreeSans">
    <tspan x="0 6 " y="-0" fill="rgb(38,38,38)">30</tspan>
   </text>
   <text transform="translate(57.8755,212.44) rotate(-0,12,-4)" xml:space="preserve" font-size="10" font-weight="normal" font-style="normal" font-family="FreeSans">
    <tspan x="0 6 " y="-0" fill="rgb(38,38,38)">45</tspan>
   </text>
   <text transform="translate(57.8755,153.76) rotate(-0,12,-4)" xml:space="preserve" font-size="10" font-weight="normal" font-style="normal" font-family="FreeSans">
    <tspan x="0 6 " y="-0" fill="rgb(38,38,38)">60</tspan>
   </text>
   <text transform="translate(57.8755,95.08) rotate(-0,12,-4)" xml:space="preserve" font-size="10" font-weight="normal" font-style="normal" font-family="FreeSans">
    <tspan x="0 6 " y="-0" fill="rgb(38,38,38)">75</tspan>
   </text>
   <text transform="translate(57.8755,36.4) rotate(-0,12,-4)" xml:space="preserve" font-size="10" font-weight="normal" font-style="normal" font-family="FreeSans">
    <tspan x="0 6 " y="-0" fill="rgb(38,38,38)">90</tspan>
   </text>
   <polyline stroke="#262626" stroke-width="0.5" stroke-linejoin="miter" stroke-linecap="square" fill="none" stroke-dasharray="16,0" points="74.88,384.48 521.28,384.48"/>
   <polyline stroke="#262626" stroke-width="0.5" stroke-linejoin="miter" stroke-linecap="square" fill="none" stroke-dasharray="16,0" points="74.88,32.4 521.28,32.4"/>
   <polyline stroke="#262626" stroke-width="0.5" stroke-linejoin="miter" stroke-linecap="square" fill="none" stroke-dasharray="16,0" points="74.88,384.48 74.88,32.4"/>
   <polyline stroke="#262626" stroke-width="0.5" stroke-linejoin="miter" stroke-linecap="square" fill="none" stroke-dasharray="16,0" points="521.28,384.48 521.28,32.4"/>
   <polyline stroke="#ff0000" stroke-width="3" stroke-linejoin="round" stroke-linecap="butt" fill="none" stroke-dasharray="12,3,6,3,12,3,6,3" points="74.88,361.008 81.2571,342.223 87.6343,324.955 94.0114,309.158 100.389,294.786 106.766,281.79 113.143,270.124 119.52,259.742 125.897,250.596 132.274,242.639 138.651,235.824 145.029,230.105 151.406,225.434 157.783,221.764 164.16,219.049 170.537,217.242 176.914,216.295 183.291,216.162 189.669,216.796 196.046,218.15 202.423,220.176 208.8,222.828 215.177,226.06 221.554,229.823 227.931,234.071 234.309,238.758 240.686,243.836 247.063,249.258 253.44,254.977 259.817,260.947 266.194,267.12 272.571,273.45 278.949,279.889 285.326,286.391 291.703,292.908 298.08,299.394 304.457,305.802 310.834,312.085 317.211,318.195 323.589,324.087 329.966,329.712 336.343,335.025 342.72,339.977 349.097,344.523 355.474,348.615 361.851,352.206 368.229,355.25 374.606,357.698 380.983,359.506 387.36,360.625 393.737,361.008 400.114,360.609 406.491,359.381 412.869,357.276 419.246,354.248 425.623,350.25 432,345.235 438.377,339.156 444.754,331.965 451.131,323.617 457.509,314.064 463.886,303.259 470.263,291.155 476.64,277.706 483.017,262.864 489.394,246.582 495.771,228.814 502.149,209.512 508.526,188.63 514.903,166.12 521.28,141.936"/>
   <polyline stroke="#ffb200" stroke-width="5" stroke-linejoin="round" stroke-linecap="butt" fill="none" stroke-dasharray="5,5,5,5,5,5,5,5,5,5" points="74.88,165.408 81.2571,150.535 87.6343,137.179 94.0114,125.294 100.389,114.834 106.766,105.75 113.143,97.9964 119.52,91.5259 125.897,86.2917 132.274,82.2467 138.651,79.344 145.029,77.5367 151.406,76.7777 157.783,77.0203 164.16,78.2173 170.537,80.322 176.914,83.2873 183.291,87.0663 189.669,91.612 196.046,96.8776 202.423,102.816 208.8,109.38 215.177,116.524 221.554,124.199 227.931,132.359 234.309,140.958 240.686,149.948 247.063,159.282 253.44,168.913 259.817,178.795 266.194,188.88 272.571,199.122 278.949,209.473 285.326,219.887 291.703,230.316 298.08,240.714 304.457,251.034 310.834,261.229 317.211,271.251 323.589,281.055 329.966,290.592 336.343,299.816 342.72,308.681 349.097,317.139 355.474,325.143 361.851,332.646 368.229,339.602 374.606,345.962 380.983,351.682 387.36,356.713 393.737,361.008 400.114,364.521 406.491,367.205 412.869,369.012 419.246,369.896 425.623,369.81 432,368.707 438.377,366.54 444.754,363.261 451.131,358.825 457.509,353.184 463.886,346.291 470.263,338.099 476.64,328.562 483.017,317.632 489.394,305.262 495.771,291.406 502.149,276.016 508.526,259.046 514.903,240.448 521.28,220.176"/>
   <text transform="translate(35.3755,208.44) rotate(-90,17.5,0)" xml:space="preserve" font-size="25" font-weight="normal" font-style="normal" font-family="FreeSans">
    <tspan x="0 7 15 27 " y="-6" fill="rgb(38,38,38)">f(x)</tspan>
   </text>
   <text transform="translate(292.08,418.982) rotate(-0,6,-14)" xml:space="preserve" font-size="25" font-weight="normal" font-style="normal" font-family="FreeSans">
    <tspan x="0 " y="-0" fill="rgb(38,38,38)">x</tspan>
   </text>
  </g>
 </g>
</svg>
