<?xml version='1.0' encoding='UTF-8' standalone='no'?>
<svg xmlns="http://www.w3.org/2000/svg" width="576pt" height="432pt" viewBox="0 0 576 432" xmlns:xlink="http://www.w3.org/1999/xlink">
 <title>gl2ps_renderer figure</title>
 <desc>
Creator: GL2PS 1.4.0, (C) 1999-2017 C. Geuzaine
For: Octave
CreationDate: Sun Dec 25 16:26:15 2022
</desc>
 <defs/>
 <polygon fill="#ffffff" points="0,0 576,0 576,432 0,432"/>
 <g>
  <polygon shape-rendering="crispEdges" fill="#ffffff" points="0,432 576,432 576,0 0,0"/>
  <clipPath id="cp00576432">
   <polygon points="0,432 576,432 576,0 0,0"/>
  </clipPath>
  <g clip-path="url(#cp00576432)">
   <polygon shape-rendering="crispEdges" fill="#ffffff" points="74.88,384.48 521.28,384.48 521.28,32.4 74.88,32.4"/>
   <polyline stroke-linecap="butt" stroke-linejoin="miter" stroke="#262626" stroke-width="0.5" fill="none" points="74.88,384.48 74.88,380.015"/>
   <polyline stroke-linecap="butt" stroke-linejoin="miter" stroke="#262626" stroke-width="0.5" fill="none" points="74.88,32.4 74.88,36.865"/>
   <polyline stroke-linecap="butt" stroke-linejoin="miter" stroke="#262626" stroke-width="0.5" fill="none" points="149.28,384.48 149.28,380.015"/>
   <polyline stroke-linecap="butt" stroke-linejoin="miter" stroke="#262626" stroke-width="0.5" fill="none" points="149.28,32.4 149.28,36.865"/>
   <polyline stroke-linecap="butt" stroke-linejoin="miter" stroke="#262626" stroke-width="0.5" fill="none" points="223.68,384.48 223.68,380.015"/>
   <polyline stroke-linecap="butt" stroke-linejoin="miter" stroke="#262626" stroke-width="0.5" fill="none" points="223.68,32.4 223.68,36.865"/>
   <polyline stroke-linecap="butt" stroke-linejoin="miter" stroke="#262626" stroke-width="0.5" fill="none" points="298.08,384.48 298.08,380.015"/>
   <polyline stroke-linecap="butt" stroke-linejoin="miter" stroke="#262626" stroke-width="0.5" fill="none" points="298.08,32.4 298.08,36.865"/>
   <polyline stroke-linecap="butt" stroke-linejoin="miter" stroke="#262626" stroke-width="0.5" fill="none" points="372.48,384.48 372.48,380.015"/>
   <polyline stroke-linecap="butt" stroke-linejoin="miter" stroke="#262626" stroke-width="0.5" fill="none" points="372.48,32.4 372.48,36.865"/>
   <polyline stroke-linecap="butt" stroke-linejoin="miter" stroke="#262626" stroke-width="0.5" fill="none" points="446.88,384.48 446.88,380.015"/>
   <polyline stroke-linecap="butt" stroke-linejoin="miter" stroke="#262626" stroke-width="0.5" fill="none" points="446.88,32.4 446.88,36.865"/>
   <polyline stroke-linecap="butt" stroke-linejoin="miter" stroke="#262626" stroke-width="0.5" fill="none" points="521.28,384.48 521.28,380.015"/>
   <polyline stroke-linecap="butt" stroke-linejoin="miter" stroke="#262626" stroke-width="0.5" fill="none" points="521.28,32.4 521.28,36.865"/>
   <text transform="translate(70.38,399.982) rotate(-0,4.5,-8)" font-style="normal" font-weight="normal" font-size="10" xml:space="preserve" font-family="FreeSans">
    <tspan y="-0" x="0 3 " fill="rgb(38,38,38)">-6</tspan>
   </text>
   <text transform="translate(144.78,399.982) rotate(-0,4.5,-8)" font-style="normal" font-weight="normal" font-size="10" xml:space="preserve" font-family="FreeSans">
    <tspan y="-0" x="0 3 " fill="rgb(38,38,38)">-4</tspan>
   </text>
   <text transform="translate(219.18,399.982) rotate(-0,4.5,-8)" font-style="normal" font-weight="normal" font-size="10" xml:space="preserve" font-family="FreeSans">
    <tspan y="-0" x="0 3 " fill="rgb(38,38,38)">-2</tspan>
   </text>
   <text transform="translate(295.08,399.982) rotate(-0,3,-8)" font-style="normal" font-weight="normal" font-size="10" xml:space="preserve" font-family="FreeSans">
    <tspan y="-0" x="0 " fill="rgb(38,38,38)">0</tspan>
   </text>
   <text transform="translate(369.48,399.982) rotate(-0,3,-8)" font-style="normal" font-weight="normal" font-size="10" xml:space="preserve" font-family="FreeSans">
    <tspan y="-0" x="0 " fill="rgb(38,38,38)">2</tspan>
   </text>
   <text transform="translate(443.88,399.982) rotate(-0,3,-8)" font-style="normal" font-weight="normal" font-size="10" xml:space="preserve" font-family="FreeSans">
    <tspan y="-0" x="0 " fill="rgb(38,38,38)">4</tspan>
   </text>
   <text transform="translate(518.28,399.982) rotate(-0,3,-8)" font-style="normal" font-weight="normal" font-size="10" xml:space="preserve" font-family="FreeSans">
    <tspan y="-0" x="0 " fill="rgb(38,38,38)">6</tspan>
   </text>
   <polyline stroke-linecap="butt" stroke-linejoin="miter" stroke="#262626" stroke-width="0.5" fill="none" points="74.88,384.48 79.348,384.48"/>
   <polyline stroke-linecap="butt" stroke-linejoin="miter" stroke="#262626" stroke-width="0.5" fill="none" points="521.28,384.48 516.812,384.48"/>
   <polyline stroke-linecap="butt" stroke-linejoin="miter" stroke="#262626" stroke-width="0.5" fill="none" points="74.88,325.8 79.348,325.8"/>
   <polyline stroke-linecap="butt" stroke-linejoin="miter" stroke="#262626" stroke-width="0.5" fill="none" points="521.28,325.8 516.812,325.8"/>
   <polyline stroke-linecap="butt" stroke-linejoin="miter" stroke="#262626" stroke-width="0.5" fill="none" points="74.88,267.12 79.348,267.12"/>
   <polyline stroke-linecap="butt" stroke-linejoin="miter" stroke="#262626" stroke-width="0.5" fill="none" points="521.28,267.12 516.812,267.12"/>
   <polyline stroke-linecap="butt" stroke-linejoin="miter" stroke="#262626" stroke-width="0.5" fill="none" points="74.88,208.44 79.348,208.44"/>
   <polyline stroke-linecap="butt" stroke-linejoin="miter" stroke="#262626" stroke-width="0.5" fill="none" points="521.28,208.44 516.812,208.44"/>
   <polyline stroke-linecap="butt" stroke-linejoin="miter" stroke="#262626" stroke-width="0.5" fill="none" points="74.88,149.76 79.348,149.76"/>
   <polyline stroke-linecap="butt" stroke-linejoin="miter" stroke="#262626" stroke-width="0.5" fill="none" points="521.28,149.76 516.812,149.76"/>
   <polyline stroke-linecap="butt" stroke-linejoin="miter" stroke="#262626" stroke-width="0.5" fill="none" points="74.88,91.08 79.348,91.08"/>
   <polyline stroke-linecap="butt" stroke-linejoin="miter" stroke="#262626" stroke-width="0.5" fill="none" points="521.28,91.08 516.812,91.08"/>
   <polyline stroke-linecap="butt" stroke-linejoin="miter" stroke="#262626" stroke-width="0.5" fill="none" points="74.88,32.4 79.348,32.4"/>
   <polyline stroke-linecap="butt" stroke-linejoin="miter" stroke="#262626" stroke-width="0.5" fill="none" points="521.28,32.4 516.812,32.4"/>
   <text transform="translate(48.8755,388.48) rotate(-0,21,-4)" font-style="normal" font-weight="normal" font-size="10" xml:space="preserve" font-family="FreeSans">
    <tspan y="-0" x="0 3 9 15 " fill="rgb(38,38,38)">-250</tspan>
   </text>
   <text transform="translate(48.8755,329.8) rotate(-0,21,-4)" font-style="normal" font-weight="normal" font-size="10" xml:space="preserve" font-family="FreeSans">
    <tspan y="-0" x="0 3 9 15 " fill="rgb(38,38,38)">-200</tspan>
   </text>
   <text transform="translate(48.8755,271.12) rotate(-0,21,-4)" font-style="normal" font-weight="normal" font-size="10" xml:space="preserve" font-family="FreeSans">
    <tspan y="-0" x="0 3 9 15 " fill="rgb(38,38,38)">-150</tspan>
   </text>
   <text transform="translate(48.8755,212.44) rotate(-0,21,-4)" font-style="normal" font-weight="normal" font-size="10" xml:space="preserve" font-family="FreeSans">
    <tspan y="-0" x="0 3 9 15 " fill="rgb(38,38,38)">-100</tspan>
   </text>
   <text transform="translate(54.8755,153.76) rotate(-0,15,-4)" font-style="normal" font-weight="normal" font-size="10" xml:space="preserve" font-family="FreeSans">
    <tspan y="-0" x="0 3 9 " fill="rgb(38,38,38)">-50</tspan>
   </text>
   <text transform="translate(63.8755,95.08) rotate(-0,6,-4)" font-style="normal" font-weight="normal" font-size="10" xml:space="preserve" font-family="FreeSans">
    <tspan y="-0" x="0 " fill="rgb(38,38,38)">0</tspan>
   </text>
   <text transform="translate(57.8755,36.4) rotate(-0,12,-4)" font-style="normal" font-weight="normal" font-size="10" xml:space="preserve" font-family="FreeSans">
    <tspan y="-0" x="0 6 " fill="rgb(38,38,38)">50</tspan>
   </text>
   <polyline stroke-linecap="square" stroke-dasharray="16,0" stroke-linejoin="miter" stroke="#262626" stroke-width="0.5" fill="none" points="74.88,384.48 521.28,384.48"/>
   <polyline stroke-linecap="square" stroke-dasharray="16,0" stroke-linejoin="miter" stroke="#262626" stroke-width="0.5" fill="none" points="74.88,32.4 521.28,32.4"/>
   <polyline stroke-linecap="square" stroke-dasharray="16,0" stroke-linejoin="miter" stroke="#262626" stroke-width="0.5" fill="none" points="74.88,384.48 74.88,32.4"/>
   <polyline stroke-linecap="square" stroke-dasharray="16,0" stroke-linejoin="miter" stroke="#262626" stroke-width="0.5" fill="none" points="521.28,384.48 521.28,32.4"/>
   <text transform="translate(243.08,22.4) rotate(-0,55,0)" font-style="normal" font-weight="bold" font-size="11" xml:space="preserve" font-family="FreeSans">
    <tspan y="-3" x="0 3 6 13 19 25 29 36 42 45 48 55 59 65 69 76 83 86 92 98 101 104 " fill="rgb(0,0,0)">linearna interpolacija</tspan>
   </text>
   <polyline stroke-linecap="round" stroke-linejoin="round" stroke="#0071bc" stroke-width="0.5" fill="none" points="117.08,361.008 116.585,363.177 115.197,364.917 113.193,365.883 110.967,365.883 108.963,364.917 107.575,363.177 107.08,361.008 107.575,358.839 108.963,357.099 110.967,356.133 113.193,356.133 115.197,357.099 116.585,358.839 117.08,361.008"/>
   <polyline stroke-linecap="round" stroke-linejoin="round" stroke="#0071bc" stroke-width="0.5" fill="none" points="154.28,245.995 153.785,248.165 152.397,249.904 150.393,250.87 148.167,250.87 146.163,249.904 144.775,248.165 144.28,245.995 144.775,243.826 146.163,242.086 148.167,241.121 150.393,241.121 152.397,242.086 153.785,243.826 154.28,245.995"/>
   <polyline stroke-linecap="round" stroke-linejoin="round" stroke="#0071bc" stroke-width="0.5" fill="none" points="191.48,168.538 190.985,170.707 189.597,172.447 187.593,173.412 185.367,173.412 183.363,172.447 181.975,170.707 181.48,168.538 181.975,166.368 183.363,164.628 185.367,163.663 187.593,163.663 189.597,164.628 190.985,166.368 191.48,168.538"/>
   <polyline stroke-linecap="round" stroke-linejoin="round" stroke="#0071bc" stroke-width="0.5" fill="none" points="228.68,121.594 228.185,123.763 226.797,125.503 224.793,126.468 222.567,126.468 220.563,125.503 219.175,123.763 218.68,121.594 219.175,119.424 220.563,117.684 222.567,116.719 224.793,116.719 226.797,117.684 228.185,119.424 228.68,121.594"/>
   <polyline stroke-linecap="round" stroke-linejoin="round" stroke="#0071bc" stroke-width="0.5" fill="none" points="265.88,98.1216 265.385,100.291 263.997,102.031 261.993,102.996 259.767,102.996 257.763,102.031 256.375,100.291 255.88,98.1216 256.375,95.9522 257.763,94.2124 259.767,93.247 261.993,93.247 263.997,94.2124 265.385,95.9522 265.88,98.1216"/>
   <polyline stroke-linecap="round" stroke-linejoin="round" stroke="#0071bc" stroke-width="0.5" fill="none" points="303.08,91.08 302.585,93.2494 301.197,94.9892 299.193,95.9547 296.967,95.9547 294.963,94.9892 293.575,93.2494 293.08,91.08 293.575,88.9106 294.963,87.1708 296.967,86.2054 299.193,86.2054 301.197,87.1708 302.585,88.9106 303.08,91.08"/>
   <polyline stroke-linecap="round" stroke-linejoin="round" stroke="#0071bc" stroke-width="0.5" fill="none" points="340.28,93.4272 339.785,95.5966 338.397,97.3364 336.393,98.3018 334.167,98.3018 332.163,97.3364 330.775,95.5966 330.28,93.4272 330.775,91.2578 332.163,89.518 334.167,88.5526 336.393,88.5526 338.397,89.518 339.785,91.2578 340.28,93.4272"/>
   <polyline stroke-linecap="round" stroke-linejoin="round" stroke="#0071bc" stroke-width="0.5" fill="none" points="377.48,98.1216 376.985,100.291 375.597,102.031 373.593,102.996 371.367,102.996 369.363,102.031 367.975,100.291 367.48,98.1216 367.975,95.9522 369.363,94.2124 371.367,93.247 373.593,93.247 375.597,94.2124 376.985,95.9522 377.48,98.1216"/>
   <polyline stroke-linecap="round" stroke-linejoin="round" stroke="#0071bc" stroke-width="0.5" fill="none" points="414.68,98.1216 414.185,100.291 412.797,102.031 410.793,102.996 408.567,102.996 406.563,102.031 405.175,100.291 404.68,98.1216 405.175,95.9522 406.563,94.2124 408.567,93.247 410.793,93.247 412.797,94.2124 414.185,95.9522 414.68,98.1216"/>
   <polyline stroke-linecap="round" stroke-linejoin="round" stroke="#0071bc" stroke-width="0.5" fill="none" points="451.88,86.3856 451.385,88.555 449.997,90.2948 447.993,91.2602 445.767,91.2602 443.763,90.2948 442.375,88.555 441.88,86.3856 442.375,84.2162 443.763,82.4764 445.767,81.511 447.993,81.511 449.997,82.4764 451.385,84.2162 451.88,86.3856"/>
   <polyline stroke-linecap="round" stroke-linejoin="round" stroke="#0071bc" stroke-width="0.5" fill="none" points="489.08,55.872 488.585,58.0414 487.197,59.7812 485.193,60.7466 482.967,60.7466 480.963,59.7812 479.575,58.0414 479.08,55.872 479.575,53.7026 480.963,51.9628 482.967,50.9973 485.193,50.9973 487.197,51.9628 488.585,53.7026 489.08,55.872"/>
   <polyline stroke-linecap="square" stroke-linejoin="miter" stroke="#ff7f00" stroke-width="0.5" fill="none" points="109.08,361.008 115.08,361.008"/>
   <polyline stroke-linecap="square" stroke-linejoin="miter" stroke="#ff7f00" stroke-width="0.5" fill="none" points="112.08,358.008 112.08,364.008"/>
   <polyline stroke-linecap="square" stroke-linejoin="miter" stroke="#ff7f00" stroke-width="0.5" fill="none" points="116.52,338.005 122.52,338.005"/>
   <polyline stroke-linecap="square" stroke-linejoin="miter" stroke="#ff7f00" stroke-width="0.5" fill="none" points="119.52,335.005 119.52,341.005"/>
   <polyline stroke-linecap="square" stroke-linejoin="miter" stroke="#ff7f00" stroke-width="0.5" fill="none" points="123.96,315.003 129.96,315.003"/>
   <polyline stroke-linecap="square" stroke-linejoin="miter" stroke="#ff7f00" stroke-width="0.5" fill="none" points="126.96,312.003 126.96,318.003"/>
   <polyline stroke-linecap="square" stroke-linejoin="miter" stroke="#ff7f00" stroke-width="0.5" fill="none" points="131.4,292 137.4,292"/>
   <polyline stroke-linecap="square" stroke-linejoin="miter" stroke="#ff7f00" stroke-width="0.5" fill="none" points="134.4,289 134.4,295"/>
   <polyline stroke-linecap="square" stroke-linejoin="miter" stroke="#ff7f00" stroke-width="0.5" fill="none" points="138.84,268.998 144.84,268.998"/>
   <polyline stroke-linecap="square" stroke-linejoin="miter" stroke="#ff7f00" stroke-width="0.5" fill="none" points="141.84,265.998 141.84,271.998"/>
   <polyline stroke-linecap="square" stroke-linejoin="miter" stroke="#ff7f00" stroke-width="0.5" fill="none" points="146.28,245.995 152.28,245.995"/>
   <polyline stroke-linecap="square" stroke-linejoin="miter" stroke="#ff7f00" stroke-width="0.5" fill="none" points="149.28,242.995 149.28,248.995"/>
   <polyline stroke-linecap="square" stroke-linejoin="miter" stroke="#ff7f00" stroke-width="0.5" fill="none" points="153.72,230.504 159.72,230.504"/>
   <polyline stroke-linecap="square" stroke-linejoin="miter" stroke="#ff7f00" stroke-width="0.5" fill="none" points="156.72,227.504 156.72,233.504"/>
   <polyline stroke-linecap="square" stroke-linejoin="miter" stroke="#ff7f00" stroke-width="0.5" fill="none" points="161.16,215.012 167.16,215.012"/>
   <polyline stroke-linecap="square" stroke-linejoin="miter" stroke="#ff7f00" stroke-width="0.5" fill="none" points="164.16,212.012 164.16,218.012"/>
   <polyline stroke-linecap="square" stroke-linejoin="miter" stroke="#ff7f00" stroke-width="0.5" fill="none" points="168.6,199.521 174.6,199.521"/>
   <polyline stroke-linecap="square" stroke-linejoin="miter" stroke="#ff7f00" stroke-width="0.5" fill="none" points="171.6,196.521 171.6,202.521"/>
   <polyline stroke-linecap="square" stroke-linejoin="miter" stroke="#ff7f00" stroke-width="0.5" fill="none" points="176.04,184.029 182.04,184.029"/>
   <polyline stroke-linecap="square" stroke-linejoin="miter" stroke="#ff7f00" stroke-width="0.5" fill="none" points="179.04,181.029 179.04,187.029"/>
   <polyline stroke-linecap="square" stroke-linejoin="miter" stroke="#ff7f00" stroke-width="0.5" fill="none" points="183.48,168.538 189.48,168.538"/>
   <polyline stroke-linecap="square" stroke-linejoin="miter" stroke="#ff7f00" stroke-width="0.5" fill="none" points="186.48,165.538 186.48,171.538"/>
   <polyline stroke-linecap="square" stroke-linejoin="miter" stroke="#ff7f00" stroke-width="0.5" fill="none" points="190.92,159.149 196.92,159.149"/>
   <polyline stroke-linecap="square" stroke-linejoin="miter" stroke="#ff7f00" stroke-width="0.5" fill="none" points="193.92,156.149 193.92,162.149"/>
   <polyline stroke-linecap="square" stroke-linejoin="miter" stroke="#ff7f00" stroke-width="0.5" fill="none" points="198.36,149.76 204.36,149.76"/>
   <polyline stroke-linecap="square" stroke-linejoin="miter" stroke="#ff7f00" stroke-width="0.5" fill="none" points="201.36,146.76 201.36,152.76"/>
   <polyline stroke-linecap="square" stroke-linejoin="miter" stroke="#ff7f00" stroke-width="0.5" fill="none" points="205.8,140.371 211.8,140.371"/>
   <polyline stroke-linecap="square" stroke-linejoin="miter" stroke="#ff7f00" stroke-width="0.5" fill="none" points="208.8,137.371 208.8,143.371"/>
   <polyline stroke-linecap="square" stroke-linejoin="miter" stroke="#ff7f00" stroke-width="0.5" fill="none" points="213.24,130.982 219.24,130.982"/>
   <polyline stroke-linecap="square" stroke-linejoin="miter" stroke="#ff7f00" stroke-width="0.5" fill="none" points="216.24,127.982 216.24,133.982"/>
   <polyline stroke-linecap="square" stroke-linejoin="miter" stroke="#ff7f00" stroke-width="0.5" fill="none" points="220.68,121.594 226.68,121.594"/>
   <polyline stroke-linecap="square" stroke-linejoin="miter" stroke="#ff7f00" stroke-width="0.5" fill="none" points="223.68,118.594 223.68,124.594"/>
   <polyline stroke-linecap="square" stroke-linejoin="miter" stroke="#ff7f00" stroke-width="0.5" fill="none" points="228.12,116.899 234.12,116.899"/>
   <polyline stroke-linecap="square" stroke-linejoin="miter" stroke="#ff7f00" stroke-width="0.5" fill="none" points="231.12,113.899 231.12,119.899"/>
   <polyline stroke-linecap="square" stroke-linejoin="miter" stroke="#ff7f00" stroke-width="0.5" fill="none" points="235.56,112.205 241.56,112.205"/>
   <polyline stroke-linecap="square" stroke-linejoin="miter" stroke="#ff7f00" stroke-width="0.5" fill="none" points="238.56,109.205 238.56,115.205"/>
   <polyline stroke-linecap="square" stroke-linejoin="miter" stroke="#ff7f00" stroke-width="0.5" fill="none" points="243,107.51 249,107.51"/>
   <polyline stroke-linecap="square" stroke-linejoin="miter" stroke="#ff7f00" stroke-width="0.5" fill="none" points="246,104.51 246,110.51"/>
   <polyline stroke-linecap="square" stroke-linejoin="miter" stroke="#ff7f00" stroke-width="0.5" fill="none" points="250.44,102.816 256.44,102.816"/>
   <polyline stroke-linecap="square" stroke-linejoin="miter" stroke="#ff7f00" stroke-width="0.5" fill="none" points="253.44,99.816 253.44,105.816"/>
   <polyline stroke-linecap="square" stroke-linejoin="miter" stroke="#ff7f00" stroke-width="0.5" fill="none" points="257.88,98.1216 263.88,98.1216"/>
   <polyline stroke-linecap="square" stroke-linejoin="miter" stroke="#ff7f00" stroke-width="0.5" fill="none" points="260.88,95.1216 260.88,101.122"/>
   <polyline stroke-linecap="square" stroke-linejoin="miter" stroke="#ff7f00" stroke-width="0.5" fill="none" points="265.32,96.7133 271.32,96.7133"/>
   <polyline stroke-linecap="square" stroke-linejoin="miter" stroke="#ff7f00" stroke-width="0.5" fill="none" points="268.32,93.7133 268.32,99.7133"/>
   <polyline stroke-linecap="square" stroke-linejoin="miter" stroke="#ff7f00" stroke-width="0.5" fill="none" points="272.76,95.305 278.76,95.305"/>
   <polyline stroke-linecap="square" stroke-linejoin="miter" stroke="#ff7f00" stroke-width="0.5" fill="none" points="275.76,92.305 275.76,98.305"/>
   <polyline stroke-linecap="square" stroke-linejoin="miter" stroke="#ff7f00" stroke-width="0.5" fill="none" points="280.2,93.8966 286.2,93.8966"/>
   <polyline stroke-linecap="square" stroke-linejoin="miter" stroke="#ff7f00" stroke-width="0.5" fill="none" points="283.2,90.8966 283.2,96.8966"/>
   <polyline stroke-linecap="square" stroke-linejoin="miter" stroke="#ff7f00" stroke-width="0.5" fill="none" points="287.64,92.4883 293.64,92.4883"/>
   <polyline stroke-linecap="square" stroke-linejoin="miter" stroke="#ff7f00" stroke-width="0.5" fill="none" points="290.64,89.4883 290.64,95.4883"/>
   <polyline stroke-linecap="square" stroke-linejoin="miter" stroke="#ff7f00" stroke-width="0.5" fill="none" points="295.08,91.08 301.08,91.08"/>
   <polyline stroke-linecap="square" stroke-linejoin="miter" stroke="#ff7f00" stroke-width="0.5" fill="none" points="298.08,88.08 298.08,94.08"/>
   <polyline stroke-linecap="square" stroke-linejoin="miter" stroke="#ff7f00" stroke-width="0.5" fill="none" points="302.52,91.5494 308.52,91.5494"/>
   <polyline stroke-linecap="square" stroke-linejoin="miter" stroke="#ff7f00" stroke-width="0.5" fill="none" points="305.52,88.5494 305.52,94.5494"/>
   <polyline stroke-linecap="square" stroke-linejoin="miter" stroke="#ff7f00" stroke-width="0.5" fill="none" points="309.96,92.0189 315.96,92.0189"/>
   <polyline stroke-linecap="square" stroke-linejoin="miter" stroke="#ff7f00" stroke-width="0.5" fill="none" points="312.96,89.0189 312.96,95.0189"/>
   <polyline stroke-linecap="square" stroke-linejoin="miter" stroke="#ff7f00" stroke-width="0.5" fill="none" points="317.4,92.4883 323.4,92.4883"/>
   <polyline stroke-linecap="square" stroke-linejoin="miter" stroke="#ff7f00" stroke-width="0.5" fill="none" points="320.4,89.4883 320.4,95.4883"/>
   <polyline stroke-linecap="square" stroke-linejoin="miter" stroke="#ff7f00" stroke-width="0.5" fill="none" points="324.84,92.9578 330.84,92.9578"/>
   <polyline stroke-linecap="square" stroke-linejoin="miter" stroke="#ff7f00" stroke-width="0.5" fill="none" points="327.84,89.9578 327.84,95.9578"/>
   <polyline stroke-linecap="square" stroke-linejoin="miter" stroke="#ff7f00" stroke-width="0.5" fill="none" points="332.28,93.4272 338.28,93.4272"/>
   <polyline stroke-linecap="square" stroke-linejoin="miter" stroke="#ff7f00" stroke-width="0.5" fill="none" points="335.28,90.4272 335.28,96.4272"/>
   <polyline stroke-linecap="square" stroke-linejoin="miter" stroke="#ff7f00" stroke-width="0.5" fill="none" points="339.72,94.3661 345.72,94.3661"/>
   <polyline stroke-linecap="square" stroke-linejoin="miter" stroke="#ff7f00" stroke-width="0.5" fill="none" points="342.72,91.3661 342.72,97.3661"/>
   <polyline stroke-linecap="square" stroke-linejoin="miter" stroke="#ff7f00" stroke-width="0.5" fill="none" points="347.16,95.305 353.16,95.305"/>
   <polyline stroke-linecap="square" stroke-linejoin="miter" stroke="#ff7f00" stroke-width="0.5" fill="none" points="350.16,92.305 350.16,98.305"/>
   <polyline stroke-linecap="square" stroke-linejoin="miter" stroke="#ff7f00" stroke-width="0.5" fill="none" points="354.6,96.2438 360.6,96.2438"/>
   <polyline stroke-linecap="square" stroke-linejoin="miter" stroke="#ff7f00" stroke-width="0.5" fill="none" points="357.6,93.2438 357.6,99.2438"/>
   <polyline stroke-linecap="square" stroke-linejoin="miter" stroke="#ff7f00" stroke-width="0.5" fill="none" points="362.04,97.1827 368.04,97.1827"/>
   <polyline stroke-linecap="square" stroke-linejoin="miter" stroke="#ff7f00" stroke-width="0.5" fill="none" points="365.04,94.1827 365.04,100.183"/>
   <polyline stroke-linecap="square" stroke-linejoin="miter" stroke="#ff7f00" stroke-width="0.5" fill="none" points="369.48,98.1216 375.48,98.1216"/>
   <polyline stroke-linecap="square" stroke-linejoin="miter" stroke="#ff7f00" stroke-width="0.5" fill="none" points="372.48,95.1216 372.48,101.122"/>
   <polyline stroke-linecap="square" stroke-linejoin="miter" stroke="#ff7f00" stroke-width="0.5" fill="none" points="376.92,98.1216 382.92,98.1216"/>
   <polyline stroke-linecap="square" stroke-linejoin="miter" stroke="#ff7f00" stroke-width="0.5" fill="none" points="379.92,95.1216 379.92,101.122"/>
   <polyline stroke-linecap="square" stroke-linejoin="miter" stroke="#ff7f00" stroke-width="0.5" fill="none" points="384.36,98.1216 390.36,98.1216"/>
   <polyline stroke-linecap="square" stroke-linejoin="miter" stroke="#ff7f00" stroke-width="0.5" fill="none" points="387.36,95.1216 387.36,101.122"/>
   <polyline stroke-linecap="square" stroke-linejoin="miter" stroke="#ff7f00" stroke-width="0.5" fill="none" points="391.8,98.1216 397.8,98.1216"/>
   <polyline stroke-linecap="square" stroke-linejoin="miter" stroke="#ff7f00" stroke-width="0.5" fill="none" points="394.8,95.1216 394.8,101.122"/>
   <polyline stroke-linecap="square" stroke-linejoin="miter" stroke="#ff7f00" stroke-width="0.5" fill="none" points="399.24,98.1216 405.24,98.1216"/>
   <polyline stroke-linecap="square" stroke-linejoin="miter" stroke="#ff7f00" stroke-width="0.5" fill="none" points="402.24,95.1216 402.24,101.122"/>
   <polyline stroke-linecap="square" stroke-linejoin="miter" stroke="#ff7f00" stroke-width="0.5" fill="none" points="406.68,98.1216 412.68,98.1216"/>
   <polyline stroke-linecap="square" stroke-linejoin="miter" stroke="#ff7f00" stroke-width="0.5" fill="none" points="409.68,95.1216 409.68,101.122"/>
   <polyline stroke-linecap="square" stroke-linejoin="miter" stroke="#ff7f00" stroke-width="0.5" fill="none" points="414.12,95.7744 420.12,95.7744"/>
   <polyline stroke-linecap="square" stroke-linejoin="miter" stroke="#ff7f00" stroke-width="0.5" fill="none" points="417.12,92.7744 417.12,98.7744"/>
   <polyline stroke-linecap="square" stroke-linejoin="miter" stroke="#ff7f00" stroke-width="0.5" fill="none" points="421.56,93.4272 427.56,93.4272"/>
   <polyline stroke-linecap="square" stroke-linejoin="miter" stroke="#ff7f00" stroke-width="0.5" fill="none" points="424.56,90.4272 424.56,96.4272"/>
   <polyline stroke-linecap="square" stroke-linejoin="miter" stroke="#ff7f00" stroke-width="0.5" fill="none" points="429,91.08 435,91.08"/>
   <polyline stroke-linecap="square" stroke-linejoin="miter" stroke="#ff7f00" stroke-width="0.5" fill="none" points="432,88.08 432,94.08"/>
   <polyline stroke-linecap="square" stroke-linejoin="miter" stroke="#ff7f00" stroke-width="0.5" fill="none" points="436.44,88.7328 442.44,88.7328"/>
   <polyline stroke-linecap="square" stroke-linejoin="miter" stroke="#ff7f00" stroke-width="0.5" fill="none" points="439.44,85.7328 439.44,91.7328"/>
   <polyline stroke-linecap="square" stroke-linejoin="miter" stroke="#ff7f00" stroke-width="0.5" fill="none" points="443.88,86.3856 449.88,86.3856"/>
   <polyline stroke-linecap="square" stroke-linejoin="miter" stroke="#ff7f00" stroke-width="0.5" fill="none" points="446.88,83.3856 446.88,89.3856"/>
   <polyline stroke-linecap="square" stroke-linejoin="miter" stroke="#ff7f00" stroke-width="0.5" fill="none" points="451.32,80.2829 457.32,80.2829"/>
   <polyline stroke-linecap="square" stroke-linejoin="miter" stroke="#ff7f00" stroke-width="0.5" fill="none" points="454.32,77.2829 454.32,83.2829"/>
   <polyline stroke-linecap="square" stroke-linejoin="miter" stroke="#ff7f00" stroke-width="0.5" fill="none" points="458.76,74.1802 464.76,74.1802"/>
   <polyline stroke-linecap="square" stroke-linejoin="miter" stroke="#ff7f00" stroke-width="0.5" fill="none" points="461.76,71.1802 461.76,77.1802"/>
   <polyline stroke-linecap="square" stroke-linejoin="miter" stroke="#ff7f00" stroke-width="0.5" fill="none" points="466.2,68.0775 472.2,68.0775"/>
   <polyline stroke-linecap="square" stroke-linejoin="miter" stroke="#ff7f00" stroke-width="0.5" fill="none" points="469.2,65.0774 469.2,71.0775"/>
   <polyline stroke-linecap="square" stroke-linejoin="miter" stroke="#ff7f00" stroke-width="0.5" fill="none" points="473.64,61.9747 479.64,61.9747"/>
   <polyline stroke-linecap="square" stroke-linejoin="miter" stroke="#ff7f00" stroke-width="0.5" fill="none" points="476.64,58.9747 476.64,64.9747"/>
   <polyline stroke-linecap="square" stroke-linejoin="miter" stroke="#ff7f00" stroke-width="0.5" fill="none" points="481.08,55.872 487.08,55.872"/>
   <polyline stroke-linecap="square" stroke-linejoin="miter" stroke="#ff7f00" stroke-width="0.5" fill="none" points="484.08,52.872 484.08,58.872"/>
  </g>
 </g>
</svg>
