<?xml version='1.0' encoding='UTF-8' standalone='no'?>
<svg viewBox="0 0 576 432" height="432pt" width="576pt" xmlns:xlink="http://www.w3.org/1999/xlink" xmlns="http://www.w3.org/2000/svg">
 <title>gl2ps_renderer figure</title>
 <desc>
Creator: GL2PS 1.4.0, (C) 1999-2017 C. Geuzaine
For: Octave
CreationDate: Sun Dec 25 20:01:54 2022
</desc>
 <defs/>
 <polygon points="0,0 576,0 576,432 0,432" fill="#ffffff"/>
 <g>
  <polygon points="0,432 576,432 576,0 0,0" fill="#ffffff" shape-rendering="crispEdges"/>
  <clipPath id="cp00576432">
   <polygon points="0,432 576,432 576,0 0,0"/>
  </clipPath>
  <g clip-path="url(#cp00576432)">
   <polygon points="74.88,384.48 521.28,384.48 521.28,32.4 74.88,32.4" fill="#ffffff" shape-rendering="crispEdges"/>
   <polyline stroke="#262626" stroke-linecap="butt" points="74.88,384.48 74.88,380.015" stroke-linejoin="miter" fill="none" stroke-width="0.5"/>
   <polyline stroke="#262626" stroke-linecap="butt" points="74.88,32.4 74.88,36.865" stroke-linejoin="miter" fill="none" stroke-width="0.5"/>
   <polyline stroke="#262626" stroke-linecap="butt" points="138.651,384.48 138.651,380.015" stroke-linejoin="miter" fill="none" stroke-width="0.5"/>
   <polyline stroke="#262626" stroke-linecap="butt" points="138.651,32.4 138.651,36.865" stroke-linejoin="miter" fill="none" stroke-width="0.5"/>
   <polyline stroke="#262626" stroke-linecap="butt" points="202.423,384.48 202.423,380.015" stroke-linejoin="miter" fill="none" stroke-width="0.5"/>
   <polyline stroke="#262626" stroke-linecap="butt" points="202.423,32.4 202.423,36.865" stroke-linejoin="miter" fill="none" stroke-width="0.5"/>
   <polyline stroke="#262626" stroke-linecap="butt" points="266.194,384.48 266.194,380.015" stroke-linejoin="miter" fill="none" stroke-width="0.5"/>
   <polyline stroke="#262626" stroke-linecap="butt" points="266.194,32.4 266.194,36.865" stroke-linejoin="miter" fill="none" stroke-width="0.5"/>
   <polyline stroke="#262626" stroke-linecap="butt" points="329.966,384.48 329.966,380.015" stroke-linejoin="miter" fill="none" stroke-width="0.5"/>
   <polyline stroke="#262626" stroke-linecap="butt" points="329.966,32.4 329.966,36.865" stroke-linejoin="miter" fill="none" stroke-width="0.5"/>
   <polyline stroke="#262626" stroke-linecap="butt" points="393.737,384.48 393.737,380.015" stroke-linejoin="miter" fill="none" stroke-width="0.5"/>
   <polyline stroke="#262626" stroke-linecap="butt" points="393.737,32.4 393.737,36.865" stroke-linejoin="miter" fill="none" stroke-width="0.5"/>
   <polyline stroke="#262626" stroke-linecap="butt" points="457.509,384.48 457.509,380.015" stroke-linejoin="miter" fill="none" stroke-width="0.5"/>
   <polyline stroke="#262626" stroke-linecap="butt" points="457.509,32.4 457.509,36.865" stroke-linejoin="miter" fill="none" stroke-width="0.5"/>
   <polyline stroke="#262626" stroke-linecap="butt" points="521.28,384.48 521.28,380.015" stroke-linejoin="miter" fill="none" stroke-width="0.5"/>
   <polyline stroke="#262626" stroke-linecap="butt" points="521.28,32.4 521.28,36.865" stroke-linejoin="miter" fill="none" stroke-width="0.5"/>
   <text transform="translate(71.88,399.982) rotate(-0,3,-8)" font-size="10" font-weight="normal" xml:space="preserve" font-family="FreeSans" font-style="normal">
    <tspan x="0 " y="-0" fill="rgb(38,38,38)">0</tspan>
   </text>
   <text transform="translate(135.651,399.982) rotate(-0,3,-8)" font-size="10" font-weight="normal" xml:space="preserve" font-family="FreeSans" font-style="normal">
    <tspan x="0 " y="-0" fill="rgb(38,38,38)">1</tspan>
   </text>
   <text transform="translate(199.423,399.982) rotate(-0,3,-8)" font-size="10" font-weight="normal" xml:space="preserve" font-family="FreeSans" font-style="normal">
    <tspan x="0 " y="-0" fill="rgb(38,38,38)">2</tspan>
   </text>
   <text transform="translate(263.194,399.982) rotate(-0,3,-8)" font-size="10" font-weight="normal" xml:space="preserve" font-family="FreeSans" font-style="normal">
    <tspan x="0 " y="-0" fill="rgb(38,38,38)">3</tspan>
   </text>
   <text transform="translate(326.966,399.982) rotate(-0,3,-8)" font-size="10" font-weight="normal" xml:space="preserve" font-family="FreeSans" font-style="normal">
    <tspan x="0 " y="-0" fill="rgb(38,38,38)">4</tspan>
   </text>
   <text transform="translate(390.737,399.982) rotate(-0,3,-8)" font-size="10" font-weight="normal" xml:space="preserve" font-family="FreeSans" font-style="normal">
    <tspan x="0 " y="-0" fill="rgb(38,38,38)">5</tspan>
   </text>
   <text transform="translate(454.509,399.982) rotate(-0,3,-8)" font-size="10" font-weight="normal" xml:space="preserve" font-family="FreeSans" font-style="normal">
    <tspan x="0 " y="-0" fill="rgb(38,38,38)">6</tspan>
   </text>
   <text transform="translate(518.28,399.982) rotate(-0,3,-8)" font-size="10" font-weight="normal" xml:space="preserve" font-family="FreeSans" font-style="normal">
    <tspan x="0 " y="-0" fill="rgb(38,38,38)">7</tspan>
   </text>
   <polyline stroke="#262626" stroke-linecap="butt" points="74.88,384.48 79.348,384.48" stroke-linejoin="miter" fill="none" stroke-width="0.5"/>
   <polyline stroke="#262626" stroke-linecap="butt" points="521.28,384.48 516.812,384.48" stroke-linejoin="miter" fill="none" stroke-width="0.5"/>
   <polyline stroke="#262626" stroke-linecap="butt" points="74.88,296.46 79.348,296.46" stroke-linejoin="miter" fill="none" stroke-width="0.5"/>
   <polyline stroke="#262626" stroke-linecap="butt" points="521.28,296.46 516.812,296.46" stroke-linejoin="miter" fill="none" stroke-width="0.5"/>
   <polyline stroke="#262626" stroke-linecap="butt" points="74.88,208.44 79.348,208.44" stroke-linejoin="miter" fill="none" stroke-width="0.5"/>
   <polyline stroke="#262626" stroke-linecap="butt" points="521.28,208.44 516.812,208.44" stroke-linejoin="miter" fill="none" stroke-width="0.5"/>
   <polyline stroke="#262626" stroke-linecap="butt" points="74.88,120.42 79.348,120.42" stroke-linejoin="miter" fill="none" stroke-width="0.5"/>
   <polyline stroke="#262626" stroke-linecap="butt" points="521.28,120.42 516.812,120.42" stroke-linejoin="miter" fill="none" stroke-width="0.5"/>
   <polyline stroke="#262626" stroke-linecap="butt" points="74.88,32.4 79.348,32.4" stroke-linejoin="miter" fill="none" stroke-width="0.5"/>
   <polyline stroke="#262626" stroke-linecap="butt" points="521.28,32.4 516.812,32.4" stroke-linejoin="miter" fill="none" stroke-width="0.5"/>
   <text transform="translate(60.8755,388.48) rotate(-0,9,-4)" font-size="10" font-weight="normal" xml:space="preserve" font-family="FreeSans" font-style="normal">
    <tspan x="0 3 " y="-0" fill="rgb(38,38,38)">-2</tspan>
   </text>
   <text transform="translate(60.8755,300.46) rotate(-0,9,-4)" font-size="10" font-weight="normal" xml:space="preserve" font-family="FreeSans" font-style="normal">
    <tspan x="0 3 " y="-0" fill="rgb(38,38,38)">-1</tspan>
   </text>
   <text transform="translate(63.8755,212.44) rotate(-0,6,-4)" font-size="10" font-weight="normal" xml:space="preserve" font-family="FreeSans" font-style="normal">
    <tspan x="0 " y="-0" fill="rgb(38,38,38)">0</tspan>
   </text>
   <text transform="translate(63.8755,124.42) rotate(-0,6,-4)" font-size="10" font-weight="normal" xml:space="preserve" font-family="FreeSans" font-style="normal">
    <tspan x="0 " y="-0" fill="rgb(38,38,38)">1</tspan>
   </text>
   <text transform="translate(63.8755,36.4) rotate(-0,6,-4)" font-size="10" font-weight="normal" xml:space="preserve" font-family="FreeSans" font-style="normal">
    <tspan x="0 " y="-0" fill="rgb(38,38,38)">2</tspan>
   </text>
   <polyline stroke-dasharray="16,0" stroke="#262626" stroke-linecap="square" points="74.88,384.48 521.28,384.48" stroke-linejoin="miter" fill="none" stroke-width="0.5"/>
   <polyline stroke-dasharray="16,0" stroke="#262626" stroke-linecap="square" points="74.88,32.4 521.28,32.4" stroke-linejoin="miter" fill="none" stroke-width="0.5"/>
   <polyline stroke-dasharray="16,0" stroke="#262626" stroke-linecap="square" points="74.88,384.48 74.88,32.4" stroke-linejoin="miter" fill="none" stroke-width="0.5"/>
   <polyline stroke-dasharray="16,0" stroke="#262626" stroke-linecap="square" points="521.28,384.48 521.28,32.4" stroke-linejoin="miter" fill="none" stroke-width="0.5"/>
   <polygon points="223.981,231.982 222.981,231.982 222.481,231.116 222.981,230.25 223.981,230.25 224.481,231.116 224.481,231.116" fill="#0071bc" shape-rendering="crispEdges"/>
   <polygon points="302.092,174.944 301.092,174.944 300.592,174.078 301.092,173.212 302.092,173.212 302.592,174.078 302.592,174.078" fill="#0071bc" shape-rendering="crispEdges"/>
   <polygon points="313.483,180.041 312.483,180.041 311.983,179.175 312.483,178.309 313.483,178.309 313.983,179.175 313.983,179.175" fill="#0071bc" shape-rendering="crispEdges"/>
   <polygon points="417.661,363.116 416.661,363.116 416.161,362.25 416.661,361.383 417.661,361.383 418.161,362.25 418.161,362.25" fill="#0071bc" shape-rendering="crispEdges"/>
   <polygon points="463.52,275.945 462.52,275.945 462.02,275.079 462.52,274.213 463.52,274.213 464.02,275.079 464.02,275.079" fill="#0071bc" shape-rendering="crispEdges"/>
   <polygon points="471.607,222.935 470.607,222.935 470.107,222.069 470.607,221.203 471.607,221.203 472.107,222.069 472.107,222.069" fill="#0071bc" shape-rendering="crispEdges"/>
   <polygon points="461.624,274.198 460.624,274.198 460.124,273.332 460.624,272.466 461.624,272.466 462.124,273.332 462.124,273.332" fill="#0071bc" shape-rendering="crispEdges"/>
   <polygon points="331.258,187.98 330.258,187.98 329.758,187.114 330.258,186.248 331.258,186.248 331.758,187.114 331.758,187.114" fill="#0071bc" shape-rendering="crispEdges"/>
   <polygon points="355.495,236.83 354.495,236.83 353.995,235.964 354.495,235.098 355.495,235.098 355.995,235.964 355.995,235.964" fill="#0071bc" shape-rendering="crispEdges"/>
   <polygon points="409.409,348.629 408.409,348.629 407.909,347.763 408.409,346.897 409.409,346.897 409.909,347.763 409.909,347.763" fill="#0071bc" shape-rendering="crispEdges"/>
   <polygon points="131.04,36.772 130.04,36.772 129.54,35.9059 130.04,35.0399 131.04,35.0399 131.54,35.9059 131.54,35.9059" fill="#0071bc" shape-rendering="crispEdges"/>
   <polygon points="395.928,342.444 394.928,342.444 394.428,341.578 394.928,340.712 395.928,340.712 396.428,341.578 396.428,341.578" fill="#0071bc" shape-rendering="crispEdges"/>
   <polygon points="78.0027,187.149 77.0027,187.149 76.5027,186.283 77.0027,185.417 78.0027,185.417 78.5027,186.283 78.5027,186.283" fill="#0071bc" shape-rendering="crispEdges"/>
   <polygon points="355.936,226.108 354.936,226.108 354.436,225.242 354.936,224.376 355.936,224.376 356.436,225.242 356.436,225.242" fill="#0071bc" shape-rendering="crispEdges"/>
   <polygon points="268.093,216.047 267.093,216.047 266.593,215.181 267.093,214.315 268.093,214.315 268.593,215.181 268.593,215.181" fill="#0071bc" shape-rendering="crispEdges"/>
   <polygon points="299.876,183.216 298.876,183.216 298.376,182.35 298.876,181.484 299.876,181.484 300.376,182.35 300.376,182.35" fill="#0071bc" shape-rendering="crispEdges"/>
   <polygon points="259.137,248.696 258.137,248.696 257.637,247.83 258.137,246.964 259.137,246.964 259.637,247.83 259.637,247.83" fill="#0071bc" shape-rendering="crispEdges"/>
   <polygon points="401.382,346.766 400.382,346.766 399.882,345.9 400.382,345.034 401.382,345.034 401.882,345.9 401.882,345.9" fill="#0071bc" shape-rendering="crispEdges"/>
   <polygon points="439.628,337.579 438.628,337.579 438.128,336.713 438.628,335.847 439.628,335.847 440.128,336.713 440.128,336.713" fill="#0071bc" shape-rendering="crispEdges"/>
   <polygon points="208.198,195.527 207.198,195.527 206.698,194.661 207.198,193.795 208.198,193.795 208.698,194.661 208.698,194.661" fill="#0071bc" shape-rendering="crispEdges"/>
   <polygon points="402.336,351.876 401.336,351.876 400.836,351.01 401.336,350.144 402.336,350.144 402.836,351.01 402.836,351.01" fill="#0071bc" shape-rendering="crispEdges"/>
   <polygon points="449.472,299.738 448.472,299.738 447.972,298.872 448.472,298.006 449.472,298.006 449.972,298.872 449.972,298.872" fill="#0071bc" shape-rendering="crispEdges"/>
   <polygon points="397.438,342.492 396.438,342.492 395.938,341.626 396.438,340.76 397.438,340.76 397.938,341.626 397.938,341.626" fill="#0071bc" shape-rendering="crispEdges"/>
   <polygon points="436.809,346.165 435.809,346.165 435.309,345.299 435.809,344.433 436.809,344.433 437.309,345.299 437.309,345.299" fill="#0071bc" shape-rendering="crispEdges"/>
   <polygon points="469.954,238.252 468.954,238.252 468.454,237.386 468.954,236.52 469.954,236.52 470.454,237.386 470.454,237.386" fill="#0071bc" shape-rendering="crispEdges"/>
   <polygon points="411.992,357.898 410.992,357.898 410.492,357.032 410.992,356.166 411.992,356.166 412.492,357.032 412.492,357.032" fill="#0071bc" shape-rendering="crispEdges"/>
   <polygon points="239.819,239.748 238.819,239.748 238.319,238.882 238.819,238.016 239.819,238.016 240.319,238.882 240.319,238.882" fill="#0071bc" shape-rendering="crispEdges"/>
   <polygon points="364.537,257.445 363.537,257.445 363.037,256.579 363.537,255.713 364.537,255.713 365.037,256.579 365.037,256.579" fill="#0071bc" shape-rendering="crispEdges"/>
   <polygon points="294.331,197.495 293.331,197.495 292.831,196.629 293.331,195.763 294.331,195.763 294.831,196.629 294.831,196.629" fill="#0071bc" shape-rendering="crispEdges"/>
   <polygon points="295.436,188.503 294.436,188.503 293.936,187.637 294.436,186.771 295.436,186.771 295.936,187.637 295.936,187.637" fill="#0071bc" shape-rendering="crispEdges"/>
   <polygon points="215.28,226.637 214.28,226.637 213.78,225.771 214.28,224.905 215.28,224.905 215.78,225.771 215.78,225.771" fill="#0071bc" shape-rendering="crispEdges"/>
   <polygon points="448.676,307.519 447.676,307.519 447.176,306.653 447.676,305.787 448.676,305.787 449.176,306.653 449.176,306.653" fill="#0071bc" shape-rendering="crispEdges"/>
   <polygon points="407.252,355.729 406.252,355.729 405.752,354.863 406.252,353.997 407.252,353.997 407.752,354.863 407.752,354.863" fill="#0071bc" shape-rendering="crispEdges"/>
   <polygon points="101.985,89.294 100.985,89.294 100.485,88.4279 100.985,87.5619 101.985,87.5619 102.485,88.4279 102.485,88.4279" fill="#0071bc" shape-rendering="crispEdges"/>
   <polygon points="394.151,340.453 393.151,340.453 392.651,339.587 393.151,338.721 394.151,338.721 394.651,339.587 394.651,339.587" fill="#0071bc" shape-rendering="crispEdges"/>
   <polygon points="111.655,82.5583 110.655,82.5583 110.155,81.6923 110.655,80.8263 111.655,80.8263 112.155,81.6923 112.155,81.6923" fill="#0071bc" shape-rendering="crispEdges"/>
   <polygon points="98.2325,121.656 97.2325,121.656 96.7325,120.79 97.2325,119.924 98.2325,119.924 98.7325,120.79 98.7325,120.79" fill="#0071bc" shape-rendering="crispEdges"/>
   <polygon points="113.224,67.7997 112.224,67.7997 111.724,66.9337 112.224,66.0677 113.224,66.0677 113.724,66.9337 113.724,66.9337" fill="#0071bc" shape-rendering="crispEdges"/>
   <polygon points="242.855,237.344 241.855,237.344 241.355,236.478 241.855,235.612 242.855,235.612 243.355,236.478 243.355,236.478" fill="#0071bc" shape-rendering="crispEdges"/>
   <polygon points="339.373,211.052 338.373,211.052 337.873,210.186 338.373,209.32 339.373,209.32 339.873,210.186 339.873,210.186" fill="#0071bc" shape-rendering="crispEdges"/>
   <polygon points="430.407,350.835 429.407,350.835 428.907,349.969 429.407,349.103 430.407,349.103 430.907,349.969 430.907,349.969" fill="#0071bc" shape-rendering="crispEdges"/>
   <polygon points="368.569,277.27 367.569,277.27 367.069,276.404 367.569,275.538 368.569,275.538 369.069,276.404 369.069,276.404" fill="#0071bc" shape-rendering="crispEdges"/>
   <polygon points="396.638,340.659 395.638,340.659 395.138,339.792 395.638,338.926 396.638,338.926 397.138,339.792 397.138,339.792" fill="#0071bc" shape-rendering="crispEdges"/>
   <polygon points="220.639,238.407 219.639,238.407 219.139,237.541 219.639,236.675 220.639,236.675 221.139,237.541 221.139,237.541" fill="#0071bc" shape-rendering="crispEdges"/>
   <polygon points="127.409,48.6469 126.409,48.6469 125.909,47.7809 126.409,46.9149 127.409,46.9149 127.909,47.7809 127.909,47.7809" fill="#0071bc" shape-rendering="crispEdges"/>
   <polygon points="193.494,175.087 192.494,175.087 191.994,174.221 192.494,173.355 193.494,173.355 193.994,174.221 193.994,174.221" fill="#0071bc" shape-rendering="crispEdges"/>
   <polygon points="405.959,361.842 404.959,361.842 404.459,360.976 404.959,360.11 405.959,360.11 406.459,360.976 406.459,360.976" fill="#0071bc" shape-rendering="crispEdges"/>
   <polygon points="206.107,212.094 205.107,212.094 204.607,211.228 205.107,210.362 206.107,210.362 206.607,211.228 206.607,211.228" fill="#0071bc" shape-rendering="crispEdges"/>
   <polygon points="174.64,112.531 173.64,112.531 173.14,111.665 173.64,110.799 174.64,110.799 175.14,111.665 175.14,111.665" fill="#0071bc" shape-rendering="crispEdges"/>
   <polygon points="408.288,368.827 407.288,368.827 406.788,367.961 407.288,367.095 408.288,367.095 408.788,367.961 408.788,367.961" fill="#0071bc" shape-rendering="crispEdges"/>
   <polygon points="173.272,112.072 172.272,112.072 171.772,111.206 172.272,110.34 173.272,110.34 173.772,111.206 173.772,111.206" fill="#0071bc" shape-rendering="crispEdges"/>
   <polygon points="315.244,183.387 314.244,183.387 313.744,182.521 314.244,181.655 315.244,181.655 315.744,182.521 315.744,182.521" fill="#0071bc" shape-rendering="crispEdges"/>
   <polygon points="198.676,186.909 197.676,186.909 197.177,186.043 197.676,185.177 198.676,185.177 199.176,186.043 199.176,186.043" fill="#0071bc" shape-rendering="crispEdges"/>
   <polygon points="305.417,181.322 304.417,181.322 303.917,180.456 304.417,179.59 305.417,179.59 305.917,180.456 305.917,180.456" fill="#0071bc" shape-rendering="crispEdges"/>
   <polygon points="311.952,172.412 310.952,172.412 310.452,171.546 310.952,170.68 311.952,170.68 312.452,171.546 312.452,171.546" fill="#0071bc" shape-rendering="crispEdges"/>
   <polygon points="427.267,348.347 426.267,348.347 425.767,347.481 426.267,346.615 427.267,346.615 427.767,347.481 427.767,347.481" fill="#0071bc" shape-rendering="crispEdges"/>
   <polygon points="378.407,299.846 377.407,299.846 376.907,298.98 377.407,298.114 378.407,298.114 378.907,298.98 378.907,298.98" fill="#0071bc" shape-rendering="crispEdges"/>
   <polygon points="254.701,240.885 253.701,240.885 253.201,240.019 253.701,239.153 254.701,239.153 255.201,240.019 255.201,240.019" fill="#0071bc" shape-rendering="crispEdges"/>
   <polygon points="231.106,246.783 230.106,246.783 229.606,245.917 230.106,245.051 231.106,245.051 231.606,245.917 231.606,245.917" fill="#0071bc" shape-rendering="crispEdges"/>
   <polygon points="215.94,223.641 214.94,223.641 214.44,222.775 214.94,221.909 215.94,221.909 216.44,222.775 216.44,222.775" fill="#0071bc" shape-rendering="crispEdges"/>
   <polygon points="394.951,336.41 393.951,336.41 393.451,335.544 393.951,334.678 394.951,334.678 395.451,335.544 395.451,335.544" fill="#0071bc" shape-rendering="crispEdges"/>
   <polygon points="297.249,187.646 296.249,187.646 295.749,186.78 296.249,185.914 297.249,185.914 297.749,186.78 297.749,186.78" fill="#0071bc" shape-rendering="crispEdges"/>
   <polygon points="350.2,229.144 349.2,229.144 348.7,228.278 349.2,227.412 350.2,227.412 350.7,228.278 350.7,228.278" fill="#0071bc" shape-rendering="crispEdges"/>
   <polygon points="177.175,114.403 176.175,114.403 175.675,113.537 176.175,112.671 177.175,112.671 177.675,113.537 177.675,113.537" fill="#0071bc" shape-rendering="crispEdges"/>
   <polygon points="465.042,260.326 464.042,260.326 463.542,259.46 464.042,258.594 465.042,258.594 465.542,259.46 465.542,259.46" fill="#0071bc" shape-rendering="crispEdges"/>
   <polygon points="89.8353,166.828 88.8353,166.828 88.3353,165.962 88.8353,165.096 89.8353,165.096 90.3353,165.962 90.3353,165.962" fill="#0071bc" shape-rendering="crispEdges"/>
   <polygon points="134.3,47.0079 133.3,47.0079 132.8,46.1418 133.3,45.2758 134.3,45.2758 134.8,46.1418 134.8,46.1418" fill="#0071bc" shape-rendering="crispEdges"/>
   <polygon points="91.9048,127.166 90.9048,127.166 90.4048,126.3 90.9048,125.434 91.9048,125.434 92.4048,126.3 92.4048,126.3" fill="#0071bc" shape-rendering="crispEdges"/>
   <polygon points="182.333,135.487 181.333,135.487 180.833,134.621 181.333,133.755 182.333,133.755 182.833,134.621 182.833,134.621" fill="#0071bc" shape-rendering="crispEdges"/>
   <polygon points="336.308,201.91 335.308,201.91 334.808,201.044 335.308,200.178 336.308,200.178 336.808,201.044 336.808,201.044" fill="#0071bc" shape-rendering="crispEdges"/>
   <polygon points="423.441,361.716 422.441,361.716 421.941,360.85 422.441,359.984 423.441,359.984 423.941,360.85 423.941,360.85" fill="#0071bc" shape-rendering="crispEdges"/>
   <polygon points="118.748,59.3484 117.748,59.3484 117.248,58.4823 117.748,57.6163 118.748,57.6163 119.248,58.4823 119.248,58.4823" fill="#0071bc" shape-rendering="crispEdges"/>
   <polygon points="306.673,196.305 305.673,196.305 305.173,195.439 305.673,194.573 306.673,194.573 307.173,195.439 307.173,195.439" fill="#0071bc" shape-rendering="crispEdges"/>
   <polygon points="249.714,236.751 248.714,236.751 248.214,235.885 248.714,235.019 249.714,235.019 250.214,235.885 250.214,235.885" fill="#0071bc" shape-rendering="crispEdges"/>
   <polygon points="374.991,296.532 373.991,296.532 373.491,295.666 373.991,294.8 374.991,294.8 375.491,295.666 375.491,295.666" fill="#0071bc" shape-rendering="crispEdges"/>
   <polygon points="323.861,169.285 322.861,169.285 322.361,168.419 322.861,167.553 323.861,167.553 324.361,168.419 324.361,168.419" fill="#0071bc" shape-rendering="crispEdges"/>
   <polygon points="314.525,172.649 313.525,172.649 313.025,171.783 313.525,170.917 314.525,170.917 315.025,171.783 315.025,171.783" fill="#0071bc" shape-rendering="crispEdges"/>
   <polygon points="225.336,230.574 224.336,230.574 223.836,229.708 224.336,228.842 225.336,228.842 225.836,229.708 225.836,229.708" fill="#0071bc" shape-rendering="crispEdges"/>
   <polygon points="239.722,245.837 238.722,245.837 238.222,244.971 238.722,244.105 239.722,244.105 240.222,244.971 240.222,244.971" fill="#0071bc" shape-rendering="crispEdges"/>
   <polygon points="105.382,86.0757 104.382,86.0757 103.882,85.2097 104.382,84.3436 105.382,84.3436 105.882,85.2097 105.882,85.2097" fill="#0071bc" shape-rendering="crispEdges"/>
   <polygon points="436.814,350.613 435.814,350.613 435.314,349.747 435.814,348.881 436.814,348.881 437.314,349.747 437.314,349.747" fill="#0071bc" shape-rendering="crispEdges"/>
   <polygon points="169.285,92.5033 168.285,92.5033 167.785,91.6373 168.285,90.7713 169.285,90.7713 169.785,91.6373 169.785,91.6373" fill="#0071bc" shape-rendering="crispEdges"/>
   <polygon points="220.824,235.816 219.824,235.816 219.324,234.95 219.824,234.084 220.824,234.084 221.324,234.95 221.324,234.95" fill="#0071bc" shape-rendering="crispEdges"/>
   <polygon points="79.019,202.748 78.019,202.748 77.519,201.882 78.019,201.016 79.019,201.016 79.519,201.882 79.519,201.882" fill="#0071bc" shape-rendering="crispEdges"/>
   <polygon points="203.709,206.726 202.709,206.726 202.209,205.86 202.709,204.994 203.709,204.994 204.209,205.86 204.209,205.86" fill="#0071bc" shape-rendering="crispEdges"/>
   <polygon points="348.947,235.005 347.947,235.005 347.447,234.139 347.947,233.273 348.947,233.273 349.447,234.139 349.447,234.139" fill="#0071bc" shape-rendering="crispEdges"/>
   <polygon points="211.581,201.9 210.581,201.9 210.081,201.034 210.581,200.168 211.581,200.168 212.081,201.034 212.081,201.034" fill="#0071bc" shape-rendering="crispEdges"/>
   <polygon points="220.291,219.442 219.291,219.442 218.791,218.576 219.291,217.71 220.291,217.71 220.791,218.576 220.791,218.576" fill="#0071bc" shape-rendering="crispEdges"/>
   <polygon points="312.006,168.145 311.006,168.145 310.506,167.279 311.006,166.413 312.006,166.413 312.506,167.279 312.506,167.279" fill="#0071bc" shape-rendering="crispEdges"/>
   <polygon points="463.286,265.442 462.286,265.442 461.786,264.576 462.286,263.71 463.286,263.71 463.786,264.576 463.786,264.576" fill="#0071bc" shape-rendering="crispEdges"/>
   <polygon points="93.0755,127.122 92.0755,127.122 91.5755,126.256 92.0755,125.39 93.0755,125.39 93.5755,126.256 93.5755,126.256" fill="#0071bc" shape-rendering="crispEdges"/>
   <polygon points="456.816,286.543 455.816,286.543 455.316,285.677 455.816,284.81 456.816,284.81 457.316,285.677 457.316,285.677" fill="#0071bc" shape-rendering="crispEdges"/>
   <polygon points="76.9283,194.439 75.9283,194.439 75.4283,193.573 75.9283,192.707 76.9283,192.707 77.4283,193.573 77.4283,193.573" fill="#0071bc" shape-rendering="crispEdges"/>
   <polygon points="297.698,191.638 296.698,191.638 296.198,190.772 296.698,189.906 297.698,189.906 298.198,190.772 298.198,190.772" fill="#0071bc" shape-rendering="crispEdges"/>
   <polygon points="253.238,230.549 252.238,230.549 251.738,229.683 252.238,228.817 253.238,228.817 253.738,229.683 253.738,229.683" fill="#0071bc" shape-rendering="crispEdges"/>
   <polygon points="219.46,228.266 218.46,228.266 217.96,227.4 218.46,226.534 219.46,226.534 219.96,227.4 219.96,227.4" fill="#0071bc" shape-rendering="crispEdges"/>
   <polygon points="364.818,257.181 363.818,257.181 363.318,256.315 363.818,255.449 364.818,255.449 365.318,256.315 365.318,256.315" fill="#0071bc" shape-rendering="crispEdges"/>
   <polygon points="455.161,276.07 454.161,276.07 453.661,275.204 454.161,274.338 455.161,274.338 455.661,275.204 455.661,275.204" fill="#0071bc" shape-rendering="crispEdges"/>
   <polygon points="130.8,71.5698 129.8,71.5698 129.3,70.7038 129.8,69.8377 130.8,69.8377 131.3,70.7038 131.3,70.7038" fill="#0071bc" shape-rendering="crispEdges"/>
   <polygon points="255.505,246.885 254.505,246.885 254.005,246.019 254.505,245.153 255.505,245.153 256.005,246.019 256.005,246.019" fill="#0071bc" shape-rendering="crispEdges"/>
   <polygon points="275.072,205.392 274.072,205.392 273.572,204.526 274.072,203.66 275.072,203.66 275.572,204.526 275.572,204.526" fill="#0071bc" shape-rendering="crispEdges"/>
   <polygon points="155.026,78.0115 154.026,78.0115 153.526,77.1455 154.026,76.2794 155.026,76.2794 155.526,77.1455 155.526,77.1455" fill="#0071bc" shape-rendering="crispEdges"/>
   <polygon points="395.211,359.456 394.211,359.456 393.711,358.59 394.211,357.723 395.211,357.723 395.711,358.59 395.711,358.59" fill="#0071bc" shape-rendering="crispEdges"/>
   <polygon points="350.925,229.221 349.925,229.221 349.425,228.355 349.925,227.489 350.925,227.489 351.425,228.355 351.425,228.355" fill="#0071bc" shape-rendering="crispEdges"/>
   <polygon points="169.787,117.09 168.787,117.09 168.287,116.224 168.787,115.358 169.787,115.358 170.287,116.224 170.287,116.224" fill="#0071bc" shape-rendering="crispEdges"/>
   <polygon points="336.107,193.981 335.107,193.981 334.607,193.115 335.107,192.249 336.107,192.249 336.607,193.115 336.607,193.115" fill="#0071bc" shape-rendering="crispEdges"/>
   <polygon points="151.554,68.5132 150.554,68.5132 150.054,67.6472 150.554,66.7812 151.554,66.7812 152.054,67.6472 152.054,67.6472" fill="#0071bc" shape-rendering="crispEdges"/>
   <polygon points="226.501,252.353 225.501,252.353 225.001,251.487 225.501,250.621 226.501,250.621 227.001,251.487 227.001,251.487" fill="#0071bc" shape-rendering="crispEdges"/>
   <polygon points="116.241,78.5704 115.241,78.5704 114.741,77.7044 115.241,76.8383 116.241,76.8383 116.741,77.7044 116.741,77.7044" fill="#0071bc" shape-rendering="crispEdges"/>
   <polygon points="420.411,355.642 419.411,355.642 418.911,354.776 419.411,353.909 420.411,353.909 420.911,354.776 420.911,354.776" fill="#0071bc" shape-rendering="crispEdges"/>
   <polygon points="249.838,238.648 248.838,238.648 248.338,237.782 248.838,236.916 249.838,236.916 250.338,237.782 250.338,237.782" fill="#0071bc" shape-rendering="crispEdges"/>
   <polygon points="404.191,383.391 403.191,383.391 402.691,382.525 403.191,381.659 404.191,381.659 404.691,382.525 404.691,382.525" fill="#0071bc" shape-rendering="crispEdges"/>
   <polygon points="223.632,233.022 222.632,233.022 222.132,232.156 222.632,231.29 223.632,231.29 224.132,232.156 224.132,232.156" fill="#0071bc" shape-rendering="crispEdges"/>
   <polygon points="455.91,279.34 454.91,279.34 454.41,278.474 454.91,277.608 455.91,277.608 456.41,278.474 456.41,278.474" fill="#0071bc" shape-rendering="crispEdges"/>
   <polygon points="89.0789,154.804 88.0789,154.804 87.5789,153.938 88.0789,153.072 89.0789,153.072 89.5789,153.938 89.5789,153.938" fill="#0071bc" shape-rendering="crispEdges"/>
   <polygon points="247.335,243.69 246.335,243.69 245.835,242.824 246.335,241.958 247.335,241.958 247.835,242.824 247.835,242.824" fill="#0071bc" shape-rendering="crispEdges"/>
   <polygon points="310.588,161.247 309.588,161.247 309.088,160.381 309.588,159.515 310.588,159.515 311.088,160.381 311.088,160.381" fill="#0071bc" shape-rendering="crispEdges"/>
   <polygon points="165.403,104.027 164.403,104.027 163.903,103.161 164.403,102.295 165.403,102.295 165.903,103.161 165.903,103.161" fill="#0071bc" shape-rendering="crispEdges"/>
   <polygon points="147.773,58.6414 146.773,58.6414 146.273,57.7755 146.773,56.9094 147.773,56.9094 148.273,57.7755 148.273,57.7755" fill="#0071bc" shape-rendering="crispEdges"/>
   <polygon points="271.247,201.659 270.247,201.659 269.747,200.793 270.247,199.927 271.247,199.927 271.747,200.793 271.747,200.793" fill="#0071bc" shape-rendering="crispEdges"/>
   <polygon points="196.686,181.216 195.686,181.216 195.186,180.35 195.686,179.484 196.686,179.484 197.186,180.35 197.186,180.35" fill="#0071bc" shape-rendering="crispEdges"/>
   <polygon points="349.062,219.155 348.062,219.155 347.562,218.289 348.062,217.423 349.062,217.423 349.562,218.289 349.562,218.289" fill="#0071bc" shape-rendering="crispEdges"/>
   <polygon points="198.604,183.017 197.604,183.017 197.104,182.151 197.604,181.285 198.604,181.285 199.104,182.151 199.104,182.151" fill="#0071bc" shape-rendering="crispEdges"/>
   <polygon points="212.567,221.22 211.567,221.22 211.067,220.354 211.567,219.488 212.567,219.488 213.067,220.354 213.067,220.354" fill="#0071bc" shape-rendering="crispEdges"/>
   <polygon points="147.878,64.6914 146.878,64.6914 146.378,63.8253 146.878,62.9593 147.878,62.9593 148.378,63.8253 148.378,63.8253" fill="#0071bc" shape-rendering="crispEdges"/>
   <polygon points="340.807,201.601 339.807,201.601 339.307,200.735 339.807,199.869 340.807,199.869 341.307,200.735 341.307,200.735" fill="#0071bc" shape-rendering="crispEdges"/>
   <polygon points="167.013,92.3466 166.013,92.3466 165.513,91.4805 166.013,90.6145 167.013,90.6145 167.513,91.4805 167.513,91.4805" fill="#0071bc" shape-rendering="crispEdges"/>
   <polygon points="260.046,227.347 259.046,227.347 258.546,226.481 259.046,225.615 260.046,225.615 260.546,226.481 260.546,226.481" fill="#0071bc" shape-rendering="crispEdges"/>
   <polygon points="137.394,61.8142 136.394,61.8142 135.894,60.9482 136.394,60.0822 137.394,60.0822 137.894,60.9482 137.894,60.9482" fill="#0071bc" shape-rendering="crispEdges"/>
   <polygon points="455.391,293.444 454.391,293.444 453.891,292.578 454.391,291.712 455.391,291.712 455.891,292.578 455.891,292.578" fill="#0071bc" shape-rendering="crispEdges"/>
   <polygon points="241.338,238.297 240.338,238.297 239.838,237.431 240.338,236.565 241.338,236.565 241.838,237.431 241.838,237.431" fill="#0071bc" shape-rendering="crispEdges"/>
   <polygon points="80.9966,181.313 79.9966,181.313 79.4966,180.447 79.9966,179.581 80.9966,179.581 81.4966,180.447 81.4966,180.447" fill="#0071bc" shape-rendering="crispEdges"/>
   <polygon points="457.535,285.957 456.535,285.957 456.035,285.091 456.535,284.225 457.535,284.225 458.035,285.091 458.035,285.091" fill="#0071bc" shape-rendering="crispEdges"/>
   <polygon points="354.385,235.962 353.385,235.962 352.885,235.096 353.385,234.23 354.385,234.23 354.885,235.096 354.885,235.096" fill="#0071bc" shape-rendering="crispEdges"/>
   <polygon points="409.892,371.912 408.892,371.912 408.392,371.046 408.892,370.18 409.892,370.18 410.392,371.046 410.392,371.046" fill="#0071bc" shape-rendering="crispEdges"/>
   <polygon points="134.516,48.14 133.516,48.14 133.016,47.274 133.516,46.4079 134.516,46.4079 135.016,47.274 135.016,47.274" fill="#0071bc" shape-rendering="crispEdges"/>
   <polygon points="197.475,199.747 196.475,199.747 195.975,198.881 196.475,198.015 197.475,198.015 197.975,198.881 197.975,198.881" fill="#0071bc" shape-rendering="crispEdges"/>
   <polygon points="465.686,251.735 464.686,251.735 464.186,250.869 464.686,250.003 465.686,250.003 466.186,250.869 466.186,250.869" fill="#0071bc" shape-rendering="crispEdges"/>
   <polygon points="326.318,186.806 325.318,186.806 324.818,185.94 325.318,185.074 326.318,185.074 326.818,185.94 326.818,185.94" fill="#0071bc" shape-rendering="crispEdges"/>
   <polygon points="264.947,219.066 263.947,219.066 263.447,218.2 263.947,217.334 264.947,217.334 265.447,218.2 265.447,218.2" fill="#0071bc" shape-rendering="crispEdges"/>
   <polygon points="415.946,368.2 414.946,368.2 414.446,367.334 414.946,366.468 415.946,366.468 416.446,367.334 416.446,367.334" fill="#0071bc" shape-rendering="crispEdges"/>
   <polygon points="273.725,218.494 272.725,218.494 272.225,217.628 272.725,216.762 273.725,216.762 274.225,217.628 274.225,217.628" fill="#0071bc" shape-rendering="crispEdges"/>
   <polygon points="162.754,95.1858 161.754,95.1858 161.254,94.3198 161.754,93.4538 162.754,93.4538 163.254,94.3198 163.254,94.3198" fill="#0071bc" shape-rendering="crispEdges"/>
   <polygon points="118.938,84.031 117.938,84.031 117.438,83.165 117.938,82.299 118.938,82.299 119.438,83.165 119.438,83.165" fill="#0071bc" shape-rendering="crispEdges"/>
   <polygon points="178.18,122.457 177.18,122.457 176.68,121.591 177.18,120.725 178.18,120.725 178.68,121.591 178.68,121.591" fill="#0071bc" shape-rendering="crispEdges"/>
   <polygon points="344.023,222.594 343.023,222.594 342.523,221.728 343.023,220.862 344.023,220.862 344.523,221.728 344.523,221.728" fill="#0071bc" shape-rendering="crispEdges"/>
   <polygon points="473.776,213.228 472.776,213.228 472.276,212.362 472.776,211.496 473.776,211.496 474.276,212.362 474.276,212.362" fill="#0071bc" shape-rendering="crispEdges"/>
   <polygon points="397.6,350.965 396.6,350.965 396.1,350.099 396.6,349.233 397.6,349.233 398.1,350.099 398.1,350.099" fill="#0071bc" shape-rendering="crispEdges"/>
   <polygon points="434.963,343.564 433.963,343.564 433.463,342.698 433.963,341.832 434.963,341.832 435.463,342.698 435.463,342.698" fill="#0071bc" shape-rendering="crispEdges"/>
   <polygon points="110.698,87.666 109.698,87.666 109.198,86.8 109.698,85.934 110.698,85.934 111.198,86.8 111.198,86.8" fill="#0071bc" shape-rendering="crispEdges"/>
   <polygon points="123.607,48.4186 122.607,48.4186 122.107,47.5526 122.607,46.6866 123.607,46.6866 124.107,47.5526 124.107,47.5526" fill="#0071bc" shape-rendering="crispEdges"/>
   <polygon points="375.439,284.051 374.439,284.051 373.939,283.185 374.439,282.319 375.439,282.319 375.939,283.185 375.939,283.185" fill="#0071bc" shape-rendering="crispEdges"/>
   <polygon points="175.071,112.531 174.071,112.531 173.571,111.665 174.071,110.799 175.071,110.799 175.571,111.665 175.571,111.665" fill="#0071bc" shape-rendering="crispEdges"/>
   <polygon points="276.826,212.078 275.826,212.078 275.326,211.212 275.826,210.346 276.826,210.346 277.326,211.212 277.326,211.212" fill="#0071bc" shape-rendering="crispEdges"/>
   <polygon points="388.816,325.645 387.816,325.645 387.316,324.779 387.816,323.913 388.816,323.913 389.316,324.779 389.316,324.779" fill="#0071bc" shape-rendering="crispEdges"/>
   <polygon points="86.7317,168.752 85.7317,168.752 85.2317,167.886 85.7317,167.02 86.7317,167.02 87.2317,167.886 87.2317,167.886" fill="#0071bc" shape-rendering="crispEdges"/>
   <polygon points="374.644,287.529 373.644,287.529 373.144,286.663 373.644,285.797 374.644,285.797 375.144,286.663 375.144,286.663" fill="#0071bc" shape-rendering="crispEdges"/>
   <polygon points="109.953,95.5046 108.953,95.5046 108.453,94.6386 108.953,93.7726 109.953,93.7726 110.453,94.6386 110.453,94.6386" fill="#0071bc" shape-rendering="crispEdges"/>
   <polygon points="349.974,236.194 348.974,236.194 348.474,235.328 348.974,234.461 349.974,234.461 350.474,235.328 350.474,235.328" fill="#0071bc" shape-rendering="crispEdges"/>
   <polygon points="448.903,299.379 447.903,299.379 447.403,298.513 447.903,297.647 448.903,297.647 449.403,298.513 449.403,298.513" fill="#0071bc" shape-rendering="crispEdges"/>
   <polygon points="104.814,99.1823 103.814,99.1823 103.314,98.3163 103.814,97.4503 104.814,97.4503 105.314,98.3163 105.314,98.3163" fill="#0071bc" shape-rendering="crispEdges"/>
   <polygon points="348.517,209.66 347.517,209.66 347.017,208.794 347.517,207.928 348.517,207.928 349.017,208.794 349.017,208.794" fill="#0071bc" shape-rendering="crispEdges"/>
   <polygon points="290.587,194.228 289.587,194.228 289.087,193.362 289.587,192.496 290.587,192.496 291.087,193.362 291.087,193.362" fill="#0071bc" shape-rendering="crispEdges"/>
   <polygon points="82.1914,168.739 81.1914,168.739 80.6914,167.873 81.1914,167.007 82.1914,167.007 82.6914,167.873 82.6914,167.873" fill="#0071bc" shape-rendering="crispEdges"/>
   <polygon points="317.24,195.795 316.24,195.795 315.74,194.929 316.24,194.063 317.24,194.063 317.74,194.929 317.74,194.929" fill="#0071bc" shape-rendering="crispEdges"/>
   <polygon points="95.0004,137.181 94.0004,137.181 93.5004,136.315 94.0004,135.449 95.0004,135.449 95.5004,136.315 95.5004,136.315" fill="#0071bc" shape-rendering="crispEdges"/>
   <polygon points="178.136,133.142 177.136,133.142 176.636,132.276 177.136,131.41 178.136,131.41 178.636,132.276 178.636,132.276" fill="#0071bc" shape-rendering="crispEdges"/>
   <polygon points="138.151,55.9239 137.151,55.9239 136.651,55.0579 137.151,54.1919 138.151,54.1919 138.651,55.0579 138.651,55.0579" fill="#0071bc" shape-rendering="crispEdges"/>
   <polygon points="352.335,237.548 351.335,237.548 350.835,236.682 351.335,235.816 352.335,235.816 352.835,236.682 352.835,236.682" fill="#0071bc" shape-rendering="crispEdges"/>
   <polygon points="431.122,341.635 430.122,341.635 429.622,340.769 430.122,339.903 431.122,339.903 431.622,340.769 431.622,340.769" fill="#0071bc" shape-rendering="crispEdges"/>
   <polygon points="374.935,306.156 373.935,306.156 373.435,305.29 373.935,304.424 374.935,304.424 375.435,305.29 375.435,305.29" fill="#0071bc" shape-rendering="crispEdges"/>
   <polygon points="221.807,235.135 220.807,235.135 220.307,234.269 220.807,233.403 221.807,233.403 222.307,234.269 222.307,234.269" fill="#0071bc" shape-rendering="crispEdges"/>
   <polygon points="185.717,165.024 184.717,165.024 184.217,164.158 184.717,163.292 185.717,163.292 186.217,164.158 186.217,164.158" fill="#0071bc" shape-rendering="crispEdges"/>
   <polygon points="471.143,235.088 470.143,235.088 469.643,234.222 470.143,233.356 471.143,233.356 471.643,234.222 471.643,234.222" fill="#0071bc" shape-rendering="crispEdges"/>
   <polygon points="393.783,338.871 392.783,338.871 392.283,338.005 392.783,337.139 393.783,337.139 394.283,338.005 394.283,338.005" fill="#0071bc" shape-rendering="crispEdges"/>
   <polygon points="79.9937,173.513 78.9937,173.513 78.4937,172.647 78.9937,171.781 79.9937,171.781 80.4937,172.647 80.4937,172.647" fill="#0071bc" shape-rendering="crispEdges"/>
   <polygon points="460.437,275.004 459.437,275.004 458.937,274.138 459.437,273.272 460.437,273.272 460.937,274.138 460.937,274.138" fill="#0071bc" shape-rendering="crispEdges"/>
   <polygon points="352.559,217.616 351.559,217.616 351.059,216.75 351.559,215.884 352.559,215.884 353.059,216.75 353.059,216.75" fill="#0071bc" shape-rendering="crispEdges"/>
   <polygon points="394.481,333.535 393.481,333.535 392.981,332.669 393.481,331.803 394.481,331.803 394.981,332.669 394.981,332.669" fill="#0071bc" shape-rendering="crispEdges"/>
   <polygon points="290.259,195.107 289.259,195.107 288.759,194.241 289.259,193.375 290.259,193.375 290.759,194.241 290.759,194.241" fill="#0071bc" shape-rendering="crispEdges"/>
   <polygon points="85.9431,164.952 84.9431,164.952 84.4431,164.086 84.9431,163.22 85.9431,163.22 86.4431,164.086 86.4431,164.086" fill="#0071bc" shape-rendering="crispEdges"/>
   <polygon points="116.161,74.83 115.161,74.83 114.661,73.964 115.161,73.098 116.161,73.098 116.661,73.964 116.661,73.964" fill="#0071bc" shape-rendering="crispEdges"/>
   <polygon points="378.103,310.403 377.103,310.403 376.603,309.537 377.103,308.671 378.103,308.671 378.603,309.537 378.603,309.537" fill="#0071bc" shape-rendering="crispEdges"/>
   <polygon points="400.685,351.542 399.685,351.542 399.185,350.676 399.685,349.81 400.685,349.81 401.185,350.676 401.185,350.676" fill="#0071bc" shape-rendering="crispEdges"/>
   <polygon points="130.307,60.4386 129.307,60.4386 128.807,59.5726 129.307,58.7065 130.307,58.7065 130.807,59.5726 130.807,59.5726" fill="#0071bc" shape-rendering="crispEdges"/>
   <polygon points="403.358,348.589 402.358,348.589 401.858,347.723 402.358,346.857 403.358,346.857 403.858,347.723 403.858,347.723" fill="#0071bc" shape-rendering="crispEdges"/>
   <polygon points="431.007,361.942 430.007,361.942 429.507,361.076 430.007,360.21 431.007,360.21 431.507,361.076 431.507,361.076" fill="#0071bc" shape-rendering="crispEdges"/>
   <polygon points="439.45,332.398 438.45,332.398 437.95,331.532 438.45,330.666 439.45,330.666 439.95,331.532 439.95,331.532" fill="#0071bc" shape-rendering="crispEdges"/>
   <polygon points="216.527,216.655 215.527,216.655 215.027,215.789 215.527,214.923 216.527,214.923 217.027,215.789 217.027,215.789" fill="#0071bc" shape-rendering="crispEdges"/>
   <polygon points="334.506,188.745 333.506,188.745 333.006,187.879 333.506,187.013 334.506,187.013 335.006,187.879 335.006,187.879" fill="#0071bc" shape-rendering="crispEdges"/>
   <polygon points="428.522,347.756 427.522,347.756 427.022,346.89 427.522,346.024 428.522,346.024 429.022,346.89 429.022,346.89" fill="#0071bc" shape-rendering="crispEdges"/>
   <polygon points="80.7978,192.338 79.7978,192.338 79.2978,191.472 79.7978,190.606 80.7978,190.606 81.2978,191.472 81.2978,191.472" fill="#0071bc" shape-rendering="crispEdges"/>
   <polygon points="96.6118,129.423 95.6118,129.423 95.1119,128.557 95.6118,127.691 96.6118,127.691 97.1118,128.557 97.1118,128.557" fill="#0071bc" shape-rendering="crispEdges"/>
   <polygon points="191.082,169.673 190.082,169.673 189.582,168.807 190.082,167.941 191.082,167.941 191.582,168.807 191.582,168.807" fill="#0071bc" shape-rendering="crispEdges"/>
   <polygon points="181.547,123.254 180.547,123.254 180.047,122.388 180.547,121.522 181.547,121.522 182.047,122.388 182.047,122.388" fill="#0071bc" shape-rendering="crispEdges"/>
   <polygon points="320.926,165.04 319.926,165.04 319.426,164.174 319.926,163.308 320.926,163.308 321.426,164.174 321.426,164.174" fill="#0071bc" shape-rendering="crispEdges"/>
   <polygon points="281.185,205.26 280.185,205.26 279.685,204.393 280.185,203.527 281.185,203.527 281.685,204.393 281.685,204.393" fill="#0071bc" shape-rendering="crispEdges"/>
   <polygon points="103.048,107.236 102.048,107.236 101.548,106.37 102.048,105.503 103.048,105.503 103.548,106.37 103.548,106.37" fill="#0071bc" shape-rendering="crispEdges"/>
   <polygon points="316.862,167.411 315.862,167.411 315.362,166.545 315.862,165.679 316.862,165.679 317.362,166.545 317.362,166.545" fill="#0071bc" shape-rendering="crispEdges"/>
   <polygon points="153.691,69.8475 152.691,69.8475 152.191,68.9815 152.691,68.1155 153.691,68.1155 154.191,68.9815 154.191,68.9815" fill="#0071bc" shape-rendering="crispEdges"/>
   <polyline stroke="#d85218" stroke-linecap="butt" points="74.88,134.665 75.8842,134.665 76.8885,134.665 77.8927,134.665 78.8969,134.665 79.9011,134.665 80.9054,134.665 81.9096,134.665 82.9138,134.665 83.9181,134.665 84.9223,134.665 85.9265,134.665 86.9308,134.665 87.935,134.665 88.9392,134.665 89.9434,134.665 90.9477,134.665 91.9519,134.665 92.9561,134.665 93.9604,134.665 94.9646,134.665 95.9688,134.665 96.9731,134.665 97.9773,134.665 98.9815,134.665 99.9857,134.665 100.99,134.665 101.994,134.665 102.998,134.665 104.003,134.665 105.007,134.665 106.011,134.665 107.015,134.665 108.02,134.665 109.024,134.665 110.028,134.665 111.032,134.665 112.036,134.665 113.041,134.665 114.045,134.665 115.049,134.665 116.053,74.281 117.058,74.281 118.062,74.281 119.066,74.281 120.07,74.281 121.075,74.281 122.079,74.281 123.083,74.281 124.087,74.281 125.091,74.281 126.096,74.281 127.1,74.281 128.104,74.281 129.108,74.281 130.113,74.281 131.117,74.281 132.121,74.281 133.125,74.281 134.13,74.281 135.134,74.281 136.138,74.281 137.142,74.281 138.146,74.281 139.151,74.281 140.155,74.281 141.159,74.281 142.163,74.281 143.168,74.281 144.172,74.281 145.176,74.281 146.18,74.281 147.185,74.281 148.189,74.281 149.193,74.281 150.197,74.281 151.201,74.281 152.206,74.281 153.21,74.281 154.214,74.281 155.218,74.281 156.223,74.281 157.227,74.281 158.231,74.281 159.235,74.281 160.24,74.281 161.244,74.281 162.248,74.281 163.252,74.281 164.256,74.281 165.261,74.281 166.265,74.281 167.269,74.281 168.273,74.281 169.278,74.281 170.282,74.281 171.286,74.281 172.29,74.281 173.295,74.281 174.299,74.281 175.303,74.281 176.307,189.169 177.311,189.169 178.316,189.169 179.32,189.169 180.324,189.169 181.328,189.169 182.333,189.169 183.337,189.169 184.341,189.169 185.345,189.169 186.35,189.169 187.354,189.169 188.358,189.169 189.362,189.169 190.366,189.169 191.371,189.169 192.375,189.169 193.379,189.169 194.383,189.169 195.388,189.169 196.392,189.169 197.396,189.169 198.4,189.169 199.404,189.169 200.409,189.169 201.413,189.169 202.417,189.169 203.421,189.169 204.426,189.169 205.43,189.169 206.434,189.169 207.438,189.169 208.443,189.169 209.447,189.169 210.451,189.169 211.455,189.169 212.459,189.169 213.464,189.169 214.468,189.169 215.472,189.169 216.476,189.169 217.481,189.169 218.485,189.169 219.489,189.169 220.493,189.169 221.498,189.169 222.502,228.834 223.506,228.834 224.51,228.834 225.514,228.834 226.519,228.834 227.523,228.834 228.527,228.834 229.531,228.834 230.536,228.834 231.54,228.834 232.544,228.834 233.548,228.834 234.553,228.834 235.557,228.834 236.561,228.834 237.565,228.834 238.569,228.834 239.574,228.834 240.578,228.834 241.582,228.834 242.586,228.834 243.591,228.834 244.595,228.834 245.599,228.834 246.603,228.834 247.608,228.834 248.612,228.834 249.616,228.834 250.62,228.834 251.624,228.834 252.629,228.834 253.633,228.834 254.637,228.834 255.641,228.834 256.646,228.834 257.65,228.834 258.654,228.834 259.658,228.834 260.663,228.834 261.667,228.834 262.671,228.834 263.675,228.834 264.679,228.834 265.684,228.834 266.688,228.834 267.692,228.834 268.696,228.834 269.701,228.834 270.705,228.834 271.709,228.834 272.713,228.834 273.717,228.834 274.722,228.834 275.726,228.834 276.73,228.834 277.734,228.834 278.739,228.834 279.743,228.834 280.747,228.834 281.751,228.834 282.756,228.834 283.76,228.834 284.764,228.834 285.768,228.834 286.772,228.834 287.777,228.834 288.781,228.834 289.785,228.834 290.789,183.181 291.794,183.181 292.798,183.181 293.802,183.181 294.806,183.181 295.811,183.181 296.815,183.181 297.819,183.181 298.823,183.181 299.827,183.181 300.832,183.181 301.836,183.181 302.84,183.181 303.844,183.181 304.849,183.181 305.853,183.181 306.857,183.181 307.861,183.181 308.866,183.181 309.87,183.181 310.874,183.181 311.878,183.181 312.882,183.181 313.887,183.181 314.891,183.181 315.895,183.181 316.899,183.181 317.904,183.181 318.908,183.181 319.912,183.181 320.916,183.181 321.921,183.181 322.925,183.181 323.929,183.181 324.933,183.181 325.937,183.181 326.942,183.181 327.946,183.181 328.95,183.181 329.954,183.181 330.959,183.181 331.963,183.181 332.967,183.181 333.971,183.181 334.976,183.181 335.98,183.181 336.984,183.181 337.988,183.181 338.992,183.181 339.997,259.855 341.001,259.855 342.005,259.855 343.009,259.855 344.014,259.855 345.018,259.855 346.022,259.855 347.026,259.855 348.031,259.855 349.035,259.855 350.039,259.855 351.043,259.855 352.047,259.855 353.052,259.855 354.056,259.855 355.06,259.855 356.064,259.855 357.069,259.855 358.073,259.855 359.077,259.855 360.081,259.855 361.086,259.855 362.09,259.855 363.094,259.855 364.098,259.855 365.102,259.855 366.107,259.855 367.111,259.855 368.115,259.855 369.119,259.855 370.124,259.855 371.128,259.855 372.132,259.855 373.136,259.855 374.14,259.855 375.145,259.855 376.149,259.855 377.153,259.855 378.157,259.855 379.162,259.855 380.166,259.855 381.17,259.855 382.174,259.855 383.179,259.855 384.183,259.855 385.187,259.855 386.191,259.855 387.195,259.855 388.2,259.855 389.204,259.855 390.208,259.855 391.212,259.855 392.217,259.855 393.221,259.855 394.225,353.077 395.229,353.077 396.234,353.077 397.238,353.077 398.242,353.077 399.246,353.077 400.25,353.077 401.255,353.077 402.259,353.077 403.263,353.077 404.267,353.077 405.272,353.077 406.276,353.077 407.28,353.077 408.284,353.077 409.289,353.077 410.293,353.077 411.297,353.077 412.301,353.077 413.305,353.077 414.31,353.077 415.314,353.077 416.318,353.077 417.322,353.077 418.327,353.077 419.331,353.077 420.335,353.077 421.339,353.077 422.344,353.077 423.348,353.077 424.352,353.077 425.356,353.077 426.36,353.077 427.365,353.077 428.369,353.077 429.373,353.077 430.377,289.296 431.382,289.296 432.386,289.296 433.39,289.296 434.394,289.296 435.399,289.296 436.403,289.296 437.407,289.296 438.411,289.296 439.415,289.296 440.42,289.296 441.424,289.296 442.428,289.296 443.432,289.296 444.437,289.296 445.441,289.296 446.445,289.296 447.449,289.296 448.453,289.296 449.458,289.296 450.462,289.296 451.466,289.296 452.47,289.296 453.475,289.296 454.479,289.296 455.483,289.296 456.487,289.296 457.492,289.296 458.496,289.296 459.5,289.296 460.504,289.296 461.508,289.296 462.513,289.296 463.517,289.296 464.521,289.296 465.525,289.296 466.53,289.296 467.534,289.296 468.538,289.296 469.542,289.296 470.547,289.296 471.551,289.296 472.555,289.296 473.559,289.296 474.563,289.296 475.568,289.296" stroke-linejoin="round" fill="none" stroke-width="0.5"/>
   <polyline stroke="#ecb01f" stroke-linecap="butt" points="74.88,203.287 75.8842,199.526 76.8885,195.766 77.8927,192.005 78.8969,188.244 79.9011,184.483 80.9054,180.723 81.9096,176.962 82.9138,173.201 83.9181,169.44 84.9223,165.68 85.9265,161.919 86.9308,158.158 87.935,154.397 88.9392,150.636 89.9434,146.876 90.9477,143.115 91.9519,139.354 92.9561,135.593 93.9604,131.833 94.9646,128.072 95.9688,124.311 96.9731,120.55 97.9773,116.79 98.9815,113.029 99.9857,109.268 100.99,105.507 101.994,101.747 102.998,97.9859 104.003,94.2251 105.007,90.4643 106.011,86.7036 107.015,82.9428 108.02,79.1821 109.024,75.4213 110.028,71.6606 111.032,67.8998 112.036,64.139 113.041,60.3783 114.045,56.6175 115.049,52.8568 116.053,50.6281 117.058,51.6404 118.062,52.6528 119.066,53.6652 120.07,54.6776 121.075,55.6899 122.079,56.7023 123.083,57.7147 124.087,58.7271 125.091,59.7394 126.096,60.7518 127.1,61.7642 128.104,62.7766 129.108,63.7889 130.113,64.8013 131.117,65.8137 132.121,66.826 133.125,67.8384 134.13,68.8508 135.134,69.8632 136.138,70.8755 137.142,71.8879 138.146,72.9003 139.151,73.9127 140.155,74.925 141.159,75.9374 142.163,76.9498 143.168,77.9622 144.172,78.9745 145.176,79.9869 146.18,80.9993 147.185,82.0117 148.189,83.024 149.193,84.0364 150.197,85.0488 151.201,86.0612 152.206,87.0735 153.21,88.0859 154.214,89.0983 155.218,90.1107 156.223,91.123 157.227,92.1354 158.231,93.1478 159.235,94.1602 160.24,95.1725 161.244,96.1849 162.248,97.1973 163.252,98.2096 164.256,99.222 165.261,100.234 166.265,101.247 167.269,102.259 168.273,103.272 169.278,104.284 170.282,105.296 171.286,106.309 172.29,107.321 173.295,108.333 174.299,109.346 175.303,110.358 176.307,111.686 177.311,114.701 178.316,117.716 179.32,120.731 180.324,123.746 181.328,126.761 182.333,129.775 183.337,132.79 184.341,135.805 185.345,138.82 186.35,141.835 187.354,144.85 188.358,147.865 189.362,150.88 190.366,153.895 191.371,156.91 192.375,159.924 193.379,162.939 194.383,165.954 195.388,168.969 196.392,171.984 197.396,174.999 198.4,178.014 199.404,181.029 200.409,184.044 201.413,187.059 202.417,190.073 203.421,193.088 204.426,196.103 205.43,199.118 206.434,202.133 207.438,205.148 208.443,208.163 209.447,211.178 210.451,214.193 211.455,217.207 212.459,220.222 213.464,223.237 214.468,226.252 215.472,229.267 216.476,232.282 217.481,235.297 218.485,238.312 219.489,241.327 220.493,244.342 221.498,247.356 222.502,250.161 223.506,249.259 224.51,248.356 225.514,247.454 226.519,246.551 227.523,245.649 228.527,244.747 229.531,243.844 230.536,242.942 231.54,242.039 232.544,241.137 233.548,240.234 234.553,239.332 235.557,238.43 236.561,237.527 237.565,236.625 238.569,235.722 239.574,234.82 240.578,233.917 241.582,233.015 242.586,232.113 243.591,231.21 244.595,230.308 245.599,229.405 246.603,228.503 247.608,227.6 248.612,226.698 249.616,225.796 250.62,224.893 251.624,223.991 252.629,223.088 253.633,222.186 254.637,221.283 255.641,220.381 256.646,219.479 257.65,218.576 258.654,217.674 259.658,216.771 260.663,215.869 261.667,214.966 262.671,214.064 263.675,213.162 264.679,212.259 265.684,211.357 266.688,210.454 267.692,209.552 268.696,208.649 269.701,207.747 270.705,206.845 271.709,205.942 272.713,205.04 273.717,204.137 274.722,203.235 275.726,202.332 276.73,201.43 277.734,200.528 278.739,199.625 279.743,198.723 280.747,197.82 281.751,196.918 282.756,196.016 283.76,195.113 284.764,194.211 285.768,193.308 286.772,192.406 287.777,191.503 288.781,190.601 289.785,189.699 290.789,189.571 291.794,189.566 292.798,189.562 293.802,189.558 294.806,189.553 295.811,189.549 296.815,189.544 297.819,189.54 298.823,189.535 299.827,189.531 300.832,189.526 301.836,189.522 302.84,189.517 303.844,189.513 304.849,189.508 305.853,189.504 306.857,189.5 307.861,189.495 308.866,189.491 309.87,189.486 310.874,189.482 311.878,189.477 312.882,189.473 313.887,189.468 314.891,189.464 315.895,189.459 316.899,189.455 317.904,189.45 318.908,189.446 319.912,189.441 320.916,189.437 321.921,189.433 322.925,189.428 323.929,189.424 324.933,189.419 325.937,189.415 326.942,189.41 327.946,189.406 328.95,189.401 329.954,189.397 330.959,189.392 331.963,189.388 332.967,189.383 333.971,189.379 334.976,189.374 335.98,189.37 336.984,189.366 337.988,189.361 338.992,189.357 339.997,191.063 341.001,193.992 342.005,196.921 343.009,199.85 344.014,202.779 345.018,205.708 346.022,208.637 347.026,211.566 348.031,214.495 349.035,217.424 350.039,220.353 351.043,223.282 352.047,226.211 353.052,229.14 354.056,232.069 355.06,234.998 356.064,237.927 357.069,240.856 358.073,243.785 359.077,246.714 360.081,249.643 361.086,252.572 362.09,255.501 363.094,258.43 364.098,261.359 365.102,264.288 366.107,267.217 367.111,270.146 368.115,273.075 369.119,276.004 370.124,278.933 371.128,281.862 372.132,284.791 373.136,287.72 374.14,290.649 375.145,293.578 376.149,296.507 377.153,299.436 378.157,302.365 379.162,305.294 380.166,308.223 381.17,311.152 382.174,314.081 383.179,317.01 384.183,319.939 385.187,322.868 386.191,325.797 387.195,328.726 388.2,331.655 389.204,334.584 390.208,337.513 391.212,340.442 392.217,343.371 393.221,346.3 394.225,347.969 395.229,348.325 396.234,348.681 397.238,349.037 398.242,349.393 399.246,349.749 400.25,350.105 401.255,350.461 402.259,350.817 403.263,351.173 404.267,351.529 405.272,351.885 406.276,352.242 407.28,352.598 408.284,352.954 409.289,353.31 410.293,353.666 411.297,354.022 412.301,354.378 413.305,354.734 414.31,355.09 415.314,355.446 416.318,355.802 417.322,356.158 418.327,356.514 419.331,356.87 420.335,357.226 421.339,357.582 422.344,357.938 423.348,358.294 424.352,358.65 425.356,359.006 426.36,359.362 427.365,359.718 428.369,360.074 429.373,360.43 430.377,359.434 431.382,356.354 432.386,353.274 433.39,350.194 434.394,347.113 435.399,344.033 436.403,340.953 437.407,337.873 438.411,334.793 439.415,331.713 440.42,328.633 441.424,325.553 442.428,322.473 443.432,319.393 444.437,316.313 445.441,313.232 446.445,310.152 447.449,307.072 448.453,303.992 449.458,300.912 450.462,297.832 451.466,294.752 452.47,291.672 453.475,288.592 454.479,285.512 455.483,282.432 456.487,279.351 457.492,276.271 458.496,273.191 459.5,270.111 460.504,267.031 461.508,263.951 462.513,260.871 463.517,257.791 464.521,254.711 465.525,251.631 466.53,248.551 467.534,245.471 468.538,242.39 469.542,239.31 470.547,236.23 471.551,233.15 472.555,230.07 473.559,226.99 474.563,223.91 475.568,220.83" stroke-linejoin="round" fill="none" stroke-width="0.5"/>
   <polyline stroke="#7d2e8d" stroke-linecap="butt" points="74.88,206.677 75.8842,201.993 76.8885,197.378 77.8927,192.833 78.8969,188.358 79.9011,183.952 80.9054,179.615 81.9096,175.348 82.9138,171.151 83.9181,167.023 84.9223,162.965 85.9265,158.976 86.9308,155.056 87.935,151.207 88.9392,147.427 89.9434,143.716 90.9477,140.075 91.9519,136.503 92.9561,133.002 93.9604,129.569 94.9646,126.206 95.9688,122.913 96.9731,119.689 97.9773,116.535 98.9815,113.45 99.9857,110.435 100.99,107.489 101.994,104.613 102.998,101.807 104.003,99.0699 105.007,96.4025 106.011,93.8047 107.015,91.2763 108.02,88.8176 109.024,86.4283 110.028,84.1087 111.032,81.8585 112.036,79.6779 113.041,77.5669 114.045,75.5254 115.049,73.5534 116.053,71.6522 117.058,69.8375 118.062,68.1146 119.066,66.4833 120.07,64.9438 121.075,63.496 122.079,62.14 123.083,60.8756 124.087,59.7029 125.091,58.622 126.096,57.6328 127.1,56.7353 128.104,55.9295 129.108,55.2155 130.113,54.5931 131.117,54.0625 132.121,53.6235 133.125,53.2763 134.13,53.0209 135.134,52.8571 136.138,52.785 137.142,52.8047 138.146,52.9161 139.151,53.1192 140.155,53.414 141.159,53.8005 142.163,54.2788 143.168,54.8487 144.172,55.5104 145.176,56.2638 146.18,57.1089 147.185,58.0457 148.189,59.0743 149.193,60.1945 150.197,61.4065 151.201,62.7102 152.206,64.1056 153.21,65.5927 154.214,67.1716 155.218,68.8422 156.223,70.6044 157.227,72.4584 158.231,74.4041 159.235,76.4415 160.24,78.5707 161.244,80.7915 162.248,83.1041 163.252,85.5084 164.256,88.0044 165.261,90.5921 166.265,93.2715 167.269,96.0427 168.273,98.9056 169.278,101.86 170.282,104.906 171.286,108.044 172.29,111.274 173.295,114.596 174.299,118.009 175.303,121.514 176.307,125.108 177.311,128.697 178.316,132.227 179.32,135.697 180.324,139.108 181.328,142.46 182.333,145.752 183.337,148.985 184.341,152.159 185.345,155.273 186.35,158.328 187.354,161.323 188.358,164.26 189.362,167.137 190.366,169.954 191.371,172.712 192.375,175.411 193.379,178.051 194.383,180.631 195.388,183.152 196.392,185.613 197.396,188.015 198.4,190.358 199.404,192.642 200.409,194.866 201.413,197.03 202.417,199.136 203.421,201.182 204.426,203.169 205.43,205.096 206.434,206.964 207.438,208.773 208.443,210.522 209.447,212.212 210.451,213.843 211.455,215.414 212.459,216.926 213.464,218.379 214.468,219.773 215.472,221.107 216.476,222.381 217.481,223.596 218.485,224.752 219.489,225.849 220.493,226.886 221.498,227.864 222.502,228.783 223.506,229.652 224.51,230.479 225.514,231.265 226.519,232.008 227.523,232.71 228.527,233.37 229.531,233.988 230.536,234.565 231.54,235.1 232.544,235.592 233.548,236.044 234.553,236.453 235.557,236.82 236.561,237.146 237.565,237.43 238.569,237.672 239.574,237.873 240.578,238.031 241.582,238.148 242.586,238.223 243.591,238.256 244.595,238.248 245.599,238.198 246.603,238.105 247.608,237.971 248.612,237.796 249.616,237.578 250.62,237.319 251.624,237.018 252.629,236.675 253.633,236.291 254.637,235.864 255.641,235.396 256.646,234.886 257.65,234.334 258.654,233.741 259.658,233.105 260.663,232.428 261.667,231.709 262.671,230.948 263.675,230.146 264.679,229.302 265.684,228.416 266.688,227.488 267.692,226.518 268.696,225.507 269.701,224.453 270.705,223.358 271.709,222.222 272.713,221.043 273.717,219.823 274.722,218.561 275.726,217.257 276.73,215.911 277.734,214.523 278.739,213.094 279.743,211.623 280.747,210.11 281.751,208.555 282.756,206.959 283.76,205.321 284.764,203.641 285.768,201.919 286.772,200.155 287.777,198.35 288.781,196.503 289.785,194.614 290.789,192.73 291.794,190.931 292.798,189.218 293.802,187.59 294.806,186.048 295.811,184.591 296.815,183.22 297.819,181.935 298.823,180.735 299.827,179.621 300.832,178.592 301.836,177.649 302.84,176.791 303.844,176.019 304.849,175.333 305.853,174.732 306.857,174.217 307.861,173.787 308.866,173.443 309.87,173.184 310.874,173.011 311.878,172.924 312.882,172.922 313.887,173.006 314.891,173.175 315.895,173.43 316.899,173.77 317.904,174.196 318.908,174.708 319.912,175.305 320.916,175.988 321.921,176.757 322.925,177.61 323.929,178.55 324.933,179.575 325.937,180.686 326.942,181.882 327.946,183.164 328.95,184.531 329.954,185.984 330.959,187.523 331.963,189.147 332.967,190.857 333.971,192.652 334.976,194.533 335.98,196.499 336.984,198.552 337.988,200.689 338.992,202.912 339.997,205.208 341.001,207.516 342.005,209.83 343.009,212.151 344.014,214.477 345.018,216.81 346.022,219.149 347.026,221.494 348.031,223.845 349.035,226.202 350.039,228.565 351.043,230.934 352.047,233.31 353.052,235.691 354.056,238.079 355.06,240.473 356.064,242.873 357.069,245.279 358.073,247.691 359.077,250.109 360.081,252.533 361.086,254.964 362.09,257.4 363.094,259.843 364.098,262.291 365.102,264.746 366.107,267.207 367.111,269.674 368.115,272.147 369.119,274.627 370.124,277.112 371.128,279.603 372.132,282.101 373.136,284.605 374.14,287.114 375.145,289.63 376.149,292.152 377.153,294.68 378.157,297.215 379.162,299.755 380.166,302.301 381.17,304.854 382.174,307.413 383.179,309.977 384.183,312.548 385.187,315.125 386.191,317.708 387.195,320.297 388.2,322.893 389.204,325.494 390.208,328.102 391.212,330.715 392.217,333.335 393.221,335.961 394.225,338.577 395.229,341.085 396.234,343.469 397.238,345.727 398.242,347.861 399.246,349.869 400.25,351.753 401.255,353.512 402.259,355.146 403.263,356.655 404.267,358.039 405.272,359.298 406.276,360.432 407.28,361.441 408.284,362.326 409.289,363.085 410.293,363.72 411.297,364.229 412.301,364.614 413.305,364.874 414.31,365.008 415.314,365.018 416.318,364.903 417.322,364.663 418.327,364.298 419.331,363.808 420.335,363.193 421.339,362.454 422.344,361.589 423.348,360.6 424.352,359.485 425.356,358.246 426.36,356.881 427.365,355.392 428.369,353.778 429.373,352.039 430.377,350.18 431.382,348.255 432.386,346.277 433.39,344.246 434.394,342.162 435.399,340.024 436.403,337.833 437.407,335.589 438.411,333.292 439.415,330.942 440.42,328.538 441.424,326.081 442.428,323.571 443.432,321.008 444.437,318.392 445.441,315.723 446.445,313 447.449,310.224 448.453,307.395 449.458,304.513 450.462,301.578 451.466,298.589 452.47,295.547 453.475,292.452 454.479,289.304 455.483,286.103 456.487,282.848 457.492,279.541 458.496,276.18 459.5,272.766 460.504,269.299 461.508,265.778 462.513,262.204 463.517,258.578 464.521,254.898 465.525,251.165 466.53,247.378 467.534,243.539 468.538,239.646 469.542,235.7 470.547,231.701 471.551,227.649 472.555,223.543 473.559,219.385 474.563,215.173 475.568,210.908" stroke-linejoin="round" fill="none" stroke-width="0.5"/>
   <polyline stroke="#76ab2f" stroke-linecap="butt" points="74.88,200.705 75.8842,197.316 76.8885,193.879 77.8927,190.399 78.8969,186.879 79.9011,183.323 80.9054,179.737 81.9096,176.125 82.9138,172.49 83.9181,168.838 84.9223,165.172 85.9265,161.497 86.9308,157.817 87.935,154.136 88.9392,150.46 89.9434,146.792 90.9477,143.136 91.9519,139.497 92.9561,135.88 93.9604,132.288 94.9646,128.726 95.9688,125.198 96.9731,121.709 97.9773,118.263 98.9815,114.864 99.9857,111.517 100.99,108.226 101.994,104.995 102.998,101.828 104.003,98.7309 105.007,95.7068 106.011,92.7603 107.015,89.8959 108.02,87.1178 109.024,84.4304 110.028,81.838 111.032,79.3449 112.036,76.9555 113.041,74.6742 114.045,72.5052 115.049,70.4529 116.053,68.5217 117.058,66.7136 118.062,65.0275 119.066,63.4617 120.07,62.0147 121.075,60.685 122.079,59.471 123.083,58.3711 124.087,57.3838 125.091,56.5075 126.096,55.7407 127.1,55.0818 128.104,54.5291 129.108,54.0813 130.113,53.7367 131.117,53.4938 132.121,53.3509 133.125,53.3066 134.13,53.3593 135.134,53.5074 136.138,53.7493 137.142,54.0836 138.146,54.5085 139.151,55.0227 140.155,55.6245 141.159,56.3123 142.163,57.0847 143.168,57.94 144.172,58.8766 145.176,59.8931 146.18,60.9879 147.185,62.1594 148.189,63.406 149.193,64.7262 150.197,66.1184 151.201,67.5811 152.206,69.1127 153.21,70.7116 154.214,72.3764 155.218,74.1053 156.223,75.8969 157.227,77.7497 158.231,79.662 159.235,81.6322 160.24,83.659 161.244,85.7405 162.248,87.8754 163.252,90.062 164.256,92.2989 165.261,94.5844 166.265,96.9169 167.269,99.2949 168.273,101.717 169.278,104.181 170.282,106.687 171.286,109.231 172.29,111.813 173.295,114.432 174.299,117.085 175.303,119.771 176.307,122.488 177.311,125.235 178.316,128.009 179.32,130.808 180.324,133.627 181.328,136.466 182.333,139.32 183.337,142.187 184.341,145.065 185.345,147.951 186.35,150.841 187.354,153.734 188.358,156.626 189.362,159.514 190.366,162.396 191.371,165.27 192.375,168.131 193.379,170.978 194.383,173.808 195.388,176.618 196.392,179.406 197.396,182.167 198.4,184.901 199.404,187.603 200.409,190.272 201.413,192.904 202.417,195.497 203.421,198.048 204.426,200.554 205.43,203.012 206.434,205.42 207.438,207.775 208.443,210.074 209.447,212.314 210.451,214.493 211.455,216.608 212.459,218.655 213.464,220.634 214.468,222.539 215.472,224.37 216.476,226.122 217.481,227.794 218.485,229.382 219.489,230.884 220.493,232.297 221.498,233.619 222.502,234.845 223.506,235.976 224.51,237.011 225.514,237.953 226.519,238.803 227.523,239.564 228.527,240.238 229.531,240.826 230.536,241.331 231.54,241.753 232.544,242.096 233.548,242.361 234.553,242.549 235.557,242.664 236.561,242.706 237.565,242.678 238.569,242.582 239.574,242.419 240.578,242.191 241.582,241.901 242.586,241.55 243.591,241.14 244.595,240.673 245.599,240.151 246.603,239.576 247.608,238.95 248.612,238.274 249.616,237.551 250.62,236.782 251.624,235.97 252.629,235.116 253.633,234.222 254.637,233.29 255.641,232.323 256.646,231.321 257.65,230.287 258.654,229.223 259.658,228.13 260.663,227.011 261.667,225.868 262.671,224.702 263.675,223.515 264.679,222.31 265.684,221.087 266.688,219.85 267.692,218.599 268.696,217.337 269.701,216.066 270.705,214.788 271.709,213.504 272.713,212.217 273.717,210.928 274.722,209.639 275.726,208.353 276.73,207.07 277.734,205.794 278.739,204.526 279.743,203.267 280.747,202.02 281.751,200.787 282.756,199.569 283.76,198.369 284.764,197.188 285.768,196.028 286.772,194.892 287.777,193.781 288.781,192.696 289.785,191.641 290.789,190.616 291.794,189.623 292.798,188.664 293.802,187.738 294.806,186.848 295.811,185.995 296.815,185.179 297.819,184.401 298.823,183.663 299.827,182.966 300.832,182.31 301.836,181.698 302.84,181.13 303.844,180.607 304.849,180.13 305.853,179.7 306.857,179.319 307.861,178.987 308.866,178.706 309.87,178.476 310.874,178.3 311.878,178.177 312.882,178.109 313.887,178.097 314.891,178.143 315.895,178.246 316.899,178.409 317.904,178.633 318.908,178.918 319.912,179.265 320.916,179.677 321.921,180.153 322.925,180.695 323.929,181.304 324.933,181.981 325.937,182.727 326.942,183.543 327.946,184.431 328.95,185.392 329.954,186.425 330.959,187.534 331.963,188.718 332.967,189.979 333.971,191.318 334.976,192.736 335.98,194.234 336.984,195.813 337.988,197.475 338.992,199.22 339.997,201.049 341.001,202.961 342.005,204.954 343.009,207.023 344.014,209.166 345.018,211.38 346.022,213.661 347.026,216.007 348.031,218.414 349.035,220.88 350.039,223.4 351.043,225.973 352.047,228.595 353.052,231.262 354.056,233.973 355.06,236.723 356.064,239.509 357.069,242.329 358.073,245.179 359.077,248.057 360.081,250.958 361.086,253.881 362.09,256.822 363.094,259.777 364.098,262.744 365.102,265.72 366.107,268.701 367.111,271.685 368.115,274.668 369.119,277.647 370.124,280.619 371.128,283.581 372.132,286.53 373.136,289.463 374.14,292.376 375.145,295.267 376.149,298.132 377.153,300.969 378.157,303.774 379.162,306.544 380.166,309.276 381.17,311.967 382.174,314.614 383.179,317.214 384.183,319.763 385.187,322.259 386.191,324.698 387.195,327.077 388.2,329.394 389.204,331.645 390.208,333.826 391.212,335.936 392.217,337.97 393.221,339.926 394.225,341.801 395.229,343.592 396.234,345.3 397.238,346.923 398.242,348.462 399.246,349.915 400.25,351.283 401.255,352.564 402.259,353.759 403.263,354.867 404.267,355.886 405.272,356.818 406.276,357.661 407.28,358.414 408.284,359.078 409.289,359.652 410.293,360.135 411.297,360.527 412.301,360.827 413.305,361.035 414.31,361.151 415.314,361.173 416.318,361.101 417.322,360.936 418.327,360.676 419.331,360.32 420.335,359.869 421.339,359.322 422.344,358.678 423.348,357.937 424.352,357.099 425.356,356.162 426.36,355.127 427.365,353.993 428.369,352.759 429.373,351.425 430.377,349.99 431.382,348.455 432.386,346.823 433.39,345.094 434.394,343.27 435.399,341.355 436.403,339.349 437.407,337.254 438.411,335.073 439.415,332.808 440.42,330.46 441.424,328.031 442.428,325.523 443.432,322.939 444.437,320.279 445.441,317.547 446.445,314.744 447.449,311.872 448.453,308.933 449.458,305.929 450.462,302.861 451.466,299.732 452.47,296.544 453.475,293.299 454.479,289.998 455.483,286.644 456.487,283.238 457.492,279.783 458.496,276.28 459.5,272.731 460.504,269.139 461.508,265.504 462.513,261.83 463.517,258.118 464.521,254.37 465.525,250.588 466.53,246.774 467.534,242.93 468.538,239.058 469.542,235.159 470.547,231.236 471.551,227.291 472.555,223.325 473.559,219.341 474.563,215.34 475.568,211.325" stroke-linejoin="round" fill="none" stroke-width="0.5"/>
   <polyline stroke="#4cbded" stroke-linecap="butt" points="74.88,201.328 75.8842,197.805 76.8885,194.234 77.8927,190.624 78.8969,186.979 79.9011,183.305 80.9054,179.608 81.9096,175.894 82.9138,172.167 83.9181,168.433 84.9223,164.697 85.9265,160.964 86.9308,157.24 87.935,153.527 88.9392,149.832 89.9434,146.159 90.9477,142.511 91.9519,138.894 92.9561,135.312 93.9604,131.768 94.9646,128.266 95.9688,124.81 96.9731,121.404 97.9773,118.051 98.9815,114.754 99.9857,111.517 100.99,108.343 101.994,105.235 102.998,102.195 104.003,99.2269 105.007,96.3328 106.011,93.5151 107.015,90.7764 108.02,88.1187 109.024,85.5443 110.028,83.0552 111.032,80.6531 112.036,78.3399 113.041,76.1172 114.045,73.9864 115.049,71.9489 116.053,70.006 117.058,68.1587 118.062,66.4082 119.066,64.7553 120.07,63.201 121.075,61.7461 122.079,60.3911 123.083,59.1369 124.087,57.9839 125.091,56.9326 126.096,55.9834 127.1,55.1366 128.104,54.3925 129.108,53.7512 130.113,53.2128 131.117,52.7773 132.121,52.4446 133.125,52.2146 134.13,52.087 135.134,52.0615 136.138,52.1377 137.142,52.3151 138.146,52.5932 139.151,52.9714 140.155,53.4489 141.159,54.0249 142.163,54.6985 143.168,55.4689 144.172,56.335 145.176,57.2956 146.18,58.3495 147.185,59.4956 148.189,60.7325 149.193,62.0586 150.197,63.4726 151.201,64.9728 152.206,66.5576 153.21,68.2252 154.214,69.9738 155.218,71.8015 156.223,73.7063 157.227,75.6862 158.231,77.7389 159.235,79.8623 160.24,82.0541 161.244,84.312 162.248,86.6333 163.252,89.0157 164.256,91.4564 165.261,93.9529 166.265,96.5022 167.269,99.1016 168.273,101.748 169.278,104.439 170.282,107.17 171.286,109.94 172.29,112.744 173.295,115.579 174.299,118.442 175.303,121.33 176.307,124.238 177.311,127.164 178.316,130.103 179.32,133.052 180.324,136.007 181.328,138.966 182.333,141.924 183.337,144.879 184.341,147.828 185.345,150.767 186.35,153.693 187.354,156.604 188.358,159.496 189.362,162.367 190.366,165.215 191.371,168.036 192.375,170.829 193.379,173.59 194.383,176.317 195.388,179.009 196.392,181.662 197.396,184.276 198.4,186.847 199.404,189.374 200.409,191.854 201.413,194.287 202.417,196.671 203.421,199.003 204.426,201.282 205.43,203.508 206.434,205.677 207.438,207.79 208.443,209.844 209.447,211.839 210.451,213.774 211.455,215.647 212.459,217.458 213.464,219.206 214.468,220.89 215.472,222.509 216.476,224.064 217.481,225.552 218.485,226.974 219.489,228.33 220.493,229.619 221.498,230.841 222.502,231.995 223.506,233.083 224.51,234.104 225.514,235.057 226.519,235.943 227.523,236.763 228.527,237.516 229.531,238.202 230.536,238.823 231.54,239.377 232.544,239.866 233.548,240.29 234.553,240.65 235.557,240.945 236.561,241.176 237.565,241.345 238.569,241.451 239.574,241.496 240.578,241.479 241.582,241.402 242.586,241.266 243.591,241.071 244.595,240.818 245.599,240.508 246.603,240.142 247.608,239.722 248.612,239.247 249.616,238.72 250.62,238.141 251.624,237.511 252.629,236.832 253.633,236.106 254.637,235.332 255.641,234.513 256.646,233.65 257.65,232.745 258.654,231.798 259.658,230.812 260.663,229.788 261.667,228.728 262.671,227.633 263.675,226.504 264.679,225.345 265.684,224.155 266.688,222.938 267.692,221.696 268.696,220.429 269.701,219.14 270.705,217.831 271.709,216.504 272.713,215.161 273.717,213.804 274.722,212.436 275.726,211.058 276.73,209.673 277.734,208.283 278.739,206.89 279.743,205.497 280.747,204.106 281.751,202.72 282.756,201.341 283.76,199.972 284.764,198.615 285.768,197.273 286.772,195.948 287.777,194.644 288.781,193.362 289.785,192.107 290.789,190.88 291.794,189.685 292.798,188.524 293.802,187.4 294.806,186.315 295.811,185.273 296.815,184.274 297.819,183.323 298.823,182.42 299.827,181.568 300.832,180.769 301.836,180.026 302.84,179.339 303.844,178.71 304.849,178.142 305.853,177.636 306.857,177.193 307.861,176.815 308.866,176.503 309.87,176.258 310.874,176.081 311.878,175.974 312.882,175.938 313.887,175.972 314.891,176.079 315.895,176.259 316.899,176.512 317.904,176.838 318.908,177.239 319.912,177.715 320.916,178.265 321.921,178.891 322.925,179.591 323.929,180.367 324.933,181.217 325.937,182.142 326.942,183.142 327.946,184.216 328.95,185.363 329.954,186.583 330.959,187.875 331.963,189.239 332.967,190.674 333.971,192.178 334.976,193.751 335.98,195.392 336.984,197.1 337.988,198.872 338.992,200.709 339.997,202.608 341.001,204.567 342.005,206.586 343.009,208.663 344.014,210.795 345.018,212.982 346.022,215.221 347.026,217.511 348.031,219.851 349.035,222.237 350.039,224.668 351.043,227.143 352.047,229.659 353.052,232.215 354.056,234.808 355.06,237.436 356.064,240.098 357.069,242.79 358.073,245.512 359.077,248.26 360.081,251.033 361.086,253.828 362.09,256.643 363.094,259.476 364.098,262.323 365.102,265.184 366.107,268.054 367.111,270.933 368.115,273.817 369.119,276.703 370.124,279.59 371.128,282.474 372.132,285.352 373.136,288.223 374.14,291.083 375.145,293.93 376.149,296.76 377.153,299.571 378.157,302.36 379.162,305.124 380.166,307.86 381.17,310.565 382.174,313.236 383.179,315.87 384.183,318.464 385.187,321.014 386.191,323.518 387.195,325.972 388.2,328.373 389.204,330.718 390.208,333.003 391.212,335.225 392.217,337.38 393.221,339.466 394.225,341.478 395.229,343.414 396.234,345.269 397.238,347.041 398.242,348.727 399.246,350.323 400.25,351.828 401.255,353.239 402.259,354.553 403.263,355.769 404.267,356.885 405.272,357.898 406.276,358.808 407.28,359.613 408.284,360.312 409.289,360.904 410.293,361.387 411.297,361.763 412.301,362.029 413.305,362.186 414.31,362.234 415.314,362.173 416.318,362.003 417.322,361.724 418.327,361.338 419.331,360.845 420.335,360.245 421.339,359.541 422.344,358.734 423.348,357.824 424.352,356.815 425.356,355.707 426.36,354.503 427.365,353.205 428.369,351.816 429.373,350.338 430.377,348.775 431.382,347.128 432.386,345.401 433.39,343.596 434.394,341.717 435.399,339.765 436.403,337.742 437.407,335.651 438.411,333.493 439.415,331.27 440.42,328.983 441.424,326.634 442.428,324.223 443.432,321.752 444.437,319.221 445.441,316.63 446.445,313.981 447.449,311.272 448.453,308.505 449.458,305.679 450.462,302.793 451.466,299.847 452.47,296.841 453.475,293.773 454.479,290.643 455.483,287.448 456.487,284.188 457.492,280.861 458.496,277.465 459.5,273.999 460.504,270.459 461.508,266.844 462.513,263.151 463.517,259.378 464.521,255.521 465.525,251.578 466.53,247.545 467.534,243.419 468.538,239.195 469.542,234.872 470.547,230.444 471.551,225.907 472.555,221.257 473.559,216.49 474.563,211.601 475.568,206.584" stroke-linejoin="round" fill="none" stroke-width="0.5"/>
  </g>
  <clipPath id="cp00576432">
   <polygon points="0,432 576,432 576,0 0,0"/>
  </clipPath>
  <g clip-path="url(#cp00576432)">
   <polygon points="374.902,171.819 502.269,171.819 502.269,51.6404 374.902,51.6404" fill="#ffffff" shape-rendering="crispEdges"/>
   <polyline stroke-dasharray="16,0" stroke="#262626" stroke-linecap="square" points="374.902,171.819 502.269,171.819" stroke-linejoin="miter" fill="none" stroke-width="0.5"/>
   <polyline stroke-dasharray="16,0" stroke="#262626" stroke-linecap="square" points="374.902,51.6404 502.269,51.6404" stroke-linejoin="miter" fill="none" stroke-width="0.5"/>
   <polyline stroke-dasharray="16,0" stroke="#262626" stroke-linecap="square" points="374.902,171.819 374.902,51.6404" stroke-linejoin="miter" fill="none" stroke-width="0.5"/>
   <polyline stroke-dasharray="16,0" stroke="#262626" stroke-linecap="square" points="502.269,171.819 502.269,51.6404" stroke-linejoin="miter" fill="none" stroke-width="0.5"/>
   <text transform="translate(421.638,66.1553) rotate(-0,-0,-4.5)" font-size="9" font-weight="normal" xml:space="preserve" font-family="FreeSans" font-style="normal">
    <tspan x="0 5 9 14 17 22 " y="-1" fill="rgb(0,0,0)">uzorak</tspan>
   </text>
   <text transform="translate(421.638,86.6851) rotate(-0,-0,-5)" font-size="9" font-weight="normal" xml:space="preserve" font-family="FreeSans" font-style="normal">
    <tspan x="0 5 10 15 19 22 27 32 35 40 42 44 48 53 55 60 62 " y="-2" fill="rgb(0,0,0)">konstantni splajn</tspan>
   </text>
   <text transform="translate(421.638,106.715) rotate(-0,-0,-5)" font-size="9" font-weight="normal" xml:space="preserve" font-family="FreeSans" font-style="normal">
    <tspan x="0 2 4 9 14 19 22 27 29 31 35 40 42 47 49 " y="-2" fill="rgb(0,0,0)">linearni splajn</tspan>
   </text>
   <text transform="translate(421.638,126.745) rotate(-0,-0,-5)" font-size="9" font-weight="normal" xml:space="preserve" font-family="FreeSans" font-style="normal">
    <tspan x="0 5 9 14 19 22 27 30 35 37 39 43 48 50 55 57 " y="-2" fill="rgb(0,0,0)">kvadratni splajn</tspan>
   </text>
   <text transform="translate(421.638,146.775) rotate(-0,-0,-5)" font-size="9" font-weight="normal" xml:space="preserve" font-family="FreeSans" font-style="normal">
    <tspan x="0 5 10 15 20 22 24 28 33 35 40 42 " y="-2" fill="rgb(0,0,0)">kubni splajn</tspan>
   </text>
   <text transform="translate(421.638,166.804) rotate(-0,-0,-5)" font-size="9" font-weight="normal" xml:space="preserve" font-family="FreeSans" font-style="normal">
    <tspan x="0 5 9 14 17 20 25 28 33 38 41 46 48 50 54 59 61 66 68 " y="-2" fill="rgb(0,0,0)">kvarternarni splajn</tspan>
   </text>
   <polygon points="398.77,62.5213 397.77,62.5213 397.27,61.6553 397.77,60.7893 398.77,60.7893 399.27,61.6553 399.27,61.6553" fill="#0071bc" shape-rendering="crispEdges"/>
   <polyline stroke="#d85218" stroke-linecap="butt" points="380.447,81.6851 416.093,81.6851" stroke-linejoin="round" fill="none" stroke-width="0.5"/>
   <polyline stroke="#ecb01f" stroke-linecap="butt" points="380.447,101.715 416.093,101.715" stroke-linejoin="round" fill="none" stroke-width="0.5"/>
   <polyline stroke="#7d2e8d" stroke-linecap="butt" points="380.447,121.745 416.093,121.745" stroke-linejoin="round" fill="none" stroke-width="0.5"/>
   <polyline stroke="#76ab2f" stroke-linecap="butt" points="380.447,141.775 416.093,141.775" stroke-linejoin="round" fill="none" stroke-width="0.5"/>
   <polyline stroke="#4cbded" stroke-linecap="butt" points="380.447,161.804 416.093,161.804" stroke-linejoin="round" fill="none" stroke-width="0.5"/>
  </g>
 </g>
</svg>
